%TF.GenerationSoftware,KiCad,Pcbnew,(6.0.7-1)-1*%
%TF.CreationDate,2022-10-15T14:16:28+02:00*%
%TF.ProjectId,PicoWeather,5069636f-5765-4617-9468-65722e6b6963,rev?*%
%TF.SameCoordinates,Original*%
%TF.FileFunction,Drillmap*%
%TF.FilePolarity,Positive*%
%FSLAX45Y45*%
G04 Gerber Fmt 4.5, Leading zero omitted, Abs format (unit mm)*
G04 Created by KiCad (PCBNEW (6.0.7-1)-1) date 2022-10-15 14:16:28*
%MOMM*%
%LPD*%
G01*
G04 APERTURE LIST*
%ADD10C,0.100000*%
%ADD11C,0.200000*%
%ADD12C,0.040000*%
%ADD13C,0.080000*%
%ADD14C,0.090000*%
%ADD15C,0.110000*%
%ADD16C,0.132000*%
G04 APERTURE END LIST*
D10*
X9650000Y-11500000D02*
G75*
G03*
X10000000Y-11150000I0J350000D01*
G01*
X10000000Y-5350000D02*
X10000000Y-11150000D01*
X5850000Y-11150000D02*
G75*
G03*
X6200000Y-11500000I350000J0D01*
G01*
X6200000Y-5000000D02*
G75*
G03*
X5850000Y-5350000I0J-350000D01*
G01*
X5850000Y-11150000D02*
X5850000Y-5350000D01*
X6200000Y-11500000D02*
X9650000Y-11500000D01*
X6200000Y-5000000D02*
X9650000Y-5000000D01*
X10000000Y-5350000D02*
G75*
G03*
X9650000Y-5000000I-350000J0D01*
G01*
D11*
D12*
X7980000Y-7480000D02*
X8020000Y-7520000D01*
X8020000Y-7480000D02*
X7980000Y-7520000D01*
X8080000Y-7680000D02*
X8120000Y-7720000D01*
X8120000Y-7680000D02*
X8080000Y-7720000D01*
X8130000Y-7330000D02*
X8170000Y-7370000D01*
X8170000Y-7330000D02*
X8130000Y-7370000D01*
X8930000Y-6630000D02*
X8970000Y-6670000D01*
X8970000Y-6630000D02*
X8930000Y-6670000D01*
X9230000Y-7230000D02*
X9270000Y-7270000D01*
X9270000Y-7230000D02*
X9230000Y-7270000D01*
D13*
X6878000Y-9350000D02*
G75*
G03*
X6878000Y-9350000I-40000J0D01*
G01*
X6878000Y-9750000D02*
G75*
G03*
X6878000Y-9750000I-40000J0D01*
G01*
X6990000Y-6692000D02*
G75*
G03*
X6990000Y-6692000I-40000J0D01*
G01*
X6990000Y-7708000D02*
G75*
G03*
X6990000Y-7708000I-40000J0D01*
G01*
X6990000Y-7992000D02*
G75*
G03*
X6990000Y-7992000I-40000J0D01*
G01*
X6990000Y-9008000D02*
G75*
G03*
X6990000Y-9008000I-40000J0D01*
G01*
X7340000Y-6692000D02*
G75*
G03*
X7340000Y-6692000I-40000J0D01*
G01*
X7340000Y-7708000D02*
G75*
G03*
X7340000Y-7708000I-40000J0D01*
G01*
X7340000Y-7984000D02*
G75*
G03*
X7340000Y-7984000I-40000J0D01*
G01*
X7340000Y-9000000D02*
G75*
G03*
X7340000Y-9000000I-40000J0D01*
G01*
X8402000Y-9350000D02*
G75*
G03*
X8402000Y-9350000I-40000J0D01*
G01*
X8402000Y-9750000D02*
G75*
G03*
X8402000Y-9750000I-40000J0D01*
G01*
X8813500Y-9070000D02*
G75*
G03*
X8813500Y-9070000I-40000J0D01*
G01*
X8813500Y-9832000D02*
G75*
G03*
X8813500Y-9832000I-40000J0D01*
G01*
X9067500Y-9070000D02*
G75*
G03*
X9067500Y-9070000I-40000J0D01*
G01*
X9067500Y-9832000D02*
G75*
G03*
X9067500Y-9832000I-40000J0D01*
G01*
D14*
X6150000Y-8955000D02*
X6150000Y-9045000D01*
X6105000Y-9000000D02*
X6195000Y-9000000D01*
X6150000Y-9615400D02*
X6150000Y-9705400D01*
X6105000Y-9660400D02*
X6195000Y-9660400D01*
X6150000Y-10275800D02*
X6150000Y-10365800D01*
X6105000Y-10320800D02*
X6195000Y-10320800D01*
X6404000Y-8955000D02*
X6404000Y-9045000D01*
X6359000Y-9000000D02*
X6449000Y-9000000D01*
X6404000Y-9615400D02*
X6404000Y-9705400D01*
X6359000Y-9660400D02*
X6449000Y-9660400D01*
X6404000Y-10275800D02*
X6404000Y-10365800D01*
X6359000Y-10320800D02*
X6449000Y-10320800D01*
D10*
X9535356Y-5874356D02*
X9535356Y-5803644D01*
X9464644Y-5803644D01*
X9464644Y-5874356D01*
X9535356Y-5874356D01*
X9535356Y-6128356D02*
X9535356Y-6057644D01*
X9464644Y-6057644D01*
X9464644Y-6128356D01*
X9535356Y-6128356D01*
X9535356Y-6382356D02*
X9535356Y-6311644D01*
X9464644Y-6311644D01*
X9464644Y-6382356D01*
X9535356Y-6382356D01*
X9535356Y-6636356D02*
X9535356Y-6565644D01*
X9464644Y-6565644D01*
X9464644Y-6636356D01*
X9535356Y-6636356D01*
X9535356Y-6890356D02*
X9535356Y-6819644D01*
X9464644Y-6819644D01*
X9464644Y-6890356D01*
X9535356Y-6890356D01*
X9535356Y-7144356D02*
X9535356Y-7073644D01*
X9464644Y-7073644D01*
X9464644Y-7144356D01*
X9535356Y-7144356D01*
X9535356Y-7398356D02*
X9535356Y-7327644D01*
X9464644Y-7327644D01*
X9464644Y-7398356D01*
X9535356Y-7398356D01*
X9535356Y-7652356D02*
X9535356Y-7581644D01*
X9464644Y-7581644D01*
X9464644Y-7652356D01*
X9535356Y-7652356D01*
X9535356Y-7906356D02*
X9535356Y-7835644D01*
X9464644Y-7835644D01*
X9464644Y-7906356D01*
X9535356Y-7906356D01*
X9535356Y-8160356D02*
X9535356Y-8089644D01*
X9464644Y-8089644D01*
X9464644Y-8160356D01*
X9535356Y-8160356D01*
X9535356Y-8414356D02*
X9535356Y-8343644D01*
X9464644Y-8343644D01*
X9464644Y-8414356D01*
X9535356Y-8414356D01*
X9535356Y-8668356D02*
X9535356Y-8597644D01*
X9464644Y-8597644D01*
X9464644Y-8668356D01*
X9535356Y-8668356D01*
X9535356Y-8922356D02*
X9535356Y-8851644D01*
X9464644Y-8851644D01*
X9464644Y-8922356D01*
X9535356Y-8922356D01*
X9535356Y-9176356D02*
X9535356Y-9105644D01*
X9464644Y-9105644D01*
X9464644Y-9176356D01*
X9535356Y-9176356D01*
X9535356Y-9430356D02*
X9535356Y-9359644D01*
X9464644Y-9359644D01*
X9464644Y-9430356D01*
X9535356Y-9430356D01*
X9535356Y-9684356D02*
X9535356Y-9613644D01*
X9464644Y-9613644D01*
X9464644Y-9684356D01*
X9535356Y-9684356D01*
X9535356Y-9938356D02*
X9535356Y-9867644D01*
X9464644Y-9867644D01*
X9464644Y-9938356D01*
X9535356Y-9938356D01*
X9535356Y-10192356D02*
X9535356Y-10121644D01*
X9464644Y-10121644D01*
X9464644Y-10192356D01*
X9535356Y-10192356D01*
X9535356Y-10446356D02*
X9535356Y-10375644D01*
X9464644Y-10375644D01*
X9464644Y-10446356D01*
X9535356Y-10446356D01*
X9535356Y-10700356D02*
X9535356Y-10629644D01*
X9464644Y-10629644D01*
X9464644Y-10700356D01*
X9535356Y-10700356D01*
X9789356Y-5874356D02*
X9789356Y-5803644D01*
X9718644Y-5803644D01*
X9718644Y-5874356D01*
X9789356Y-5874356D01*
X9789356Y-6128356D02*
X9789356Y-6057644D01*
X9718644Y-6057644D01*
X9718644Y-6128356D01*
X9789356Y-6128356D01*
X9789356Y-6382356D02*
X9789356Y-6311644D01*
X9718644Y-6311644D01*
X9718644Y-6382356D01*
X9789356Y-6382356D01*
X9789356Y-6636356D02*
X9789356Y-6565644D01*
X9718644Y-6565644D01*
X9718644Y-6636356D01*
X9789356Y-6636356D01*
X9789356Y-6890356D02*
X9789356Y-6819644D01*
X9718644Y-6819644D01*
X9718644Y-6890356D01*
X9789356Y-6890356D01*
X9789356Y-7144356D02*
X9789356Y-7073644D01*
X9718644Y-7073644D01*
X9718644Y-7144356D01*
X9789356Y-7144356D01*
X9789356Y-7398356D02*
X9789356Y-7327644D01*
X9718644Y-7327644D01*
X9718644Y-7398356D01*
X9789356Y-7398356D01*
X9789356Y-7652356D02*
X9789356Y-7581644D01*
X9718644Y-7581644D01*
X9718644Y-7652356D01*
X9789356Y-7652356D01*
X9789356Y-7906356D02*
X9789356Y-7835644D01*
X9718644Y-7835644D01*
X9718644Y-7906356D01*
X9789356Y-7906356D01*
X9789356Y-8160356D02*
X9789356Y-8089644D01*
X9718644Y-8089644D01*
X9718644Y-8160356D01*
X9789356Y-8160356D01*
X9789356Y-8414356D02*
X9789356Y-8343644D01*
X9718644Y-8343644D01*
X9718644Y-8414356D01*
X9789356Y-8414356D01*
X9789356Y-8668356D02*
X9789356Y-8597644D01*
X9718644Y-8597644D01*
X9718644Y-8668356D01*
X9789356Y-8668356D01*
X9789356Y-8922356D02*
X9789356Y-8851644D01*
X9718644Y-8851644D01*
X9718644Y-8922356D01*
X9789356Y-8922356D01*
X9789356Y-9176356D02*
X9789356Y-9105644D01*
X9718644Y-9105644D01*
X9718644Y-9176356D01*
X9789356Y-9176356D01*
X9789356Y-9430356D02*
X9789356Y-9359644D01*
X9718644Y-9359644D01*
X9718644Y-9430356D01*
X9789356Y-9430356D01*
X9789356Y-9684356D02*
X9789356Y-9613644D01*
X9718644Y-9613644D01*
X9718644Y-9684356D01*
X9789356Y-9684356D01*
X9789356Y-9938356D02*
X9789356Y-9867644D01*
X9718644Y-9867644D01*
X9718644Y-9938356D01*
X9789356Y-9938356D01*
X9789356Y-10192356D02*
X9789356Y-10121644D01*
X9718644Y-10121644D01*
X9718644Y-10192356D01*
X9789356Y-10192356D01*
X9789356Y-10446356D02*
X9789356Y-10375644D01*
X9718644Y-10375644D01*
X9718644Y-10446356D01*
X9789356Y-10446356D01*
X9789356Y-10700356D02*
X9789356Y-10629644D01*
X9718644Y-10629644D01*
X9718644Y-10700356D01*
X9789356Y-10700356D01*
D15*
X8125000Y-5980000D02*
X8180000Y-5925000D01*
X8125000Y-5870000D01*
X8070000Y-5925000D01*
X8125000Y-5980000D01*
X8125000Y-6430000D02*
X8180000Y-6375000D01*
X8125000Y-6320000D01*
X8070000Y-6375000D01*
X8125000Y-6430000D01*
X8775000Y-5980000D02*
X8830000Y-5925000D01*
X8775000Y-5870000D01*
X8720000Y-5925000D01*
X8775000Y-5980000D01*
X8775000Y-6430000D02*
X8830000Y-6375000D01*
X8775000Y-6320000D01*
X8720000Y-6375000D01*
X8775000Y-6430000D01*
X8992500Y-7065000D02*
X9047500Y-7010000D01*
X8992500Y-6955000D01*
X8937500Y-7010000D01*
X8992500Y-7065000D01*
X8992500Y-7525000D02*
X9047500Y-7470000D01*
X8992500Y-7415000D01*
X8937500Y-7470000D01*
X8992500Y-7525000D01*
X8992500Y-7985000D02*
X9047500Y-7930000D01*
X8992500Y-7875000D01*
X8937500Y-7930000D01*
X8992500Y-7985000D01*
X8992500Y-8445000D02*
X9047500Y-8390000D01*
X8992500Y-8335000D01*
X8937500Y-8390000D01*
X8992500Y-8445000D01*
D16*
X6834000Y-5571200D02*
X6966000Y-5703200D01*
X6966000Y-5571200D02*
X6834000Y-5703200D01*
X6966000Y-5637200D02*
G75*
G03*
X6966000Y-5637200I-66000J0D01*
G01*
X6984000Y-10784000D02*
X7116000Y-10916000D01*
X7116000Y-10784000D02*
X6984000Y-10916000D01*
X7116000Y-10850000D02*
G75*
G03*
X7116000Y-10850000I-66000J0D01*
G01*
X7334000Y-5571200D02*
X7466000Y-5703200D01*
X7466000Y-5571200D02*
X7334000Y-5703200D01*
X7466000Y-5637200D02*
G75*
G03*
X7466000Y-5637200I-66000J0D01*
G01*
X7484000Y-10784000D02*
X7616000Y-10916000D01*
X7616000Y-10784000D02*
X7484000Y-10916000D01*
X7616000Y-10850000D02*
G75*
G03*
X7616000Y-10850000I-66000J0D01*
G01*
X8107500Y-10784000D02*
X8239500Y-10916000D01*
X8239500Y-10784000D02*
X8107500Y-10916000D01*
X8239500Y-10850000D02*
G75*
G03*
X8239500Y-10850000I-66000J0D01*
G01*
X8607500Y-10784000D02*
X8739500Y-10916000D01*
X8739500Y-10784000D02*
X8607500Y-10916000D01*
X8739500Y-10850000D02*
G75*
G03*
X8739500Y-10850000I-66000J0D01*
G01*
D11*
X6102619Y-11815476D02*
X6102619Y-11615476D01*
X6150238Y-11615476D01*
X6178809Y-11625000D01*
X6197857Y-11644048D01*
X6207381Y-11663095D01*
X6216905Y-11701190D01*
X6216905Y-11729762D01*
X6207381Y-11767857D01*
X6197857Y-11786905D01*
X6178809Y-11805952D01*
X6150238Y-11815476D01*
X6102619Y-11815476D01*
X6302619Y-11815476D02*
X6302619Y-11682143D01*
X6302619Y-11720238D02*
X6312143Y-11701190D01*
X6321667Y-11691667D01*
X6340714Y-11682143D01*
X6359762Y-11682143D01*
X6426428Y-11815476D02*
X6426428Y-11682143D01*
X6426428Y-11615476D02*
X6416905Y-11625000D01*
X6426428Y-11634524D01*
X6435952Y-11625000D01*
X6426428Y-11615476D01*
X6426428Y-11634524D01*
X6550238Y-11815476D02*
X6531190Y-11805952D01*
X6521667Y-11786905D01*
X6521667Y-11615476D01*
X6655000Y-11815476D02*
X6635952Y-11805952D01*
X6626428Y-11786905D01*
X6626428Y-11615476D01*
X6883571Y-11815476D02*
X6883571Y-11615476D01*
X6950238Y-11758333D01*
X7016905Y-11615476D01*
X7016905Y-11815476D01*
X7197857Y-11815476D02*
X7197857Y-11710714D01*
X7188333Y-11691667D01*
X7169286Y-11682143D01*
X7131190Y-11682143D01*
X7112143Y-11691667D01*
X7197857Y-11805952D02*
X7178809Y-11815476D01*
X7131190Y-11815476D01*
X7112143Y-11805952D01*
X7102619Y-11786905D01*
X7102619Y-11767857D01*
X7112143Y-11748809D01*
X7131190Y-11739286D01*
X7178809Y-11739286D01*
X7197857Y-11729762D01*
X7293095Y-11682143D02*
X7293095Y-11882143D01*
X7293095Y-11691667D02*
X7312143Y-11682143D01*
X7350238Y-11682143D01*
X7369286Y-11691667D01*
X7378809Y-11701190D01*
X7388333Y-11720238D01*
X7388333Y-11777381D01*
X7378809Y-11796428D01*
X7369286Y-11805952D01*
X7350238Y-11815476D01*
X7312143Y-11815476D01*
X7293095Y-11805952D01*
X7474048Y-11796428D02*
X7483571Y-11805952D01*
X7474048Y-11815476D01*
X7464524Y-11805952D01*
X7474048Y-11796428D01*
X7474048Y-11815476D01*
X7474048Y-11691667D02*
X7483571Y-11701190D01*
X7474048Y-11710714D01*
X7464524Y-11701190D01*
X7474048Y-11691667D01*
X7474048Y-11710714D01*
D12*
X5805000Y-12125000D02*
X5845000Y-12165000D01*
X5845000Y-12125000D02*
X5805000Y-12165000D01*
D11*
X6140714Y-12035476D02*
X6159762Y-12035476D01*
X6178809Y-12045000D01*
X6188333Y-12054524D01*
X6197857Y-12073571D01*
X6207381Y-12111667D01*
X6207381Y-12159286D01*
X6197857Y-12197381D01*
X6188333Y-12216428D01*
X6178809Y-12225952D01*
X6159762Y-12235476D01*
X6140714Y-12235476D01*
X6121667Y-12225952D01*
X6112143Y-12216428D01*
X6102619Y-12197381D01*
X6093095Y-12159286D01*
X6093095Y-12111667D01*
X6102619Y-12073571D01*
X6112143Y-12054524D01*
X6121667Y-12045000D01*
X6140714Y-12035476D01*
X6293095Y-12216428D02*
X6302619Y-12225952D01*
X6293095Y-12235476D01*
X6283571Y-12225952D01*
X6293095Y-12216428D01*
X6293095Y-12235476D01*
X6474048Y-12102143D02*
X6474048Y-12235476D01*
X6426428Y-12025952D02*
X6378809Y-12168809D01*
X6502619Y-12168809D01*
X6616905Y-12035476D02*
X6635952Y-12035476D01*
X6655000Y-12045000D01*
X6664524Y-12054524D01*
X6674048Y-12073571D01*
X6683571Y-12111667D01*
X6683571Y-12159286D01*
X6674048Y-12197381D01*
X6664524Y-12216428D01*
X6655000Y-12225952D01*
X6635952Y-12235476D01*
X6616905Y-12235476D01*
X6597857Y-12225952D01*
X6588333Y-12216428D01*
X6578809Y-12197381D01*
X6569286Y-12159286D01*
X6569286Y-12111667D01*
X6578809Y-12073571D01*
X6588333Y-12054524D01*
X6597857Y-12045000D01*
X6616905Y-12035476D01*
X6807381Y-12035476D02*
X6826428Y-12035476D01*
X6845476Y-12045000D01*
X6855000Y-12054524D01*
X6864524Y-12073571D01*
X6874048Y-12111667D01*
X6874048Y-12159286D01*
X6864524Y-12197381D01*
X6855000Y-12216428D01*
X6845476Y-12225952D01*
X6826428Y-12235476D01*
X6807381Y-12235476D01*
X6788333Y-12225952D01*
X6778809Y-12216428D01*
X6769286Y-12197381D01*
X6759762Y-12159286D01*
X6759762Y-12111667D01*
X6769286Y-12073571D01*
X6778809Y-12054524D01*
X6788333Y-12045000D01*
X6807381Y-12035476D01*
X6959762Y-12235476D02*
X6959762Y-12102143D01*
X6959762Y-12121190D02*
X6969286Y-12111667D01*
X6988333Y-12102143D01*
X7016905Y-12102143D01*
X7035952Y-12111667D01*
X7045476Y-12130714D01*
X7045476Y-12235476D01*
X7045476Y-12130714D02*
X7055000Y-12111667D01*
X7074048Y-12102143D01*
X7102619Y-12102143D01*
X7121667Y-12111667D01*
X7131190Y-12130714D01*
X7131190Y-12235476D01*
X7226428Y-12235476D02*
X7226428Y-12102143D01*
X7226428Y-12121190D02*
X7235952Y-12111667D01*
X7255000Y-12102143D01*
X7283571Y-12102143D01*
X7302619Y-12111667D01*
X7312143Y-12130714D01*
X7312143Y-12235476D01*
X7312143Y-12130714D02*
X7321667Y-12111667D01*
X7340714Y-12102143D01*
X7369286Y-12102143D01*
X7388333Y-12111667D01*
X7397857Y-12130714D01*
X7397857Y-12235476D01*
X7788333Y-12025952D02*
X7616905Y-12283095D01*
X8045476Y-12035476D02*
X8064524Y-12035476D01*
X8083571Y-12045000D01*
X8093095Y-12054524D01*
X8102619Y-12073571D01*
X8112143Y-12111667D01*
X8112143Y-12159286D01*
X8102619Y-12197381D01*
X8093095Y-12216428D01*
X8083571Y-12225952D01*
X8064524Y-12235476D01*
X8045476Y-12235476D01*
X8026428Y-12225952D01*
X8016905Y-12216428D01*
X8007381Y-12197381D01*
X7997857Y-12159286D01*
X7997857Y-12111667D01*
X8007381Y-12073571D01*
X8016905Y-12054524D01*
X8026428Y-12045000D01*
X8045476Y-12035476D01*
X8197857Y-12216428D02*
X8207381Y-12225952D01*
X8197857Y-12235476D01*
X8188333Y-12225952D01*
X8197857Y-12216428D01*
X8197857Y-12235476D01*
X8331190Y-12035476D02*
X8350238Y-12035476D01*
X8369286Y-12045000D01*
X8378809Y-12054524D01*
X8388333Y-12073571D01*
X8397857Y-12111667D01*
X8397857Y-12159286D01*
X8388333Y-12197381D01*
X8378809Y-12216428D01*
X8369286Y-12225952D01*
X8350238Y-12235476D01*
X8331190Y-12235476D01*
X8312143Y-12225952D01*
X8302619Y-12216428D01*
X8293095Y-12197381D01*
X8283571Y-12159286D01*
X8283571Y-12111667D01*
X8293095Y-12073571D01*
X8302619Y-12054524D01*
X8312143Y-12045000D01*
X8331190Y-12035476D01*
X8588333Y-12235476D02*
X8474048Y-12235476D01*
X8531190Y-12235476D02*
X8531190Y-12035476D01*
X8512143Y-12064048D01*
X8493095Y-12083095D01*
X8474048Y-12092619D01*
X8769286Y-12035476D02*
X8674048Y-12035476D01*
X8664524Y-12130714D01*
X8674048Y-12121190D01*
X8693095Y-12111667D01*
X8740714Y-12111667D01*
X8759762Y-12121190D01*
X8769286Y-12130714D01*
X8778810Y-12149762D01*
X8778810Y-12197381D01*
X8769286Y-12216428D01*
X8759762Y-12225952D01*
X8740714Y-12235476D01*
X8693095Y-12235476D01*
X8674048Y-12225952D01*
X8664524Y-12216428D01*
X8845476Y-12035476D02*
X8978810Y-12035476D01*
X8893095Y-12235476D01*
X9045476Y-12035476D02*
X9045476Y-12073571D01*
X9121667Y-12035476D02*
X9121667Y-12073571D01*
X9416905Y-12311667D02*
X9407381Y-12302143D01*
X9388333Y-12273571D01*
X9378810Y-12254524D01*
X9369286Y-12225952D01*
X9359762Y-12178333D01*
X9359762Y-12140238D01*
X9369286Y-12092619D01*
X9378810Y-12064048D01*
X9388333Y-12045000D01*
X9407381Y-12016428D01*
X9416905Y-12006905D01*
X9588333Y-12035476D02*
X9493095Y-12035476D01*
X9483571Y-12130714D01*
X9493095Y-12121190D01*
X9512143Y-12111667D01*
X9559762Y-12111667D01*
X9578810Y-12121190D01*
X9588333Y-12130714D01*
X9597857Y-12149762D01*
X9597857Y-12197381D01*
X9588333Y-12216428D01*
X9578810Y-12225952D01*
X9559762Y-12235476D01*
X9512143Y-12235476D01*
X9493095Y-12225952D01*
X9483571Y-12216428D01*
X9835952Y-12235476D02*
X9835952Y-12035476D01*
X9921667Y-12235476D02*
X9921667Y-12130714D01*
X9912143Y-12111667D01*
X9893095Y-12102143D01*
X9864524Y-12102143D01*
X9845476Y-12111667D01*
X9835952Y-12121190D01*
X10045476Y-12235476D02*
X10026429Y-12225952D01*
X10016905Y-12216428D01*
X10007381Y-12197381D01*
X10007381Y-12140238D01*
X10016905Y-12121190D01*
X10026429Y-12111667D01*
X10045476Y-12102143D01*
X10074048Y-12102143D01*
X10093095Y-12111667D01*
X10102619Y-12121190D01*
X10112143Y-12140238D01*
X10112143Y-12197381D01*
X10102619Y-12216428D01*
X10093095Y-12225952D01*
X10074048Y-12235476D01*
X10045476Y-12235476D01*
X10226429Y-12235476D02*
X10207381Y-12225952D01*
X10197857Y-12206905D01*
X10197857Y-12035476D01*
X10378810Y-12225952D02*
X10359762Y-12235476D01*
X10321667Y-12235476D01*
X10302619Y-12225952D01*
X10293095Y-12206905D01*
X10293095Y-12130714D01*
X10302619Y-12111667D01*
X10321667Y-12102143D01*
X10359762Y-12102143D01*
X10378810Y-12111667D01*
X10388333Y-12130714D01*
X10388333Y-12149762D01*
X10293095Y-12168809D01*
X10464524Y-12225952D02*
X10483571Y-12235476D01*
X10521667Y-12235476D01*
X10540714Y-12225952D01*
X10550238Y-12206905D01*
X10550238Y-12197381D01*
X10540714Y-12178333D01*
X10521667Y-12168809D01*
X10493095Y-12168809D01*
X10474048Y-12159286D01*
X10464524Y-12140238D01*
X10464524Y-12130714D01*
X10474048Y-12111667D01*
X10493095Y-12102143D01*
X10521667Y-12102143D01*
X10540714Y-12111667D01*
X10616905Y-12311667D02*
X10626429Y-12302143D01*
X10645476Y-12273571D01*
X10655000Y-12254524D01*
X10664524Y-12225952D01*
X10674048Y-12178333D01*
X10674048Y-12140238D01*
X10664524Y-12092619D01*
X10655000Y-12064048D01*
X10645476Y-12045000D01*
X10626429Y-12016428D01*
X10616905Y-12006905D01*
D13*
X5845000Y-12409000D02*
G75*
G03*
X5845000Y-12409000I-40000J0D01*
G01*
D11*
X6140714Y-12299476D02*
X6159762Y-12299476D01*
X6178809Y-12309000D01*
X6188333Y-12318524D01*
X6197857Y-12337571D01*
X6207381Y-12375667D01*
X6207381Y-12423286D01*
X6197857Y-12461381D01*
X6188333Y-12480428D01*
X6178809Y-12489952D01*
X6159762Y-12499476D01*
X6140714Y-12499476D01*
X6121667Y-12489952D01*
X6112143Y-12480428D01*
X6102619Y-12461381D01*
X6093095Y-12423286D01*
X6093095Y-12375667D01*
X6102619Y-12337571D01*
X6112143Y-12318524D01*
X6121667Y-12309000D01*
X6140714Y-12299476D01*
X6293095Y-12480428D02*
X6302619Y-12489952D01*
X6293095Y-12499476D01*
X6283571Y-12489952D01*
X6293095Y-12480428D01*
X6293095Y-12499476D01*
X6416905Y-12385190D02*
X6397857Y-12375667D01*
X6388333Y-12366143D01*
X6378809Y-12347095D01*
X6378809Y-12337571D01*
X6388333Y-12318524D01*
X6397857Y-12309000D01*
X6416905Y-12299476D01*
X6455000Y-12299476D01*
X6474048Y-12309000D01*
X6483571Y-12318524D01*
X6493095Y-12337571D01*
X6493095Y-12347095D01*
X6483571Y-12366143D01*
X6474048Y-12375667D01*
X6455000Y-12385190D01*
X6416905Y-12385190D01*
X6397857Y-12394714D01*
X6388333Y-12404238D01*
X6378809Y-12423286D01*
X6378809Y-12461381D01*
X6388333Y-12480428D01*
X6397857Y-12489952D01*
X6416905Y-12499476D01*
X6455000Y-12499476D01*
X6474048Y-12489952D01*
X6483571Y-12480428D01*
X6493095Y-12461381D01*
X6493095Y-12423286D01*
X6483571Y-12404238D01*
X6474048Y-12394714D01*
X6455000Y-12385190D01*
X6616905Y-12299476D02*
X6635952Y-12299476D01*
X6655000Y-12309000D01*
X6664524Y-12318524D01*
X6674048Y-12337571D01*
X6683571Y-12375667D01*
X6683571Y-12423286D01*
X6674048Y-12461381D01*
X6664524Y-12480428D01*
X6655000Y-12489952D01*
X6635952Y-12499476D01*
X6616905Y-12499476D01*
X6597857Y-12489952D01*
X6588333Y-12480428D01*
X6578809Y-12461381D01*
X6569286Y-12423286D01*
X6569286Y-12375667D01*
X6578809Y-12337571D01*
X6588333Y-12318524D01*
X6597857Y-12309000D01*
X6616905Y-12299476D01*
X6807381Y-12299476D02*
X6826428Y-12299476D01*
X6845476Y-12309000D01*
X6855000Y-12318524D01*
X6864524Y-12337571D01*
X6874048Y-12375667D01*
X6874048Y-12423286D01*
X6864524Y-12461381D01*
X6855000Y-12480428D01*
X6845476Y-12489952D01*
X6826428Y-12499476D01*
X6807381Y-12499476D01*
X6788333Y-12489952D01*
X6778809Y-12480428D01*
X6769286Y-12461381D01*
X6759762Y-12423286D01*
X6759762Y-12375667D01*
X6769286Y-12337571D01*
X6778809Y-12318524D01*
X6788333Y-12309000D01*
X6807381Y-12299476D01*
X6959762Y-12499476D02*
X6959762Y-12366143D01*
X6959762Y-12385190D02*
X6969286Y-12375667D01*
X6988333Y-12366143D01*
X7016905Y-12366143D01*
X7035952Y-12375667D01*
X7045476Y-12394714D01*
X7045476Y-12499476D01*
X7045476Y-12394714D02*
X7055000Y-12375667D01*
X7074048Y-12366143D01*
X7102619Y-12366143D01*
X7121667Y-12375667D01*
X7131190Y-12394714D01*
X7131190Y-12499476D01*
X7226428Y-12499476D02*
X7226428Y-12366143D01*
X7226428Y-12385190D02*
X7235952Y-12375667D01*
X7255000Y-12366143D01*
X7283571Y-12366143D01*
X7302619Y-12375667D01*
X7312143Y-12394714D01*
X7312143Y-12499476D01*
X7312143Y-12394714D02*
X7321667Y-12375667D01*
X7340714Y-12366143D01*
X7369286Y-12366143D01*
X7388333Y-12375667D01*
X7397857Y-12394714D01*
X7397857Y-12499476D01*
X7788333Y-12289952D02*
X7616905Y-12547095D01*
X8045476Y-12299476D02*
X8064524Y-12299476D01*
X8083571Y-12309000D01*
X8093095Y-12318524D01*
X8102619Y-12337571D01*
X8112143Y-12375667D01*
X8112143Y-12423286D01*
X8102619Y-12461381D01*
X8093095Y-12480428D01*
X8083571Y-12489952D01*
X8064524Y-12499476D01*
X8045476Y-12499476D01*
X8026428Y-12489952D01*
X8016905Y-12480428D01*
X8007381Y-12461381D01*
X7997857Y-12423286D01*
X7997857Y-12375667D01*
X8007381Y-12337571D01*
X8016905Y-12318524D01*
X8026428Y-12309000D01*
X8045476Y-12299476D01*
X8197857Y-12480428D02*
X8207381Y-12489952D01*
X8197857Y-12499476D01*
X8188333Y-12489952D01*
X8197857Y-12480428D01*
X8197857Y-12499476D01*
X8331190Y-12299476D02*
X8350238Y-12299476D01*
X8369286Y-12309000D01*
X8378809Y-12318524D01*
X8388333Y-12337571D01*
X8397857Y-12375667D01*
X8397857Y-12423286D01*
X8388333Y-12461381D01*
X8378809Y-12480428D01*
X8369286Y-12489952D01*
X8350238Y-12499476D01*
X8331190Y-12499476D01*
X8312143Y-12489952D01*
X8302619Y-12480428D01*
X8293095Y-12461381D01*
X8283571Y-12423286D01*
X8283571Y-12375667D01*
X8293095Y-12337571D01*
X8302619Y-12318524D01*
X8312143Y-12309000D01*
X8331190Y-12299476D01*
X8464524Y-12299476D02*
X8588333Y-12299476D01*
X8521667Y-12375667D01*
X8550238Y-12375667D01*
X8569286Y-12385190D01*
X8578810Y-12394714D01*
X8588333Y-12413762D01*
X8588333Y-12461381D01*
X8578810Y-12480428D01*
X8569286Y-12489952D01*
X8550238Y-12499476D01*
X8493095Y-12499476D01*
X8474048Y-12489952D01*
X8464524Y-12480428D01*
X8778810Y-12499476D02*
X8664524Y-12499476D01*
X8721667Y-12499476D02*
X8721667Y-12299476D01*
X8702619Y-12328048D01*
X8683571Y-12347095D01*
X8664524Y-12356619D01*
X8959762Y-12299476D02*
X8864524Y-12299476D01*
X8855000Y-12394714D01*
X8864524Y-12385190D01*
X8883571Y-12375667D01*
X8931190Y-12375667D01*
X8950238Y-12385190D01*
X8959762Y-12394714D01*
X8969286Y-12413762D01*
X8969286Y-12461381D01*
X8959762Y-12480428D01*
X8950238Y-12489952D01*
X8931190Y-12499476D01*
X8883571Y-12499476D01*
X8864524Y-12489952D01*
X8855000Y-12480428D01*
X9045476Y-12299476D02*
X9045476Y-12337571D01*
X9121667Y-12299476D02*
X9121667Y-12337571D01*
X9416905Y-12575667D02*
X9407381Y-12566143D01*
X9388333Y-12537571D01*
X9378810Y-12518524D01*
X9369286Y-12489952D01*
X9359762Y-12442333D01*
X9359762Y-12404238D01*
X9369286Y-12356619D01*
X9378810Y-12328048D01*
X9388333Y-12309000D01*
X9407381Y-12280428D01*
X9416905Y-12270905D01*
X9597857Y-12499476D02*
X9483571Y-12499476D01*
X9540714Y-12499476D02*
X9540714Y-12299476D01*
X9521667Y-12328048D01*
X9502619Y-12347095D01*
X9483571Y-12356619D01*
X9769286Y-12299476D02*
X9731190Y-12299476D01*
X9712143Y-12309000D01*
X9702619Y-12318524D01*
X9683571Y-12347095D01*
X9674048Y-12385190D01*
X9674048Y-12461381D01*
X9683571Y-12480428D01*
X9693095Y-12489952D01*
X9712143Y-12499476D01*
X9750238Y-12499476D01*
X9769286Y-12489952D01*
X9778810Y-12480428D01*
X9788333Y-12461381D01*
X9788333Y-12413762D01*
X9778810Y-12394714D01*
X9769286Y-12385190D01*
X9750238Y-12375667D01*
X9712143Y-12375667D01*
X9693095Y-12385190D01*
X9683571Y-12394714D01*
X9674048Y-12413762D01*
X10026429Y-12499476D02*
X10026429Y-12299476D01*
X10112143Y-12499476D02*
X10112143Y-12394714D01*
X10102619Y-12375667D01*
X10083571Y-12366143D01*
X10055000Y-12366143D01*
X10035952Y-12375667D01*
X10026429Y-12385190D01*
X10235952Y-12499476D02*
X10216905Y-12489952D01*
X10207381Y-12480428D01*
X10197857Y-12461381D01*
X10197857Y-12404238D01*
X10207381Y-12385190D01*
X10216905Y-12375667D01*
X10235952Y-12366143D01*
X10264524Y-12366143D01*
X10283571Y-12375667D01*
X10293095Y-12385190D01*
X10302619Y-12404238D01*
X10302619Y-12461381D01*
X10293095Y-12480428D01*
X10283571Y-12489952D01*
X10264524Y-12499476D01*
X10235952Y-12499476D01*
X10416905Y-12499476D02*
X10397857Y-12489952D01*
X10388333Y-12470905D01*
X10388333Y-12299476D01*
X10569286Y-12489952D02*
X10550238Y-12499476D01*
X10512143Y-12499476D01*
X10493095Y-12489952D01*
X10483571Y-12470905D01*
X10483571Y-12394714D01*
X10493095Y-12375667D01*
X10512143Y-12366143D01*
X10550238Y-12366143D01*
X10569286Y-12375667D01*
X10578810Y-12394714D01*
X10578810Y-12413762D01*
X10483571Y-12432809D01*
X10655000Y-12489952D02*
X10674048Y-12499476D01*
X10712143Y-12499476D01*
X10731190Y-12489952D01*
X10740714Y-12470905D01*
X10740714Y-12461381D01*
X10731190Y-12442333D01*
X10712143Y-12432809D01*
X10683571Y-12432809D01*
X10664524Y-12423286D01*
X10655000Y-12404238D01*
X10655000Y-12394714D01*
X10664524Y-12375667D01*
X10683571Y-12366143D01*
X10712143Y-12366143D01*
X10731190Y-12375667D01*
X10807381Y-12575667D02*
X10816905Y-12566143D01*
X10835952Y-12537571D01*
X10845476Y-12518524D01*
X10855000Y-12489952D01*
X10864524Y-12442333D01*
X10864524Y-12404238D01*
X10855000Y-12356619D01*
X10845476Y-12328048D01*
X10835952Y-12309000D01*
X10816905Y-12280428D01*
X10807381Y-12270905D01*
D14*
X5800000Y-12628000D02*
X5800000Y-12718000D01*
X5755000Y-12673000D02*
X5845000Y-12673000D01*
D11*
X6140714Y-12563476D02*
X6159762Y-12563476D01*
X6178809Y-12573000D01*
X6188333Y-12582524D01*
X6197857Y-12601571D01*
X6207381Y-12639667D01*
X6207381Y-12687286D01*
X6197857Y-12725381D01*
X6188333Y-12744428D01*
X6178809Y-12753952D01*
X6159762Y-12763476D01*
X6140714Y-12763476D01*
X6121667Y-12753952D01*
X6112143Y-12744428D01*
X6102619Y-12725381D01*
X6093095Y-12687286D01*
X6093095Y-12639667D01*
X6102619Y-12601571D01*
X6112143Y-12582524D01*
X6121667Y-12573000D01*
X6140714Y-12563476D01*
X6293095Y-12744428D02*
X6302619Y-12753952D01*
X6293095Y-12763476D01*
X6283571Y-12753952D01*
X6293095Y-12744428D01*
X6293095Y-12763476D01*
X6397857Y-12763476D02*
X6435952Y-12763476D01*
X6455000Y-12753952D01*
X6464524Y-12744428D01*
X6483571Y-12715857D01*
X6493095Y-12677762D01*
X6493095Y-12601571D01*
X6483571Y-12582524D01*
X6474048Y-12573000D01*
X6455000Y-12563476D01*
X6416905Y-12563476D01*
X6397857Y-12573000D01*
X6388333Y-12582524D01*
X6378809Y-12601571D01*
X6378809Y-12649190D01*
X6388333Y-12668238D01*
X6397857Y-12677762D01*
X6416905Y-12687286D01*
X6455000Y-12687286D01*
X6474048Y-12677762D01*
X6483571Y-12668238D01*
X6493095Y-12649190D01*
X6616905Y-12563476D02*
X6635952Y-12563476D01*
X6655000Y-12573000D01*
X6664524Y-12582524D01*
X6674048Y-12601571D01*
X6683571Y-12639667D01*
X6683571Y-12687286D01*
X6674048Y-12725381D01*
X6664524Y-12744428D01*
X6655000Y-12753952D01*
X6635952Y-12763476D01*
X6616905Y-12763476D01*
X6597857Y-12753952D01*
X6588333Y-12744428D01*
X6578809Y-12725381D01*
X6569286Y-12687286D01*
X6569286Y-12639667D01*
X6578809Y-12601571D01*
X6588333Y-12582524D01*
X6597857Y-12573000D01*
X6616905Y-12563476D01*
X6807381Y-12563476D02*
X6826428Y-12563476D01*
X6845476Y-12573000D01*
X6855000Y-12582524D01*
X6864524Y-12601571D01*
X6874048Y-12639667D01*
X6874048Y-12687286D01*
X6864524Y-12725381D01*
X6855000Y-12744428D01*
X6845476Y-12753952D01*
X6826428Y-12763476D01*
X6807381Y-12763476D01*
X6788333Y-12753952D01*
X6778809Y-12744428D01*
X6769286Y-12725381D01*
X6759762Y-12687286D01*
X6759762Y-12639667D01*
X6769286Y-12601571D01*
X6778809Y-12582524D01*
X6788333Y-12573000D01*
X6807381Y-12563476D01*
X6959762Y-12763476D02*
X6959762Y-12630143D01*
X6959762Y-12649190D02*
X6969286Y-12639667D01*
X6988333Y-12630143D01*
X7016905Y-12630143D01*
X7035952Y-12639667D01*
X7045476Y-12658714D01*
X7045476Y-12763476D01*
X7045476Y-12658714D02*
X7055000Y-12639667D01*
X7074048Y-12630143D01*
X7102619Y-12630143D01*
X7121667Y-12639667D01*
X7131190Y-12658714D01*
X7131190Y-12763476D01*
X7226428Y-12763476D02*
X7226428Y-12630143D01*
X7226428Y-12649190D02*
X7235952Y-12639667D01*
X7255000Y-12630143D01*
X7283571Y-12630143D01*
X7302619Y-12639667D01*
X7312143Y-12658714D01*
X7312143Y-12763476D01*
X7312143Y-12658714D02*
X7321667Y-12639667D01*
X7340714Y-12630143D01*
X7369286Y-12630143D01*
X7388333Y-12639667D01*
X7397857Y-12658714D01*
X7397857Y-12763476D01*
X7788333Y-12553952D02*
X7616905Y-12811095D01*
X8045476Y-12563476D02*
X8064524Y-12563476D01*
X8083571Y-12573000D01*
X8093095Y-12582524D01*
X8102619Y-12601571D01*
X8112143Y-12639667D01*
X8112143Y-12687286D01*
X8102619Y-12725381D01*
X8093095Y-12744428D01*
X8083571Y-12753952D01*
X8064524Y-12763476D01*
X8045476Y-12763476D01*
X8026428Y-12753952D01*
X8016905Y-12744428D01*
X8007381Y-12725381D01*
X7997857Y-12687286D01*
X7997857Y-12639667D01*
X8007381Y-12601571D01*
X8016905Y-12582524D01*
X8026428Y-12573000D01*
X8045476Y-12563476D01*
X8197857Y-12744428D02*
X8207381Y-12753952D01*
X8197857Y-12763476D01*
X8188333Y-12753952D01*
X8197857Y-12744428D01*
X8197857Y-12763476D01*
X8331190Y-12563476D02*
X8350238Y-12563476D01*
X8369286Y-12573000D01*
X8378809Y-12582524D01*
X8388333Y-12601571D01*
X8397857Y-12639667D01*
X8397857Y-12687286D01*
X8388333Y-12725381D01*
X8378809Y-12744428D01*
X8369286Y-12753952D01*
X8350238Y-12763476D01*
X8331190Y-12763476D01*
X8312143Y-12753952D01*
X8302619Y-12744428D01*
X8293095Y-12725381D01*
X8283571Y-12687286D01*
X8283571Y-12639667D01*
X8293095Y-12601571D01*
X8302619Y-12582524D01*
X8312143Y-12573000D01*
X8331190Y-12563476D01*
X8464524Y-12563476D02*
X8588333Y-12563476D01*
X8521667Y-12639667D01*
X8550238Y-12639667D01*
X8569286Y-12649190D01*
X8578810Y-12658714D01*
X8588333Y-12677762D01*
X8588333Y-12725381D01*
X8578810Y-12744428D01*
X8569286Y-12753952D01*
X8550238Y-12763476D01*
X8493095Y-12763476D01*
X8474048Y-12753952D01*
X8464524Y-12744428D01*
X8769286Y-12563476D02*
X8674048Y-12563476D01*
X8664524Y-12658714D01*
X8674048Y-12649190D01*
X8693095Y-12639667D01*
X8740714Y-12639667D01*
X8759762Y-12649190D01*
X8769286Y-12658714D01*
X8778810Y-12677762D01*
X8778810Y-12725381D01*
X8769286Y-12744428D01*
X8759762Y-12753952D01*
X8740714Y-12763476D01*
X8693095Y-12763476D01*
X8674048Y-12753952D01*
X8664524Y-12744428D01*
X8950238Y-12630143D02*
X8950238Y-12763476D01*
X8902619Y-12553952D02*
X8855000Y-12696809D01*
X8978810Y-12696809D01*
X9045476Y-12563476D02*
X9045476Y-12601571D01*
X9121667Y-12563476D02*
X9121667Y-12601571D01*
X9416905Y-12839667D02*
X9407381Y-12830143D01*
X9388333Y-12801571D01*
X9378810Y-12782524D01*
X9369286Y-12753952D01*
X9359762Y-12706333D01*
X9359762Y-12668238D01*
X9369286Y-12620619D01*
X9378810Y-12592048D01*
X9388333Y-12573000D01*
X9407381Y-12544428D01*
X9416905Y-12534905D01*
X9578810Y-12563476D02*
X9540714Y-12563476D01*
X9521667Y-12573000D01*
X9512143Y-12582524D01*
X9493095Y-12611095D01*
X9483571Y-12649190D01*
X9483571Y-12725381D01*
X9493095Y-12744428D01*
X9502619Y-12753952D01*
X9521667Y-12763476D01*
X9559762Y-12763476D01*
X9578810Y-12753952D01*
X9588333Y-12744428D01*
X9597857Y-12725381D01*
X9597857Y-12677762D01*
X9588333Y-12658714D01*
X9578810Y-12649190D01*
X9559762Y-12639667D01*
X9521667Y-12639667D01*
X9502619Y-12649190D01*
X9493095Y-12658714D01*
X9483571Y-12677762D01*
X9835952Y-12763476D02*
X9835952Y-12563476D01*
X9921667Y-12763476D02*
X9921667Y-12658714D01*
X9912143Y-12639667D01*
X9893095Y-12630143D01*
X9864524Y-12630143D01*
X9845476Y-12639667D01*
X9835952Y-12649190D01*
X10045476Y-12763476D02*
X10026429Y-12753952D01*
X10016905Y-12744428D01*
X10007381Y-12725381D01*
X10007381Y-12668238D01*
X10016905Y-12649190D01*
X10026429Y-12639667D01*
X10045476Y-12630143D01*
X10074048Y-12630143D01*
X10093095Y-12639667D01*
X10102619Y-12649190D01*
X10112143Y-12668238D01*
X10112143Y-12725381D01*
X10102619Y-12744428D01*
X10093095Y-12753952D01*
X10074048Y-12763476D01*
X10045476Y-12763476D01*
X10226429Y-12763476D02*
X10207381Y-12753952D01*
X10197857Y-12734905D01*
X10197857Y-12563476D01*
X10378810Y-12753952D02*
X10359762Y-12763476D01*
X10321667Y-12763476D01*
X10302619Y-12753952D01*
X10293095Y-12734905D01*
X10293095Y-12658714D01*
X10302619Y-12639667D01*
X10321667Y-12630143D01*
X10359762Y-12630143D01*
X10378810Y-12639667D01*
X10388333Y-12658714D01*
X10388333Y-12677762D01*
X10293095Y-12696809D01*
X10464524Y-12753952D02*
X10483571Y-12763476D01*
X10521667Y-12763476D01*
X10540714Y-12753952D01*
X10550238Y-12734905D01*
X10550238Y-12725381D01*
X10540714Y-12706333D01*
X10521667Y-12696809D01*
X10493095Y-12696809D01*
X10474048Y-12687286D01*
X10464524Y-12668238D01*
X10464524Y-12658714D01*
X10474048Y-12639667D01*
X10493095Y-12630143D01*
X10521667Y-12630143D01*
X10540714Y-12639667D01*
X10616905Y-12839667D02*
X10626429Y-12830143D01*
X10645476Y-12801571D01*
X10655000Y-12782524D01*
X10664524Y-12753952D01*
X10674048Y-12706333D01*
X10674048Y-12668238D01*
X10664524Y-12620619D01*
X10655000Y-12592048D01*
X10645476Y-12573000D01*
X10626429Y-12544428D01*
X10616905Y-12534905D01*
D10*
X5830356Y-12972356D02*
X5830356Y-12901644D01*
X5759644Y-12901644D01*
X5759644Y-12972356D01*
X5830356Y-12972356D01*
D11*
X6207381Y-13027476D02*
X6093095Y-13027476D01*
X6150238Y-13027476D02*
X6150238Y-12827476D01*
X6131190Y-12856048D01*
X6112143Y-12875095D01*
X6093095Y-12884619D01*
X6293095Y-13008428D02*
X6302619Y-13017952D01*
X6293095Y-13027476D01*
X6283571Y-13017952D01*
X6293095Y-13008428D01*
X6293095Y-13027476D01*
X6426428Y-12827476D02*
X6445476Y-12827476D01*
X6464524Y-12837000D01*
X6474048Y-12846524D01*
X6483571Y-12865571D01*
X6493095Y-12903667D01*
X6493095Y-12951286D01*
X6483571Y-12989381D01*
X6474048Y-13008428D01*
X6464524Y-13017952D01*
X6445476Y-13027476D01*
X6426428Y-13027476D01*
X6407381Y-13017952D01*
X6397857Y-13008428D01*
X6388333Y-12989381D01*
X6378809Y-12951286D01*
X6378809Y-12903667D01*
X6388333Y-12865571D01*
X6397857Y-12846524D01*
X6407381Y-12837000D01*
X6426428Y-12827476D01*
X6616905Y-12827476D02*
X6635952Y-12827476D01*
X6655000Y-12837000D01*
X6664524Y-12846524D01*
X6674048Y-12865571D01*
X6683571Y-12903667D01*
X6683571Y-12951286D01*
X6674048Y-12989381D01*
X6664524Y-13008428D01*
X6655000Y-13017952D01*
X6635952Y-13027476D01*
X6616905Y-13027476D01*
X6597857Y-13017952D01*
X6588333Y-13008428D01*
X6578809Y-12989381D01*
X6569286Y-12951286D01*
X6569286Y-12903667D01*
X6578809Y-12865571D01*
X6588333Y-12846524D01*
X6597857Y-12837000D01*
X6616905Y-12827476D01*
X6807381Y-12827476D02*
X6826428Y-12827476D01*
X6845476Y-12837000D01*
X6855000Y-12846524D01*
X6864524Y-12865571D01*
X6874048Y-12903667D01*
X6874048Y-12951286D01*
X6864524Y-12989381D01*
X6855000Y-13008428D01*
X6845476Y-13017952D01*
X6826428Y-13027476D01*
X6807381Y-13027476D01*
X6788333Y-13017952D01*
X6778809Y-13008428D01*
X6769286Y-12989381D01*
X6759762Y-12951286D01*
X6759762Y-12903667D01*
X6769286Y-12865571D01*
X6778809Y-12846524D01*
X6788333Y-12837000D01*
X6807381Y-12827476D01*
X6959762Y-13027476D02*
X6959762Y-12894143D01*
X6959762Y-12913190D02*
X6969286Y-12903667D01*
X6988333Y-12894143D01*
X7016905Y-12894143D01*
X7035952Y-12903667D01*
X7045476Y-12922714D01*
X7045476Y-13027476D01*
X7045476Y-12922714D02*
X7055000Y-12903667D01*
X7074048Y-12894143D01*
X7102619Y-12894143D01*
X7121667Y-12903667D01*
X7131190Y-12922714D01*
X7131190Y-13027476D01*
X7226428Y-13027476D02*
X7226428Y-12894143D01*
X7226428Y-12913190D02*
X7235952Y-12903667D01*
X7255000Y-12894143D01*
X7283571Y-12894143D01*
X7302619Y-12903667D01*
X7312143Y-12922714D01*
X7312143Y-13027476D01*
X7312143Y-12922714D02*
X7321667Y-12903667D01*
X7340714Y-12894143D01*
X7369286Y-12894143D01*
X7388333Y-12903667D01*
X7397857Y-12922714D01*
X7397857Y-13027476D01*
X7788333Y-12817952D02*
X7616905Y-13075095D01*
X8045476Y-12827476D02*
X8064524Y-12827476D01*
X8083571Y-12837000D01*
X8093095Y-12846524D01*
X8102619Y-12865571D01*
X8112143Y-12903667D01*
X8112143Y-12951286D01*
X8102619Y-12989381D01*
X8093095Y-13008428D01*
X8083571Y-13017952D01*
X8064524Y-13027476D01*
X8045476Y-13027476D01*
X8026428Y-13017952D01*
X8016905Y-13008428D01*
X8007381Y-12989381D01*
X7997857Y-12951286D01*
X7997857Y-12903667D01*
X8007381Y-12865571D01*
X8016905Y-12846524D01*
X8026428Y-12837000D01*
X8045476Y-12827476D01*
X8197857Y-13008428D02*
X8207381Y-13017952D01*
X8197857Y-13027476D01*
X8188333Y-13017952D01*
X8197857Y-13008428D01*
X8197857Y-13027476D01*
X8331190Y-12827476D02*
X8350238Y-12827476D01*
X8369286Y-12837000D01*
X8378809Y-12846524D01*
X8388333Y-12865571D01*
X8397857Y-12903667D01*
X8397857Y-12951286D01*
X8388333Y-12989381D01*
X8378809Y-13008428D01*
X8369286Y-13017952D01*
X8350238Y-13027476D01*
X8331190Y-13027476D01*
X8312143Y-13017952D01*
X8302619Y-13008428D01*
X8293095Y-12989381D01*
X8283571Y-12951286D01*
X8283571Y-12903667D01*
X8293095Y-12865571D01*
X8302619Y-12846524D01*
X8312143Y-12837000D01*
X8331190Y-12827476D01*
X8464524Y-12827476D02*
X8588333Y-12827476D01*
X8521667Y-12903667D01*
X8550238Y-12903667D01*
X8569286Y-12913190D01*
X8578810Y-12922714D01*
X8588333Y-12941762D01*
X8588333Y-12989381D01*
X8578810Y-13008428D01*
X8569286Y-13017952D01*
X8550238Y-13027476D01*
X8493095Y-13027476D01*
X8474048Y-13017952D01*
X8464524Y-13008428D01*
X8683571Y-13027476D02*
X8721667Y-13027476D01*
X8740714Y-13017952D01*
X8750238Y-13008428D01*
X8769286Y-12979857D01*
X8778810Y-12941762D01*
X8778810Y-12865571D01*
X8769286Y-12846524D01*
X8759762Y-12837000D01*
X8740714Y-12827476D01*
X8702619Y-12827476D01*
X8683571Y-12837000D01*
X8674048Y-12846524D01*
X8664524Y-12865571D01*
X8664524Y-12913190D01*
X8674048Y-12932238D01*
X8683571Y-12941762D01*
X8702619Y-12951286D01*
X8740714Y-12951286D01*
X8759762Y-12941762D01*
X8769286Y-12932238D01*
X8778810Y-12913190D01*
X8950238Y-12894143D02*
X8950238Y-13027476D01*
X8902619Y-12817952D02*
X8855000Y-12960809D01*
X8978810Y-12960809D01*
X9045476Y-12827476D02*
X9045476Y-12865571D01*
X9121667Y-12827476D02*
X9121667Y-12865571D01*
X9416905Y-13103667D02*
X9407381Y-13094143D01*
X9388333Y-13065571D01*
X9378810Y-13046524D01*
X9369286Y-13017952D01*
X9359762Y-12970333D01*
X9359762Y-12932238D01*
X9369286Y-12884619D01*
X9378810Y-12856048D01*
X9388333Y-12837000D01*
X9407381Y-12808428D01*
X9416905Y-12798905D01*
X9578810Y-12894143D02*
X9578810Y-13027476D01*
X9531190Y-12817952D02*
X9483571Y-12960809D01*
X9607381Y-12960809D01*
X9721667Y-12827476D02*
X9740714Y-12827476D01*
X9759762Y-12837000D01*
X9769286Y-12846524D01*
X9778810Y-12865571D01*
X9788333Y-12903667D01*
X9788333Y-12951286D01*
X9778810Y-12989381D01*
X9769286Y-13008428D01*
X9759762Y-13017952D01*
X9740714Y-13027476D01*
X9721667Y-13027476D01*
X9702619Y-13017952D01*
X9693095Y-13008428D01*
X9683571Y-12989381D01*
X9674048Y-12951286D01*
X9674048Y-12903667D01*
X9683571Y-12865571D01*
X9693095Y-12846524D01*
X9702619Y-12837000D01*
X9721667Y-12827476D01*
X10026429Y-13027476D02*
X10026429Y-12827476D01*
X10112143Y-13027476D02*
X10112143Y-12922714D01*
X10102619Y-12903667D01*
X10083571Y-12894143D01*
X10055000Y-12894143D01*
X10035952Y-12903667D01*
X10026429Y-12913190D01*
X10235952Y-13027476D02*
X10216905Y-13017952D01*
X10207381Y-13008428D01*
X10197857Y-12989381D01*
X10197857Y-12932238D01*
X10207381Y-12913190D01*
X10216905Y-12903667D01*
X10235952Y-12894143D01*
X10264524Y-12894143D01*
X10283571Y-12903667D01*
X10293095Y-12913190D01*
X10302619Y-12932238D01*
X10302619Y-12989381D01*
X10293095Y-13008428D01*
X10283571Y-13017952D01*
X10264524Y-13027476D01*
X10235952Y-13027476D01*
X10416905Y-13027476D02*
X10397857Y-13017952D01*
X10388333Y-12998905D01*
X10388333Y-12827476D01*
X10569286Y-13017952D02*
X10550238Y-13027476D01*
X10512143Y-13027476D01*
X10493095Y-13017952D01*
X10483571Y-12998905D01*
X10483571Y-12922714D01*
X10493095Y-12903667D01*
X10512143Y-12894143D01*
X10550238Y-12894143D01*
X10569286Y-12903667D01*
X10578810Y-12922714D01*
X10578810Y-12941762D01*
X10483571Y-12960809D01*
X10655000Y-13017952D02*
X10674048Y-13027476D01*
X10712143Y-13027476D01*
X10731190Y-13017952D01*
X10740714Y-12998905D01*
X10740714Y-12989381D01*
X10731190Y-12970333D01*
X10712143Y-12960809D01*
X10683571Y-12960809D01*
X10664524Y-12951286D01*
X10655000Y-12932238D01*
X10655000Y-12922714D01*
X10664524Y-12903667D01*
X10683571Y-12894143D01*
X10712143Y-12894143D01*
X10731190Y-12903667D01*
X10807381Y-13103667D02*
X10816905Y-13094143D01*
X10835952Y-13065571D01*
X10845476Y-13046524D01*
X10855000Y-13017952D01*
X10864524Y-12970333D01*
X10864524Y-12932238D01*
X10855000Y-12884619D01*
X10845476Y-12856048D01*
X10835952Y-12837000D01*
X10816905Y-12808428D01*
X10807381Y-12798905D01*
D15*
X5790000Y-13256000D02*
X5845000Y-13201000D01*
X5790000Y-13146000D01*
X5735000Y-13201000D01*
X5790000Y-13256000D01*
D11*
X6207381Y-13291476D02*
X6093095Y-13291476D01*
X6150238Y-13291476D02*
X6150238Y-13091476D01*
X6131190Y-13120048D01*
X6112143Y-13139095D01*
X6093095Y-13148619D01*
X6293095Y-13272428D02*
X6302619Y-13281952D01*
X6293095Y-13291476D01*
X6283571Y-13281952D01*
X6293095Y-13272428D01*
X6293095Y-13291476D01*
X6493095Y-13291476D02*
X6378809Y-13291476D01*
X6435952Y-13291476D02*
X6435952Y-13091476D01*
X6416905Y-13120048D01*
X6397857Y-13139095D01*
X6378809Y-13148619D01*
X6616905Y-13091476D02*
X6635952Y-13091476D01*
X6655000Y-13101000D01*
X6664524Y-13110524D01*
X6674048Y-13129571D01*
X6683571Y-13167667D01*
X6683571Y-13215286D01*
X6674048Y-13253381D01*
X6664524Y-13272428D01*
X6655000Y-13281952D01*
X6635952Y-13291476D01*
X6616905Y-13291476D01*
X6597857Y-13281952D01*
X6588333Y-13272428D01*
X6578809Y-13253381D01*
X6569286Y-13215286D01*
X6569286Y-13167667D01*
X6578809Y-13129571D01*
X6588333Y-13110524D01*
X6597857Y-13101000D01*
X6616905Y-13091476D01*
X6807381Y-13091476D02*
X6826428Y-13091476D01*
X6845476Y-13101000D01*
X6855000Y-13110524D01*
X6864524Y-13129571D01*
X6874048Y-13167667D01*
X6874048Y-13215286D01*
X6864524Y-13253381D01*
X6855000Y-13272428D01*
X6845476Y-13281952D01*
X6826428Y-13291476D01*
X6807381Y-13291476D01*
X6788333Y-13281952D01*
X6778809Y-13272428D01*
X6769286Y-13253381D01*
X6759762Y-13215286D01*
X6759762Y-13167667D01*
X6769286Y-13129571D01*
X6778809Y-13110524D01*
X6788333Y-13101000D01*
X6807381Y-13091476D01*
X6959762Y-13291476D02*
X6959762Y-13158143D01*
X6959762Y-13177190D02*
X6969286Y-13167667D01*
X6988333Y-13158143D01*
X7016905Y-13158143D01*
X7035952Y-13167667D01*
X7045476Y-13186714D01*
X7045476Y-13291476D01*
X7045476Y-13186714D02*
X7055000Y-13167667D01*
X7074048Y-13158143D01*
X7102619Y-13158143D01*
X7121667Y-13167667D01*
X7131190Y-13186714D01*
X7131190Y-13291476D01*
X7226428Y-13291476D02*
X7226428Y-13158143D01*
X7226428Y-13177190D02*
X7235952Y-13167667D01*
X7255000Y-13158143D01*
X7283571Y-13158143D01*
X7302619Y-13167667D01*
X7312143Y-13186714D01*
X7312143Y-13291476D01*
X7312143Y-13186714D02*
X7321667Y-13167667D01*
X7340714Y-13158143D01*
X7369286Y-13158143D01*
X7388333Y-13167667D01*
X7397857Y-13186714D01*
X7397857Y-13291476D01*
X7788333Y-13081952D02*
X7616905Y-13339095D01*
X8045476Y-13091476D02*
X8064524Y-13091476D01*
X8083571Y-13101000D01*
X8093095Y-13110524D01*
X8102619Y-13129571D01*
X8112143Y-13167667D01*
X8112143Y-13215286D01*
X8102619Y-13253381D01*
X8093095Y-13272428D01*
X8083571Y-13281952D01*
X8064524Y-13291476D01*
X8045476Y-13291476D01*
X8026428Y-13281952D01*
X8016905Y-13272428D01*
X8007381Y-13253381D01*
X7997857Y-13215286D01*
X7997857Y-13167667D01*
X8007381Y-13129571D01*
X8016905Y-13110524D01*
X8026428Y-13101000D01*
X8045476Y-13091476D01*
X8197857Y-13272428D02*
X8207381Y-13281952D01*
X8197857Y-13291476D01*
X8188333Y-13281952D01*
X8197857Y-13272428D01*
X8197857Y-13291476D01*
X8331190Y-13091476D02*
X8350238Y-13091476D01*
X8369286Y-13101000D01*
X8378809Y-13110524D01*
X8388333Y-13129571D01*
X8397857Y-13167667D01*
X8397857Y-13215286D01*
X8388333Y-13253381D01*
X8378809Y-13272428D01*
X8369286Y-13281952D01*
X8350238Y-13291476D01*
X8331190Y-13291476D01*
X8312143Y-13281952D01*
X8302619Y-13272428D01*
X8293095Y-13253381D01*
X8283571Y-13215286D01*
X8283571Y-13167667D01*
X8293095Y-13129571D01*
X8302619Y-13110524D01*
X8312143Y-13101000D01*
X8331190Y-13091476D01*
X8569286Y-13158143D02*
X8569286Y-13291476D01*
X8521667Y-13081952D02*
X8474048Y-13224809D01*
X8597857Y-13224809D01*
X8655000Y-13091476D02*
X8778810Y-13091476D01*
X8712143Y-13167667D01*
X8740714Y-13167667D01*
X8759762Y-13177190D01*
X8769286Y-13186714D01*
X8778810Y-13205762D01*
X8778810Y-13253381D01*
X8769286Y-13272428D01*
X8759762Y-13281952D01*
X8740714Y-13291476D01*
X8683571Y-13291476D01*
X8664524Y-13281952D01*
X8655000Y-13272428D01*
X8845476Y-13091476D02*
X8969286Y-13091476D01*
X8902619Y-13167667D01*
X8931190Y-13167667D01*
X8950238Y-13177190D01*
X8959762Y-13186714D01*
X8969286Y-13205762D01*
X8969286Y-13253381D01*
X8959762Y-13272428D01*
X8950238Y-13281952D01*
X8931190Y-13291476D01*
X8874048Y-13291476D01*
X8855000Y-13281952D01*
X8845476Y-13272428D01*
X9045476Y-13091476D02*
X9045476Y-13129571D01*
X9121667Y-13091476D02*
X9121667Y-13129571D01*
X9416905Y-13367667D02*
X9407381Y-13358143D01*
X9388333Y-13329571D01*
X9378810Y-13310524D01*
X9369286Y-13281952D01*
X9359762Y-13234333D01*
X9359762Y-13196238D01*
X9369286Y-13148619D01*
X9378810Y-13120048D01*
X9388333Y-13101000D01*
X9407381Y-13072428D01*
X9416905Y-13062905D01*
X9521667Y-13177190D02*
X9502619Y-13167667D01*
X9493095Y-13158143D01*
X9483571Y-13139095D01*
X9483571Y-13129571D01*
X9493095Y-13110524D01*
X9502619Y-13101000D01*
X9521667Y-13091476D01*
X9559762Y-13091476D01*
X9578810Y-13101000D01*
X9588333Y-13110524D01*
X9597857Y-13129571D01*
X9597857Y-13139095D01*
X9588333Y-13158143D01*
X9578810Y-13167667D01*
X9559762Y-13177190D01*
X9521667Y-13177190D01*
X9502619Y-13186714D01*
X9493095Y-13196238D01*
X9483571Y-13215286D01*
X9483571Y-13253381D01*
X9493095Y-13272428D01*
X9502619Y-13281952D01*
X9521667Y-13291476D01*
X9559762Y-13291476D01*
X9578810Y-13281952D01*
X9588333Y-13272428D01*
X9597857Y-13253381D01*
X9597857Y-13215286D01*
X9588333Y-13196238D01*
X9578810Y-13186714D01*
X9559762Y-13177190D01*
X9835952Y-13291476D02*
X9835952Y-13091476D01*
X9921667Y-13291476D02*
X9921667Y-13186714D01*
X9912143Y-13167667D01*
X9893095Y-13158143D01*
X9864524Y-13158143D01*
X9845476Y-13167667D01*
X9835952Y-13177190D01*
X10045476Y-13291476D02*
X10026429Y-13281952D01*
X10016905Y-13272428D01*
X10007381Y-13253381D01*
X10007381Y-13196238D01*
X10016905Y-13177190D01*
X10026429Y-13167667D01*
X10045476Y-13158143D01*
X10074048Y-13158143D01*
X10093095Y-13167667D01*
X10102619Y-13177190D01*
X10112143Y-13196238D01*
X10112143Y-13253381D01*
X10102619Y-13272428D01*
X10093095Y-13281952D01*
X10074048Y-13291476D01*
X10045476Y-13291476D01*
X10226429Y-13291476D02*
X10207381Y-13281952D01*
X10197857Y-13262905D01*
X10197857Y-13091476D01*
X10378810Y-13281952D02*
X10359762Y-13291476D01*
X10321667Y-13291476D01*
X10302619Y-13281952D01*
X10293095Y-13262905D01*
X10293095Y-13186714D01*
X10302619Y-13167667D01*
X10321667Y-13158143D01*
X10359762Y-13158143D01*
X10378810Y-13167667D01*
X10388333Y-13186714D01*
X10388333Y-13205762D01*
X10293095Y-13224809D01*
X10464524Y-13281952D02*
X10483571Y-13291476D01*
X10521667Y-13291476D01*
X10540714Y-13281952D01*
X10550238Y-13262905D01*
X10550238Y-13253381D01*
X10540714Y-13234333D01*
X10521667Y-13224809D01*
X10493095Y-13224809D01*
X10474048Y-13215286D01*
X10464524Y-13196238D01*
X10464524Y-13186714D01*
X10474048Y-13167667D01*
X10493095Y-13158143D01*
X10521667Y-13158143D01*
X10540714Y-13167667D01*
X10616905Y-13367667D02*
X10626429Y-13358143D01*
X10645476Y-13329571D01*
X10655000Y-13310524D01*
X10664524Y-13281952D01*
X10674048Y-13234333D01*
X10674048Y-13196238D01*
X10664524Y-13148619D01*
X10655000Y-13120048D01*
X10645476Y-13101000D01*
X10626429Y-13072428D01*
X10616905Y-13062905D01*
D16*
X5713000Y-13399000D02*
X5845000Y-13531000D01*
X5845000Y-13399000D02*
X5713000Y-13531000D01*
X5845000Y-13465000D02*
G75*
G03*
X5845000Y-13465000I-66000J0D01*
G01*
D11*
X6207381Y-13555476D02*
X6093095Y-13555476D01*
X6150238Y-13555476D02*
X6150238Y-13355476D01*
X6131190Y-13384048D01*
X6112143Y-13403095D01*
X6093095Y-13412619D01*
X6293095Y-13536428D02*
X6302619Y-13545952D01*
X6293095Y-13555476D01*
X6283571Y-13545952D01*
X6293095Y-13536428D01*
X6293095Y-13555476D01*
X6369286Y-13355476D02*
X6493095Y-13355476D01*
X6426428Y-13431667D01*
X6455000Y-13431667D01*
X6474048Y-13441190D01*
X6483571Y-13450714D01*
X6493095Y-13469762D01*
X6493095Y-13517381D01*
X6483571Y-13536428D01*
X6474048Y-13545952D01*
X6455000Y-13555476D01*
X6397857Y-13555476D01*
X6378809Y-13545952D01*
X6369286Y-13536428D01*
X6569286Y-13374524D02*
X6578809Y-13365000D01*
X6597857Y-13355476D01*
X6645476Y-13355476D01*
X6664524Y-13365000D01*
X6674048Y-13374524D01*
X6683571Y-13393571D01*
X6683571Y-13412619D01*
X6674048Y-13441190D01*
X6559762Y-13555476D01*
X6683571Y-13555476D01*
X6807381Y-13355476D02*
X6826428Y-13355476D01*
X6845476Y-13365000D01*
X6855000Y-13374524D01*
X6864524Y-13393571D01*
X6874048Y-13431667D01*
X6874048Y-13479286D01*
X6864524Y-13517381D01*
X6855000Y-13536428D01*
X6845476Y-13545952D01*
X6826428Y-13555476D01*
X6807381Y-13555476D01*
X6788333Y-13545952D01*
X6778809Y-13536428D01*
X6769286Y-13517381D01*
X6759762Y-13479286D01*
X6759762Y-13431667D01*
X6769286Y-13393571D01*
X6778809Y-13374524D01*
X6788333Y-13365000D01*
X6807381Y-13355476D01*
X6959762Y-13555476D02*
X6959762Y-13422143D01*
X6959762Y-13441190D02*
X6969286Y-13431667D01*
X6988333Y-13422143D01*
X7016905Y-13422143D01*
X7035952Y-13431667D01*
X7045476Y-13450714D01*
X7045476Y-13555476D01*
X7045476Y-13450714D02*
X7055000Y-13431667D01*
X7074048Y-13422143D01*
X7102619Y-13422143D01*
X7121667Y-13431667D01*
X7131190Y-13450714D01*
X7131190Y-13555476D01*
X7226428Y-13555476D02*
X7226428Y-13422143D01*
X7226428Y-13441190D02*
X7235952Y-13431667D01*
X7255000Y-13422143D01*
X7283571Y-13422143D01*
X7302619Y-13431667D01*
X7312143Y-13450714D01*
X7312143Y-13555476D01*
X7312143Y-13450714D02*
X7321667Y-13431667D01*
X7340714Y-13422143D01*
X7369286Y-13422143D01*
X7388333Y-13431667D01*
X7397857Y-13450714D01*
X7397857Y-13555476D01*
X7788333Y-13345952D02*
X7616905Y-13603095D01*
X8045476Y-13355476D02*
X8064524Y-13355476D01*
X8083571Y-13365000D01*
X8093095Y-13374524D01*
X8102619Y-13393571D01*
X8112143Y-13431667D01*
X8112143Y-13479286D01*
X8102619Y-13517381D01*
X8093095Y-13536428D01*
X8083571Y-13545952D01*
X8064524Y-13555476D01*
X8045476Y-13555476D01*
X8026428Y-13545952D01*
X8016905Y-13536428D01*
X8007381Y-13517381D01*
X7997857Y-13479286D01*
X7997857Y-13431667D01*
X8007381Y-13393571D01*
X8016905Y-13374524D01*
X8026428Y-13365000D01*
X8045476Y-13355476D01*
X8197857Y-13536428D02*
X8207381Y-13545952D01*
X8197857Y-13555476D01*
X8188333Y-13545952D01*
X8197857Y-13536428D01*
X8197857Y-13555476D01*
X8331190Y-13355476D02*
X8350238Y-13355476D01*
X8369286Y-13365000D01*
X8378809Y-13374524D01*
X8388333Y-13393571D01*
X8397857Y-13431667D01*
X8397857Y-13479286D01*
X8388333Y-13517381D01*
X8378809Y-13536428D01*
X8369286Y-13545952D01*
X8350238Y-13555476D01*
X8331190Y-13555476D01*
X8312143Y-13545952D01*
X8302619Y-13536428D01*
X8293095Y-13517381D01*
X8283571Y-13479286D01*
X8283571Y-13431667D01*
X8293095Y-13393571D01*
X8302619Y-13374524D01*
X8312143Y-13365000D01*
X8331190Y-13355476D01*
X8578810Y-13355476D02*
X8483571Y-13355476D01*
X8474048Y-13450714D01*
X8483571Y-13441190D01*
X8502619Y-13431667D01*
X8550238Y-13431667D01*
X8569286Y-13441190D01*
X8578810Y-13450714D01*
X8588333Y-13469762D01*
X8588333Y-13517381D01*
X8578810Y-13536428D01*
X8569286Y-13545952D01*
X8550238Y-13555476D01*
X8502619Y-13555476D01*
X8483571Y-13545952D01*
X8474048Y-13536428D01*
X8664524Y-13374524D02*
X8674048Y-13365000D01*
X8693095Y-13355476D01*
X8740714Y-13355476D01*
X8759762Y-13365000D01*
X8769286Y-13374524D01*
X8778810Y-13393571D01*
X8778810Y-13412619D01*
X8769286Y-13441190D01*
X8655000Y-13555476D01*
X8778810Y-13555476D01*
X8902619Y-13355476D02*
X8921667Y-13355476D01*
X8940714Y-13365000D01*
X8950238Y-13374524D01*
X8959762Y-13393571D01*
X8969286Y-13431667D01*
X8969286Y-13479286D01*
X8959762Y-13517381D01*
X8950238Y-13536428D01*
X8940714Y-13545952D01*
X8921667Y-13555476D01*
X8902619Y-13555476D01*
X8883571Y-13545952D01*
X8874048Y-13536428D01*
X8864524Y-13517381D01*
X8855000Y-13479286D01*
X8855000Y-13431667D01*
X8864524Y-13393571D01*
X8874048Y-13374524D01*
X8883571Y-13365000D01*
X8902619Y-13355476D01*
X9045476Y-13355476D02*
X9045476Y-13393571D01*
X9121667Y-13355476D02*
X9121667Y-13393571D01*
X9416905Y-13631667D02*
X9407381Y-13622143D01*
X9388333Y-13593571D01*
X9378810Y-13574524D01*
X9369286Y-13545952D01*
X9359762Y-13498333D01*
X9359762Y-13460238D01*
X9369286Y-13412619D01*
X9378810Y-13384048D01*
X9388333Y-13365000D01*
X9407381Y-13336428D01*
X9416905Y-13326905D01*
X9578810Y-13355476D02*
X9540714Y-13355476D01*
X9521667Y-13365000D01*
X9512143Y-13374524D01*
X9493095Y-13403095D01*
X9483571Y-13441190D01*
X9483571Y-13517381D01*
X9493095Y-13536428D01*
X9502619Y-13545952D01*
X9521667Y-13555476D01*
X9559762Y-13555476D01*
X9578810Y-13545952D01*
X9588333Y-13536428D01*
X9597857Y-13517381D01*
X9597857Y-13469762D01*
X9588333Y-13450714D01*
X9578810Y-13441190D01*
X9559762Y-13431667D01*
X9521667Y-13431667D01*
X9502619Y-13441190D01*
X9493095Y-13450714D01*
X9483571Y-13469762D01*
X9835952Y-13555476D02*
X9835952Y-13355476D01*
X9921667Y-13555476D02*
X9921667Y-13450714D01*
X9912143Y-13431667D01*
X9893095Y-13422143D01*
X9864524Y-13422143D01*
X9845476Y-13431667D01*
X9835952Y-13441190D01*
X10045476Y-13555476D02*
X10026429Y-13545952D01*
X10016905Y-13536428D01*
X10007381Y-13517381D01*
X10007381Y-13460238D01*
X10016905Y-13441190D01*
X10026429Y-13431667D01*
X10045476Y-13422143D01*
X10074048Y-13422143D01*
X10093095Y-13431667D01*
X10102619Y-13441190D01*
X10112143Y-13460238D01*
X10112143Y-13517381D01*
X10102619Y-13536428D01*
X10093095Y-13545952D01*
X10074048Y-13555476D01*
X10045476Y-13555476D01*
X10226429Y-13555476D02*
X10207381Y-13545952D01*
X10197857Y-13526905D01*
X10197857Y-13355476D01*
X10378810Y-13545952D02*
X10359762Y-13555476D01*
X10321667Y-13555476D01*
X10302619Y-13545952D01*
X10293095Y-13526905D01*
X10293095Y-13450714D01*
X10302619Y-13431667D01*
X10321667Y-13422143D01*
X10359762Y-13422143D01*
X10378810Y-13431667D01*
X10388333Y-13450714D01*
X10388333Y-13469762D01*
X10293095Y-13488809D01*
X10464524Y-13545952D02*
X10483571Y-13555476D01*
X10521667Y-13555476D01*
X10540714Y-13545952D01*
X10550238Y-13526905D01*
X10550238Y-13517381D01*
X10540714Y-13498333D01*
X10521667Y-13488809D01*
X10493095Y-13488809D01*
X10474048Y-13479286D01*
X10464524Y-13460238D01*
X10464524Y-13450714D01*
X10474048Y-13431667D01*
X10493095Y-13422143D01*
X10521667Y-13422143D01*
X10540714Y-13431667D01*
X10616905Y-13631667D02*
X10626429Y-13622143D01*
X10645476Y-13593571D01*
X10655000Y-13574524D01*
X10664524Y-13545952D01*
X10674048Y-13498333D01*
X10674048Y-13460238D01*
X10664524Y-13412619D01*
X10655000Y-13384048D01*
X10645476Y-13365000D01*
X10626429Y-13336428D01*
X10616905Y-13326905D01*
M02*
