G04 #@! TF.GenerationSoftware,KiCad,Pcbnew,(6.0.7-1)-1*
G04 #@! TF.CreationDate,2022-10-15T14:15:15+02:00*
G04 #@! TF.ProjectId,PicoWeather,5069636f-5765-4617-9468-65722e6b6963,rev?*
G04 #@! TF.SameCoordinates,Original*
G04 #@! TF.FileFunction,Legend,Bot*
G04 #@! TF.FilePolarity,Positive*
%FSLAX46Y46*%
G04 Gerber Fmt 4.6, Leading zero omitted, Abs format (unit mm)*
G04 Created by KiCad (PCBNEW (6.0.7-1)-1) date 2022-10-15 14:15:15*
%MOMM*%
%LPD*%
G01*
G04 APERTURE LIST*
G04 Aperture macros list*
%AMRoundRect*
0 Rectangle with rounded corners*
0 $1 Rounding radius*
0 $2 $3 $4 $5 $6 $7 $8 $9 X,Y pos of 4 corners*
0 Add a 4 corners polygon primitive as box body*
4,1,4,$2,$3,$4,$5,$6,$7,$8,$9,$2,$3,0*
0 Add four circle primitives for the rounded corners*
1,1,$1+$1,$2,$3*
1,1,$1+$1,$4,$5*
1,1,$1+$1,$6,$7*
1,1,$1+$1,$8,$9*
0 Add four rect primitives between the rounded corners*
20,1,$1+$1,$2,$3,$4,$5,0*
20,1,$1+$1,$4,$5,$6,$7,0*
20,1,$1+$1,$6,$7,$8,$9,0*
20,1,$1+$1,$8,$9,$2,$3,0*%
G04 Aperture macros list end*
%ADD10C,0.120000*%
%ADD11C,1.600000*%
%ADD12O,1.600000X1.600000*%
%ADD13R,1.800000X1.800000*%
%ADD14C,1.800000*%
%ADD15R,1.600000X1.600000*%
%ADD16R,1.980000X3.960000*%
%ADD17O,1.980000X3.960000*%
%ADD18C,3.200000*%
%ADD19C,2.000000*%
%ADD20R,1.700000X1.700000*%
%ADD21O,1.700000X1.700000*%
%ADD22C,2.600000*%
%ADD23RoundRect,0.250001X0.799999X-0.799999X0.799999X0.799999X-0.799999X0.799999X-0.799999X-0.799999X0*%
%ADD24C,2.100000*%
G04 APERTURE END LIST*
D10*
X88615000Y-68940000D02*
X78485000Y-68940000D01*
X88615000Y-80460000D02*
X78485000Y-80460000D01*
X88615000Y-85060000D02*
X78485000Y-85060000D01*
X88615000Y-71260000D02*
X78485000Y-71260000D01*
X88615000Y-82740000D02*
X78485000Y-82740000D01*
X88615000Y-73540000D02*
X78485000Y-73540000D01*
X88615000Y-78140000D02*
X78485000Y-78140000D01*
X88615000Y-75860000D02*
X78485000Y-75860000D01*
%LPC*%
D11*
X68380000Y-97500000D03*
D12*
X83620000Y-97500000D03*
D13*
X61500000Y-103208000D03*
D14*
X64040000Y-103208000D03*
D15*
X90275000Y-90700000D03*
D12*
X87735000Y-90700000D03*
X87735000Y-98320000D03*
X90275000Y-98320000D03*
D16*
X70500000Y-108500000D03*
D17*
X75500000Y-108500000D03*
D18*
X62000000Y-111500000D03*
D11*
X68380000Y-93500000D03*
D12*
X83620000Y-93500000D03*
D16*
X81735000Y-108500000D03*
D17*
X86735000Y-108500000D03*
D13*
X61500000Y-96604000D03*
D14*
X64040000Y-96604000D03*
D13*
X61500000Y-90000000D03*
D14*
X64040000Y-90000000D03*
D19*
X81250000Y-59250000D03*
X87750000Y-59250000D03*
X81250000Y-63750000D03*
X87750000Y-63750000D03*
D11*
X73000000Y-90000000D03*
D12*
X73000000Y-79840000D03*
D20*
X95000000Y-106650000D03*
D21*
X97540000Y-106650000D03*
X95000000Y-104110000D03*
X97540000Y-104110000D03*
X95000000Y-101570000D03*
X97540000Y-101570000D03*
X95000000Y-99030000D03*
X97540000Y-99030000D03*
X95000000Y-96490000D03*
X97540000Y-96490000D03*
X95000000Y-93950000D03*
X97540000Y-93950000D03*
X95000000Y-91410000D03*
X97540000Y-91410000D03*
X95000000Y-88870000D03*
X97540000Y-88870000D03*
X95000000Y-86330000D03*
X97540000Y-86330000D03*
X95000000Y-83790000D03*
X97540000Y-83790000D03*
X95000000Y-81250000D03*
X97540000Y-81250000D03*
X95000000Y-78710000D03*
X97540000Y-78710000D03*
X95000000Y-76170000D03*
X97540000Y-76170000D03*
X95000000Y-73630000D03*
X97540000Y-73630000D03*
X95000000Y-71090000D03*
X97540000Y-71090000D03*
X95000000Y-68550000D03*
X97540000Y-68550000D03*
X95000000Y-66010000D03*
X97540000Y-66010000D03*
X95000000Y-63470000D03*
X97540000Y-63470000D03*
X95000000Y-60930000D03*
X97540000Y-60930000D03*
X95000000Y-58390000D03*
X97540000Y-58390000D03*
D11*
X69500000Y-90080000D03*
D12*
X69500000Y-79920000D03*
D18*
X62000000Y-53500000D03*
X96500000Y-53500000D03*
D11*
X69500000Y-77080000D03*
D12*
X69500000Y-66920000D03*
D18*
X96500000Y-111500000D03*
D16*
X74000000Y-56372000D03*
D17*
X69000000Y-56372000D03*
D11*
X73000000Y-77080000D03*
D12*
X73000000Y-66920000D03*
D22*
X77325000Y-83900000D03*
X77325000Y-74700000D03*
X77325000Y-79300000D03*
X77325000Y-70100000D03*
D23*
X89925000Y-83900000D03*
D24*
X89925000Y-79300000D03*
X89925000Y-74700000D03*
X89925000Y-70100000D03*
M02*
