G04 #@! TF.GenerationSoftware,KiCad,Pcbnew,(6.0.7-1)-1*
G04 #@! TF.CreationDate,2022-10-15T14:15:15+02:00*
G04 #@! TF.ProjectId,PicoWeather,5069636f-5765-4617-9468-65722e6b6963,rev?*
G04 #@! TF.SameCoordinates,Original*
G04 #@! TF.FileFunction,Copper,L2,Bot*
G04 #@! TF.FilePolarity,Positive*
%FSLAX46Y46*%
G04 Gerber Fmt 4.6, Leading zero omitted, Abs format (unit mm)*
G04 Created by KiCad (PCBNEW (6.0.7-1)-1) date 2022-10-15 14:15:15*
%MOMM*%
%LPD*%
G01*
G04 APERTURE LIST*
G04 Aperture macros list*
%AMRoundRect*
0 Rectangle with rounded corners*
0 $1 Rounding radius*
0 $2 $3 $4 $5 $6 $7 $8 $9 X,Y pos of 4 corners*
0 Add a 4 corners polygon primitive as box body*
4,1,4,$2,$3,$4,$5,$6,$7,$8,$9,$2,$3,0*
0 Add four circle primitives for the rounded corners*
1,1,$1+$1,$2,$3*
1,1,$1+$1,$4,$5*
1,1,$1+$1,$6,$7*
1,1,$1+$1,$8,$9*
0 Add four rect primitives between the rounded corners*
20,1,$1+$1,$2,$3,$4,$5,0*
20,1,$1+$1,$4,$5,$6,$7,0*
20,1,$1+$1,$6,$7,$8,$9,0*
20,1,$1+$1,$8,$9,$2,$3,0*%
G04 Aperture macros list end*
G04 #@! TA.AperFunction,ComponentPad*
%ADD10C,1.600000*%
G04 #@! TD*
G04 #@! TA.AperFunction,ComponentPad*
%ADD11O,1.600000X1.600000*%
G04 #@! TD*
G04 #@! TA.AperFunction,ComponentPad*
%ADD12R,1.800000X1.800000*%
G04 #@! TD*
G04 #@! TA.AperFunction,ComponentPad*
%ADD13C,1.800000*%
G04 #@! TD*
G04 #@! TA.AperFunction,ComponentPad*
%ADD14R,1.600000X1.600000*%
G04 #@! TD*
G04 #@! TA.AperFunction,ComponentPad*
%ADD15R,1.980000X3.960000*%
G04 #@! TD*
G04 #@! TA.AperFunction,ComponentPad*
%ADD16O,1.980000X3.960000*%
G04 #@! TD*
G04 #@! TA.AperFunction,ComponentPad*
%ADD17C,2.000000*%
G04 #@! TD*
G04 #@! TA.AperFunction,ComponentPad*
%ADD18R,1.700000X1.700000*%
G04 #@! TD*
G04 #@! TA.AperFunction,ComponentPad*
%ADD19O,1.700000X1.700000*%
G04 #@! TD*
G04 #@! TA.AperFunction,ComponentPad*
%ADD20RoundRect,0.250001X0.799999X-0.799999X0.799999X0.799999X-0.799999X0.799999X-0.799999X-0.799999X0*%
G04 #@! TD*
G04 #@! TA.AperFunction,ComponentPad*
%ADD21C,2.100000*%
G04 #@! TD*
G04 #@! TA.AperFunction,ViaPad*
%ADD22C,0.800000*%
G04 #@! TD*
G04 #@! TA.AperFunction,ViaPad*
%ADD23C,1.200000*%
G04 #@! TD*
G04 #@! TA.AperFunction,Conductor*
%ADD24C,0.250000*%
G04 #@! TD*
G04 APERTURE END LIST*
D10*
X68380000Y-97500000D03*
D11*
X83620000Y-97500000D03*
D12*
X61500000Y-103208000D03*
D13*
X64040000Y-103208000D03*
D14*
X90275000Y-90700000D03*
D11*
X87735000Y-90700000D03*
X87735000Y-98320000D03*
X90275000Y-98320000D03*
D15*
X70500000Y-108500000D03*
D16*
X75500000Y-108500000D03*
D10*
X68380000Y-93500000D03*
D11*
X83620000Y-93500000D03*
D15*
X81735000Y-108500000D03*
D16*
X86735000Y-108500000D03*
D12*
X61500000Y-96604000D03*
D13*
X64040000Y-96604000D03*
D12*
X61500000Y-90000000D03*
D13*
X64040000Y-90000000D03*
D17*
X81250000Y-59250000D03*
X87750000Y-59250000D03*
X81250000Y-63750000D03*
X87750000Y-63750000D03*
D10*
X73000000Y-90000000D03*
D11*
X73000000Y-79840000D03*
D18*
X95000000Y-106650000D03*
D19*
X97540000Y-106650000D03*
X95000000Y-104110000D03*
X97540000Y-104110000D03*
X95000000Y-101570000D03*
X97540000Y-101570000D03*
X95000000Y-99030000D03*
X97540000Y-99030000D03*
X95000000Y-96490000D03*
X97540000Y-96490000D03*
X95000000Y-93950000D03*
X97540000Y-93950000D03*
X95000000Y-91410000D03*
X97540000Y-91410000D03*
X95000000Y-88870000D03*
X97540000Y-88870000D03*
X95000000Y-86330000D03*
X97540000Y-86330000D03*
X95000000Y-83790000D03*
X97540000Y-83790000D03*
X95000000Y-81250000D03*
X97540000Y-81250000D03*
X95000000Y-78710000D03*
X97540000Y-78710000D03*
X95000000Y-76170000D03*
X97540000Y-76170000D03*
X95000000Y-73630000D03*
X97540000Y-73630000D03*
X95000000Y-71090000D03*
X97540000Y-71090000D03*
X95000000Y-68550000D03*
X97540000Y-68550000D03*
X95000000Y-66010000D03*
X97540000Y-66010000D03*
X95000000Y-63470000D03*
X97540000Y-63470000D03*
X95000000Y-60930000D03*
X97540000Y-60930000D03*
X95000000Y-58390000D03*
X97540000Y-58390000D03*
D10*
X69500000Y-90080000D03*
D11*
X69500000Y-79920000D03*
D10*
X69500000Y-77080000D03*
D11*
X69500000Y-66920000D03*
D15*
X74000000Y-56372000D03*
D16*
X69000000Y-56372000D03*
D10*
X73000000Y-77080000D03*
D11*
X73000000Y-66920000D03*
D20*
X89925000Y-83900000D03*
D21*
X89925000Y-79300000D03*
X89925000Y-74700000D03*
X89925000Y-70100000D03*
D22*
X81500000Y-73500000D03*
X80000000Y-75000000D03*
X92500000Y-72500000D03*
X81000000Y-77000000D03*
D23*
X89500000Y-66500000D03*
D24*
X86000000Y-73500000D02*
X81500000Y-73500000D01*
X94681644Y-68550000D02*
X90731644Y-72500000D01*
X90731644Y-72500000D02*
X87000000Y-72500000D01*
X95000000Y-68550000D02*
X94681644Y-68550000D01*
X87000000Y-72500000D02*
X86000000Y-73500000D01*
X80000000Y-75000000D02*
X80000000Y-72000000D01*
X92510000Y-68500000D02*
X95000000Y-66010000D01*
X83500000Y-68500000D02*
X92510000Y-68500000D01*
X80000000Y-72000000D02*
X83500000Y-68500000D01*
X92500000Y-72500000D02*
X92500000Y-75000000D01*
X92500000Y-75000000D02*
X90500000Y-77000000D01*
X90500000Y-77000000D02*
X81000000Y-77000000D01*
X93000000Y-91000000D02*
X90275000Y-93725000D01*
X95000000Y-86330000D02*
X93170000Y-86330000D01*
X93170000Y-86330000D02*
X93000000Y-86500000D01*
X93000000Y-86500000D02*
X93000000Y-91000000D01*
X90275000Y-93725000D02*
X90275000Y-98320000D01*
G04 #@! TA.AperFunction,Conductor*
G36*
X96470018Y-50510000D02*
G01*
X96484851Y-50512310D01*
X96484855Y-50512310D01*
X96493724Y-50513691D01*
X96512436Y-50511244D01*
X96535366Y-50510353D01*
X96806103Y-50524542D01*
X96819209Y-50525919D01*
X97034134Y-50559960D01*
X97115445Y-50572838D01*
X97128345Y-50575580D01*
X97273196Y-50614392D01*
X97418052Y-50653207D01*
X97430586Y-50657279D01*
X97710587Y-50764762D01*
X97722635Y-50770126D01*
X97989870Y-50906289D01*
X98001286Y-50912880D01*
X98252832Y-51076236D01*
X98263495Y-51083984D01*
X98496573Y-51272727D01*
X98506374Y-51281552D01*
X98718448Y-51493626D01*
X98727273Y-51503427D01*
X98887916Y-51701804D01*
X98916016Y-51736505D01*
X98923764Y-51747168D01*
X99006472Y-51874527D01*
X99087117Y-51998709D01*
X99093711Y-52010130D01*
X99229874Y-52277365D01*
X99235237Y-52289412D01*
X99330216Y-52536837D01*
X99342719Y-52569409D01*
X99346795Y-52581953D01*
X99424420Y-52871655D01*
X99427162Y-52884555D01*
X99474080Y-53180785D01*
X99475458Y-53193902D01*
X99489262Y-53457299D01*
X99487935Y-53483276D01*
X99487691Y-53484846D01*
X99487691Y-53484850D01*
X99486309Y-53493724D01*
X99487473Y-53502626D01*
X99487473Y-53502628D01*
X99490436Y-53525283D01*
X99491500Y-53541621D01*
X99491500Y-111450633D01*
X99490000Y-111470018D01*
X99487690Y-111484851D01*
X99487690Y-111484855D01*
X99486309Y-111493724D01*
X99488135Y-111507683D01*
X99488756Y-111512433D01*
X99489647Y-111535366D01*
X99483166Y-111659036D01*
X99475458Y-111806099D01*
X99474080Y-111819215D01*
X99427162Y-112115445D01*
X99424420Y-112128345D01*
X99346795Y-112418047D01*
X99342721Y-112430586D01*
X99325592Y-112475208D01*
X99235238Y-112710587D01*
X99229874Y-112722635D01*
X99093711Y-112989870D01*
X99087120Y-113001286D01*
X98923764Y-113252832D01*
X98916018Y-113263492D01*
X98882173Y-113305287D01*
X98727273Y-113496573D01*
X98718448Y-113506374D01*
X98506374Y-113718448D01*
X98496573Y-113727273D01*
X98263495Y-113916016D01*
X98252832Y-113923764D01*
X98001286Y-114087120D01*
X97989870Y-114093711D01*
X97722635Y-114229874D01*
X97710588Y-114235237D01*
X97430586Y-114342721D01*
X97418052Y-114346793D01*
X97273196Y-114385607D01*
X97128345Y-114424420D01*
X97115445Y-114427162D01*
X97034134Y-114440040D01*
X96819209Y-114474081D01*
X96806101Y-114475458D01*
X96730937Y-114479397D01*
X96542701Y-114489262D01*
X96516724Y-114487935D01*
X96515154Y-114487691D01*
X96515150Y-114487691D01*
X96506276Y-114486309D01*
X96497374Y-114487473D01*
X96497372Y-114487473D01*
X96482323Y-114489441D01*
X96474714Y-114490436D01*
X96458379Y-114491500D01*
X62049367Y-114491500D01*
X62029982Y-114490000D01*
X62015149Y-114487690D01*
X62015145Y-114487690D01*
X62006276Y-114486309D01*
X61987564Y-114488756D01*
X61964634Y-114489647D01*
X61693897Y-114475458D01*
X61680791Y-114474081D01*
X61465866Y-114440040D01*
X61384555Y-114427162D01*
X61371655Y-114424420D01*
X61226804Y-114385607D01*
X61081948Y-114346793D01*
X61069414Y-114342721D01*
X60789412Y-114235237D01*
X60777365Y-114229874D01*
X60510130Y-114093711D01*
X60498714Y-114087120D01*
X60247168Y-113923764D01*
X60236505Y-113916016D01*
X60003427Y-113727273D01*
X59993626Y-113718448D01*
X59781552Y-113506374D01*
X59772727Y-113496573D01*
X59617827Y-113305287D01*
X59583982Y-113263492D01*
X59576236Y-113252832D01*
X59412880Y-113001286D01*
X59406289Y-112989870D01*
X59270126Y-112722635D01*
X59264762Y-112710587D01*
X59174408Y-112475208D01*
X59157279Y-112430586D01*
X59153205Y-112418047D01*
X59075580Y-112128345D01*
X59072838Y-112115445D01*
X59025920Y-111819215D01*
X59024542Y-111806098D01*
X59015455Y-111632703D01*
X59890743Y-111632703D01*
X59928268Y-111917734D01*
X60004129Y-112195036D01*
X60116923Y-112459476D01*
X60264561Y-112706161D01*
X60444313Y-112930528D01*
X60652851Y-113128423D01*
X60886317Y-113296186D01*
X60890112Y-113298195D01*
X60890113Y-113298196D01*
X60911869Y-113309715D01*
X61140392Y-113430712D01*
X61410373Y-113529511D01*
X61691264Y-113590755D01*
X61719841Y-113593004D01*
X61914282Y-113608307D01*
X61914291Y-113608307D01*
X61916739Y-113608500D01*
X62072271Y-113608500D01*
X62074407Y-113608354D01*
X62074418Y-113608354D01*
X62282548Y-113594165D01*
X62282554Y-113594164D01*
X62286825Y-113593873D01*
X62291020Y-113593004D01*
X62291022Y-113593004D01*
X62427583Y-113564724D01*
X62568342Y-113535574D01*
X62839343Y-113439607D01*
X63094812Y-113307750D01*
X63098313Y-113305289D01*
X63098317Y-113305287D01*
X63212418Y-113225095D01*
X63330023Y-113142441D01*
X63540622Y-112946740D01*
X63722713Y-112724268D01*
X63872927Y-112479142D01*
X63988483Y-112215898D01*
X64067244Y-111939406D01*
X64107751Y-111654784D01*
X64107845Y-111636951D01*
X64107867Y-111632703D01*
X94390743Y-111632703D01*
X94428268Y-111917734D01*
X94504129Y-112195036D01*
X94616923Y-112459476D01*
X94764561Y-112706161D01*
X94944313Y-112930528D01*
X95152851Y-113128423D01*
X95386317Y-113296186D01*
X95390112Y-113298195D01*
X95390113Y-113298196D01*
X95411869Y-113309715D01*
X95640392Y-113430712D01*
X95910373Y-113529511D01*
X96191264Y-113590755D01*
X96219841Y-113593004D01*
X96414282Y-113608307D01*
X96414291Y-113608307D01*
X96416739Y-113608500D01*
X96572271Y-113608500D01*
X96574407Y-113608354D01*
X96574418Y-113608354D01*
X96782548Y-113594165D01*
X96782554Y-113594164D01*
X96786825Y-113593873D01*
X96791020Y-113593004D01*
X96791022Y-113593004D01*
X96927583Y-113564724D01*
X97068342Y-113535574D01*
X97339343Y-113439607D01*
X97594812Y-113307750D01*
X97598313Y-113305289D01*
X97598317Y-113305287D01*
X97712418Y-113225095D01*
X97830023Y-113142441D01*
X98040622Y-112946740D01*
X98222713Y-112724268D01*
X98372927Y-112479142D01*
X98488483Y-112215898D01*
X98567244Y-111939406D01*
X98607751Y-111654784D01*
X98607845Y-111636951D01*
X98609235Y-111371583D01*
X98609235Y-111371576D01*
X98609257Y-111367297D01*
X98571732Y-111082266D01*
X98495871Y-110804964D01*
X98465452Y-110733649D01*
X98384763Y-110544476D01*
X98384761Y-110544472D01*
X98383077Y-110540524D01*
X98235439Y-110293839D01*
X98055687Y-110069472D01*
X97847149Y-109871577D01*
X97613683Y-109703814D01*
X97591843Y-109692250D01*
X97568654Y-109679972D01*
X97359608Y-109569288D01*
X97089627Y-109470489D01*
X96808736Y-109409245D01*
X96777685Y-109406801D01*
X96585718Y-109391693D01*
X96585709Y-109391693D01*
X96583261Y-109391500D01*
X96427729Y-109391500D01*
X96425593Y-109391646D01*
X96425582Y-109391646D01*
X96217452Y-109405835D01*
X96217446Y-109405836D01*
X96213175Y-109406127D01*
X96208980Y-109406996D01*
X96208978Y-109406996D01*
X96072416Y-109435277D01*
X95931658Y-109464426D01*
X95660657Y-109560393D01*
X95405188Y-109692250D01*
X95401687Y-109694711D01*
X95401683Y-109694713D01*
X95391594Y-109701804D01*
X95169977Y-109857559D01*
X94959378Y-110053260D01*
X94777287Y-110275732D01*
X94627073Y-110520858D01*
X94625347Y-110524791D01*
X94625346Y-110524792D01*
X94528721Y-110744910D01*
X94511517Y-110784102D01*
X94432756Y-111060594D01*
X94392249Y-111345216D01*
X94392227Y-111349505D01*
X94392226Y-111349512D01*
X94391195Y-111546410D01*
X94390743Y-111632703D01*
X64107867Y-111632703D01*
X64109235Y-111371583D01*
X64109235Y-111371576D01*
X64109257Y-111367297D01*
X64071732Y-111082266D01*
X63995871Y-110804964D01*
X63965452Y-110733649D01*
X63884763Y-110544476D01*
X63884761Y-110544472D01*
X63883077Y-110540524D01*
X63873588Y-110524669D01*
X69002001Y-110524669D01*
X69002371Y-110531490D01*
X69007895Y-110582352D01*
X69011521Y-110597604D01*
X69056676Y-110718054D01*
X69065214Y-110733649D01*
X69141715Y-110835724D01*
X69154276Y-110848285D01*
X69256351Y-110924786D01*
X69271946Y-110933324D01*
X69392394Y-110978478D01*
X69407649Y-110982105D01*
X69458514Y-110987631D01*
X69465328Y-110988000D01*
X70227885Y-110988000D01*
X70243124Y-110983525D01*
X70244329Y-110982135D01*
X70246000Y-110974452D01*
X70246000Y-110969884D01*
X70754000Y-110969884D01*
X70758475Y-110985123D01*
X70759865Y-110986328D01*
X70767548Y-110987999D01*
X71534669Y-110987999D01*
X71541490Y-110987629D01*
X71592352Y-110982105D01*
X71607604Y-110978479D01*
X71728054Y-110933324D01*
X71743649Y-110924786D01*
X71845724Y-110848285D01*
X71858285Y-110835724D01*
X71934786Y-110733649D01*
X71943324Y-110718054D01*
X71988478Y-110597606D01*
X71992105Y-110582351D01*
X71997631Y-110531486D01*
X71998000Y-110524672D01*
X71998000Y-109552469D01*
X74001500Y-109552469D01*
X74001712Y-109555042D01*
X74001712Y-109555053D01*
X74016131Y-109730432D01*
X74016132Y-109730438D01*
X74016555Y-109735583D01*
X74076584Y-109974570D01*
X74078642Y-109979303D01*
X74078643Y-109979306D01*
X74119302Y-110072814D01*
X74174840Y-110200544D01*
X74177644Y-110204878D01*
X74177646Y-110204882D01*
X74305874Y-110403092D01*
X74305879Y-110403098D01*
X74308685Y-110407436D01*
X74474523Y-110589690D01*
X74478574Y-110592889D01*
X74478578Y-110592893D01*
X74509763Y-110617521D01*
X74667901Y-110742410D01*
X74736303Y-110780170D01*
X74859692Y-110848285D01*
X74883625Y-110861497D01*
X75115903Y-110943750D01*
X75120995Y-110944657D01*
X75353407Y-110986057D01*
X75353411Y-110986057D01*
X75358495Y-110986963D01*
X75437914Y-110987933D01*
X75599718Y-110989910D01*
X75599720Y-110989910D01*
X75604888Y-110989973D01*
X75848464Y-110952701D01*
X76082682Y-110876147D01*
X76087270Y-110873759D01*
X76087274Y-110873757D01*
X76296663Y-110764756D01*
X76296664Y-110764755D01*
X76301252Y-110762367D01*
X76305385Y-110759264D01*
X76305388Y-110759262D01*
X76494168Y-110617521D01*
X76494170Y-110617519D01*
X76498303Y-110614416D01*
X76580756Y-110528134D01*
X80236500Y-110528134D01*
X80243255Y-110590316D01*
X80294385Y-110726705D01*
X80381739Y-110843261D01*
X80498295Y-110930615D01*
X80634684Y-110981745D01*
X80696866Y-110988500D01*
X82773134Y-110988500D01*
X82835316Y-110981745D01*
X82971705Y-110930615D01*
X83088261Y-110843261D01*
X83175615Y-110726705D01*
X83226745Y-110590316D01*
X83233500Y-110528134D01*
X83233500Y-109552469D01*
X85236500Y-109552469D01*
X85236712Y-109555042D01*
X85236712Y-109555053D01*
X85251131Y-109730432D01*
X85251132Y-109730438D01*
X85251555Y-109735583D01*
X85311584Y-109974570D01*
X85313642Y-109979303D01*
X85313643Y-109979306D01*
X85354302Y-110072814D01*
X85409840Y-110200544D01*
X85412644Y-110204878D01*
X85412646Y-110204882D01*
X85540874Y-110403092D01*
X85540879Y-110403098D01*
X85543685Y-110407436D01*
X85709523Y-110589690D01*
X85713574Y-110592889D01*
X85713578Y-110592893D01*
X85744763Y-110617521D01*
X85902901Y-110742410D01*
X85971303Y-110780170D01*
X86094692Y-110848285D01*
X86118625Y-110861497D01*
X86350903Y-110943750D01*
X86355995Y-110944657D01*
X86588407Y-110986057D01*
X86588411Y-110986057D01*
X86593495Y-110986963D01*
X86672914Y-110987933D01*
X86834718Y-110989910D01*
X86834720Y-110989910D01*
X86839888Y-110989973D01*
X87083464Y-110952701D01*
X87317682Y-110876147D01*
X87322270Y-110873759D01*
X87322274Y-110873757D01*
X87531663Y-110764756D01*
X87531664Y-110764755D01*
X87536252Y-110762367D01*
X87540385Y-110759264D01*
X87540388Y-110759262D01*
X87729168Y-110617521D01*
X87729170Y-110617519D01*
X87733303Y-110614416D01*
X87903545Y-110436269D01*
X87926177Y-110403092D01*
X88039485Y-110236989D01*
X88039488Y-110236984D01*
X88042404Y-110232709D01*
X88044580Y-110228020D01*
X88044584Y-110228014D01*
X88143975Y-110013894D01*
X88143977Y-110013889D01*
X88146152Y-110009203D01*
X88155757Y-109974570D01*
X88210623Y-109776726D01*
X88210623Y-109776725D01*
X88212002Y-109771753D01*
X88233500Y-109570594D01*
X88233500Y-107447531D01*
X88231736Y-107426071D01*
X88218869Y-107269568D01*
X88218868Y-107269562D01*
X88218445Y-107264417D01*
X88158416Y-107025430D01*
X88156357Y-107020694D01*
X88062220Y-106804193D01*
X88062218Y-106804190D01*
X88060160Y-106799456D01*
X88042389Y-106771986D01*
X87929126Y-106596908D01*
X87929121Y-106596902D01*
X87926315Y-106592564D01*
X87760477Y-106410310D01*
X87756426Y-106407111D01*
X87756422Y-106407107D01*
X87597939Y-106281946D01*
X87567099Y-106257590D01*
X87473561Y-106205954D01*
X87355906Y-106141004D01*
X87355903Y-106141003D01*
X87351375Y-106138503D01*
X87119097Y-106056250D01*
X87064457Y-106046517D01*
X86881593Y-106013943D01*
X86881589Y-106013943D01*
X86876505Y-106013037D01*
X86791700Y-106012001D01*
X86635282Y-106010090D01*
X86635280Y-106010090D01*
X86630112Y-106010027D01*
X86386536Y-106047299D01*
X86152318Y-106123853D01*
X86147730Y-106126241D01*
X86147726Y-106126243D01*
X85938337Y-106235244D01*
X85933748Y-106237633D01*
X85929615Y-106240736D01*
X85929612Y-106240738D01*
X85740832Y-106382479D01*
X85736697Y-106385584D01*
X85566455Y-106563731D01*
X85563541Y-106568003D01*
X85563540Y-106568004D01*
X85430515Y-106763011D01*
X85430512Y-106763016D01*
X85427596Y-106767291D01*
X85425420Y-106771980D01*
X85425416Y-106771986D01*
X85326025Y-106986106D01*
X85323848Y-106990797D01*
X85322468Y-106995775D01*
X85322466Y-106995779D01*
X85312854Y-107030441D01*
X85257998Y-107228247D01*
X85236500Y-107429406D01*
X85236500Y-109552469D01*
X83233500Y-109552469D01*
X83233500Y-106471866D01*
X83226745Y-106409684D01*
X83175615Y-106273295D01*
X83088261Y-106156739D01*
X82971705Y-106069385D01*
X82835316Y-106018255D01*
X82773134Y-106011500D01*
X80696866Y-106011500D01*
X80634684Y-106018255D01*
X80498295Y-106069385D01*
X80381739Y-106156739D01*
X80294385Y-106273295D01*
X80243255Y-106409684D01*
X80236500Y-106471866D01*
X80236500Y-110528134D01*
X76580756Y-110528134D01*
X76668545Y-110436269D01*
X76691177Y-110403092D01*
X76804485Y-110236989D01*
X76804488Y-110236984D01*
X76807404Y-110232709D01*
X76809580Y-110228020D01*
X76809584Y-110228014D01*
X76908975Y-110013894D01*
X76908977Y-110013889D01*
X76911152Y-110009203D01*
X76920757Y-109974570D01*
X76975623Y-109776726D01*
X76975623Y-109776725D01*
X76977002Y-109771753D01*
X76998500Y-109570594D01*
X76998500Y-107447531D01*
X76996736Y-107426071D01*
X76983869Y-107269568D01*
X76983868Y-107269562D01*
X76983445Y-107264417D01*
X76923416Y-107025430D01*
X76921357Y-107020694D01*
X76827220Y-106804193D01*
X76827218Y-106804190D01*
X76825160Y-106799456D01*
X76807389Y-106771986D01*
X76694126Y-106596908D01*
X76694121Y-106596902D01*
X76691315Y-106592564D01*
X76525477Y-106410310D01*
X76521426Y-106407111D01*
X76521422Y-106407107D01*
X76362939Y-106281946D01*
X76332099Y-106257590D01*
X76238561Y-106205954D01*
X76120906Y-106141004D01*
X76120903Y-106141003D01*
X76116375Y-106138503D01*
X75884097Y-106056250D01*
X75829457Y-106046517D01*
X75646593Y-106013943D01*
X75646589Y-106013943D01*
X75641505Y-106013037D01*
X75556700Y-106012001D01*
X75400282Y-106010090D01*
X75400280Y-106010090D01*
X75395112Y-106010027D01*
X75151536Y-106047299D01*
X74917318Y-106123853D01*
X74912730Y-106126241D01*
X74912726Y-106126243D01*
X74703337Y-106235244D01*
X74698748Y-106237633D01*
X74694615Y-106240736D01*
X74694612Y-106240738D01*
X74505832Y-106382479D01*
X74501697Y-106385584D01*
X74331455Y-106563731D01*
X74328541Y-106568003D01*
X74328540Y-106568004D01*
X74195515Y-106763011D01*
X74195512Y-106763016D01*
X74192596Y-106767291D01*
X74190420Y-106771980D01*
X74190416Y-106771986D01*
X74091025Y-106986106D01*
X74088848Y-106990797D01*
X74087468Y-106995775D01*
X74087466Y-106995779D01*
X74077854Y-107030441D01*
X74022998Y-107228247D01*
X74001500Y-107429406D01*
X74001500Y-109552469D01*
X71998000Y-109552469D01*
X71998000Y-108772115D01*
X71993525Y-108756876D01*
X71992135Y-108755671D01*
X71984452Y-108754000D01*
X70772115Y-108754000D01*
X70756876Y-108758475D01*
X70755671Y-108759865D01*
X70754000Y-108767548D01*
X70754000Y-110969884D01*
X70246000Y-110969884D01*
X70246000Y-108772115D01*
X70241525Y-108756876D01*
X70240135Y-108755671D01*
X70232452Y-108754000D01*
X69020116Y-108754000D01*
X69004877Y-108758475D01*
X69003672Y-108759865D01*
X69002001Y-108767548D01*
X69002001Y-110524669D01*
X63873588Y-110524669D01*
X63735439Y-110293839D01*
X63555687Y-110069472D01*
X63347149Y-109871577D01*
X63113683Y-109703814D01*
X63091843Y-109692250D01*
X63068654Y-109679972D01*
X62859608Y-109569288D01*
X62589627Y-109470489D01*
X62308736Y-109409245D01*
X62277685Y-109406801D01*
X62085718Y-109391693D01*
X62085709Y-109391693D01*
X62083261Y-109391500D01*
X61927729Y-109391500D01*
X61925593Y-109391646D01*
X61925582Y-109391646D01*
X61717452Y-109405835D01*
X61717446Y-109405836D01*
X61713175Y-109406127D01*
X61708980Y-109406996D01*
X61708978Y-109406996D01*
X61572416Y-109435277D01*
X61431658Y-109464426D01*
X61160657Y-109560393D01*
X60905188Y-109692250D01*
X60901687Y-109694711D01*
X60901683Y-109694713D01*
X60891594Y-109701804D01*
X60669977Y-109857559D01*
X60459378Y-110053260D01*
X60277287Y-110275732D01*
X60127073Y-110520858D01*
X60125347Y-110524791D01*
X60125346Y-110524792D01*
X60028721Y-110744910D01*
X60011517Y-110784102D01*
X59932756Y-111060594D01*
X59892249Y-111345216D01*
X59892227Y-111349505D01*
X59892226Y-111349512D01*
X59891195Y-111546410D01*
X59890743Y-111632703D01*
X59015455Y-111632703D01*
X59010932Y-111546410D01*
X59012505Y-111518915D01*
X59013576Y-111512552D01*
X59013729Y-111500000D01*
X59009773Y-111472376D01*
X59008500Y-111454514D01*
X59008500Y-108227885D01*
X69002000Y-108227885D01*
X69006475Y-108243124D01*
X69007865Y-108244329D01*
X69015548Y-108246000D01*
X70227885Y-108246000D01*
X70243124Y-108241525D01*
X70244329Y-108240135D01*
X70246000Y-108232452D01*
X70246000Y-108227885D01*
X70754000Y-108227885D01*
X70758475Y-108243124D01*
X70759865Y-108244329D01*
X70767548Y-108246000D01*
X71979884Y-108246000D01*
X71995123Y-108241525D01*
X71996328Y-108240135D01*
X71997999Y-108232452D01*
X71997999Y-106475331D01*
X71997629Y-106468510D01*
X71992105Y-106417648D01*
X71988479Y-106402396D01*
X71943324Y-106281946D01*
X71934786Y-106266351D01*
X71858285Y-106164276D01*
X71845724Y-106151715D01*
X71743649Y-106075214D01*
X71728054Y-106066676D01*
X71607606Y-106021522D01*
X71592351Y-106017895D01*
X71541486Y-106012369D01*
X71534672Y-106012000D01*
X70772115Y-106012000D01*
X70756876Y-106016475D01*
X70755671Y-106017865D01*
X70754000Y-106025548D01*
X70754000Y-108227885D01*
X70246000Y-108227885D01*
X70246000Y-106030116D01*
X70241525Y-106014877D01*
X70240135Y-106013672D01*
X70232452Y-106012001D01*
X69465331Y-106012001D01*
X69458510Y-106012371D01*
X69407648Y-106017895D01*
X69392396Y-106021521D01*
X69271946Y-106066676D01*
X69256351Y-106075214D01*
X69154276Y-106151715D01*
X69141715Y-106164276D01*
X69065214Y-106266351D01*
X69056676Y-106281946D01*
X69011522Y-106402394D01*
X69007895Y-106417649D01*
X69002369Y-106468514D01*
X69002000Y-106475328D01*
X69002000Y-108227885D01*
X59008500Y-108227885D01*
X59008500Y-104156134D01*
X60091500Y-104156134D01*
X60098255Y-104218316D01*
X60149385Y-104354705D01*
X60236739Y-104471261D01*
X60353295Y-104558615D01*
X60489684Y-104609745D01*
X60551866Y-104616500D01*
X62448134Y-104616500D01*
X62510316Y-104609745D01*
X62646705Y-104558615D01*
X62763261Y-104471261D01*
X62850615Y-104354705D01*
X62875180Y-104289178D01*
X62917822Y-104232414D01*
X62984383Y-104207714D01*
X63053732Y-104222921D01*
X63073647Y-104236464D01*
X63205942Y-104346297D01*
X63229349Y-104365730D01*
X63429322Y-104482584D01*
X63645694Y-104565209D01*
X63650760Y-104566240D01*
X63650761Y-104566240D01*
X63703846Y-104577040D01*
X63872656Y-104611385D01*
X64002089Y-104616131D01*
X64098949Y-104619683D01*
X64098953Y-104619683D01*
X64104113Y-104619872D01*
X64109233Y-104619216D01*
X64109235Y-104619216D01*
X64183166Y-104609745D01*
X64333847Y-104590442D01*
X64338795Y-104588957D01*
X64338802Y-104588956D01*
X64550747Y-104525369D01*
X64555690Y-104523886D01*
X64636236Y-104484427D01*
X64759049Y-104424262D01*
X64759052Y-104424260D01*
X64763684Y-104421991D01*
X64952243Y-104287494D01*
X65116303Y-104124005D01*
X65251458Y-103935917D01*
X65277937Y-103882342D01*
X65351784Y-103732922D01*
X65351785Y-103732920D01*
X65354078Y-103728280D01*
X65421408Y-103506671D01*
X65451640Y-103277041D01*
X65452144Y-103256403D01*
X65453245Y-103211365D01*
X65453245Y-103211361D01*
X65453327Y-103208000D01*
X65443423Y-103087530D01*
X65434773Y-102982318D01*
X65434772Y-102982312D01*
X65434349Y-102977167D01*
X65377925Y-102752533D01*
X65367781Y-102729203D01*
X65287630Y-102544868D01*
X65287628Y-102544865D01*
X65285570Y-102540131D01*
X65159764Y-102345665D01*
X65003887Y-102174358D01*
X64999836Y-102171159D01*
X64999832Y-102171155D01*
X64826177Y-102034011D01*
X64826172Y-102034008D01*
X64822123Y-102030810D01*
X64817607Y-102028317D01*
X64817604Y-102028315D01*
X64623879Y-101921373D01*
X64623875Y-101921371D01*
X64619355Y-101918876D01*
X64614486Y-101917152D01*
X64614482Y-101917150D01*
X64405903Y-101843288D01*
X64405899Y-101843287D01*
X64401028Y-101841562D01*
X64395935Y-101840655D01*
X64395932Y-101840654D01*
X64178095Y-101801851D01*
X64178089Y-101801850D01*
X64173006Y-101800945D01*
X64100096Y-101800054D01*
X63946581Y-101798179D01*
X63946579Y-101798179D01*
X63941411Y-101798116D01*
X63712464Y-101833150D01*
X63492314Y-101905106D01*
X63487726Y-101907494D01*
X63487722Y-101907496D01*
X63352979Y-101977639D01*
X63286872Y-102012052D01*
X63282739Y-102015155D01*
X63282736Y-102015157D01*
X63134319Y-102126592D01*
X63101655Y-102151117D01*
X63084170Y-102169414D01*
X63022646Y-102204844D01*
X62951733Y-102201387D01*
X62893947Y-102160141D01*
X62875094Y-102126592D01*
X62853768Y-102069705D01*
X62853767Y-102069703D01*
X62850615Y-102061295D01*
X62763261Y-101944739D01*
X62646705Y-101857385D01*
X62510316Y-101806255D01*
X62448134Y-101799500D01*
X60551866Y-101799500D01*
X60489684Y-101806255D01*
X60353295Y-101857385D01*
X60236739Y-101944739D01*
X60149385Y-102061295D01*
X60098255Y-102197684D01*
X60091500Y-102259866D01*
X60091500Y-104156134D01*
X59008500Y-104156134D01*
X59008500Y-98586062D01*
X67658493Y-98586062D01*
X67667789Y-98598077D01*
X67718994Y-98633931D01*
X67728489Y-98639414D01*
X67925947Y-98731490D01*
X67936239Y-98735236D01*
X68146688Y-98791625D01*
X68157481Y-98793528D01*
X68374525Y-98812517D01*
X68385475Y-98812517D01*
X68602519Y-98793528D01*
X68613312Y-98791625D01*
X68823761Y-98735236D01*
X68834053Y-98731490D01*
X69031511Y-98639414D01*
X69041006Y-98633931D01*
X69093048Y-98597491D01*
X69101424Y-98587012D01*
X69094356Y-98573566D01*
X68392812Y-97872022D01*
X68378868Y-97864408D01*
X68377035Y-97864539D01*
X68370420Y-97868790D01*
X67664923Y-98574287D01*
X67658493Y-98586062D01*
X59008500Y-98586062D01*
X59008500Y-97552134D01*
X60091500Y-97552134D01*
X60098255Y-97614316D01*
X60149385Y-97750705D01*
X60236739Y-97867261D01*
X60353295Y-97954615D01*
X60489684Y-98005745D01*
X60551866Y-98012500D01*
X62448134Y-98012500D01*
X62510316Y-98005745D01*
X62646705Y-97954615D01*
X62763261Y-97867261D01*
X62850615Y-97750705D01*
X62875180Y-97685178D01*
X62917822Y-97628414D01*
X62984383Y-97603714D01*
X63053732Y-97618921D01*
X63073647Y-97632464D01*
X63182119Y-97722519D01*
X63229349Y-97761730D01*
X63429322Y-97878584D01*
X63645694Y-97961209D01*
X63650760Y-97962240D01*
X63650761Y-97962240D01*
X63703846Y-97973040D01*
X63872656Y-98007385D01*
X64002089Y-98012131D01*
X64098949Y-98015683D01*
X64098953Y-98015683D01*
X64104113Y-98015872D01*
X64109233Y-98015216D01*
X64109235Y-98015216D01*
X64196397Y-98004050D01*
X64333847Y-97986442D01*
X64338795Y-97984957D01*
X64338802Y-97984956D01*
X64550747Y-97921369D01*
X64555690Y-97919886D01*
X64560324Y-97917616D01*
X64759049Y-97820262D01*
X64759052Y-97820260D01*
X64763684Y-97817991D01*
X64952243Y-97683494D01*
X65116303Y-97520005D01*
X65126744Y-97505475D01*
X67067483Y-97505475D01*
X67086472Y-97722519D01*
X67088375Y-97733312D01*
X67144764Y-97943761D01*
X67148510Y-97954053D01*
X67240586Y-98151511D01*
X67246069Y-98161006D01*
X67282509Y-98213048D01*
X67292988Y-98221424D01*
X67306434Y-98214356D01*
X68007978Y-97512812D01*
X68014356Y-97501132D01*
X68744408Y-97501132D01*
X68744539Y-97502965D01*
X68748790Y-97509580D01*
X69454287Y-98215077D01*
X69466062Y-98221507D01*
X69478077Y-98212211D01*
X69513931Y-98161006D01*
X69519414Y-98151511D01*
X69611490Y-97954053D01*
X69615236Y-97943761D01*
X69671625Y-97733312D01*
X69673528Y-97722519D01*
X69692517Y-97505475D01*
X69692517Y-97500000D01*
X82306502Y-97500000D01*
X82326457Y-97728087D01*
X82327881Y-97733400D01*
X82327881Y-97733402D01*
X82377242Y-97917616D01*
X82385716Y-97949243D01*
X82388039Y-97954224D01*
X82388039Y-97954225D01*
X82480151Y-98151762D01*
X82480154Y-98151767D01*
X82482477Y-98156749D01*
X82514594Y-98202617D01*
X82603522Y-98329618D01*
X82613802Y-98344300D01*
X82775700Y-98506198D01*
X82780208Y-98509355D01*
X82780211Y-98509357D01*
X82843114Y-98553402D01*
X82963251Y-98637523D01*
X82968233Y-98639846D01*
X82968238Y-98639849D01*
X83164765Y-98731490D01*
X83170757Y-98734284D01*
X83176065Y-98735706D01*
X83176067Y-98735707D01*
X83386598Y-98792119D01*
X83386600Y-98792119D01*
X83391913Y-98793543D01*
X83620000Y-98813498D01*
X83848087Y-98793543D01*
X83853400Y-98792119D01*
X83853402Y-98792119D01*
X84063933Y-98735707D01*
X84063935Y-98735706D01*
X84069243Y-98734284D01*
X84075235Y-98731490D01*
X84271762Y-98639849D01*
X84271767Y-98639846D01*
X84276749Y-98637523D01*
X84396886Y-98553402D01*
X84459789Y-98509357D01*
X84459792Y-98509355D01*
X84464300Y-98506198D01*
X84626198Y-98344300D01*
X84636479Y-98329618D01*
X84725406Y-98202617D01*
X84757523Y-98156749D01*
X84759846Y-98151767D01*
X84759849Y-98151762D01*
X84851961Y-97954225D01*
X84851961Y-97954224D01*
X84854284Y-97949243D01*
X84862759Y-97917616D01*
X84912119Y-97733402D01*
X84912119Y-97733400D01*
X84913543Y-97728087D01*
X84933498Y-97500000D01*
X84913543Y-97271913D01*
X84890908Y-97187438D01*
X84855707Y-97056067D01*
X84855706Y-97056065D01*
X84854284Y-97050757D01*
X84842953Y-97026457D01*
X84759849Y-96848238D01*
X84759846Y-96848233D01*
X84757523Y-96843251D01*
X84640664Y-96676359D01*
X84629357Y-96660211D01*
X84629355Y-96660208D01*
X84626198Y-96655700D01*
X84464300Y-96493802D01*
X84459792Y-96490645D01*
X84459789Y-96490643D01*
X84333920Y-96402509D01*
X84276749Y-96362477D01*
X84271767Y-96360154D01*
X84271762Y-96360151D01*
X84074225Y-96268039D01*
X84074224Y-96268039D01*
X84069243Y-96265716D01*
X84063935Y-96264294D01*
X84063933Y-96264293D01*
X83853402Y-96207881D01*
X83853400Y-96207881D01*
X83848087Y-96206457D01*
X83620000Y-96186502D01*
X83391913Y-96206457D01*
X83386600Y-96207881D01*
X83386598Y-96207881D01*
X83176067Y-96264293D01*
X83176065Y-96264294D01*
X83170757Y-96265716D01*
X83165776Y-96268039D01*
X83165775Y-96268039D01*
X82968238Y-96360151D01*
X82968233Y-96360154D01*
X82963251Y-96362477D01*
X82906080Y-96402509D01*
X82780211Y-96490643D01*
X82780208Y-96490645D01*
X82775700Y-96493802D01*
X82613802Y-96655700D01*
X82610645Y-96660208D01*
X82610643Y-96660211D01*
X82599336Y-96676359D01*
X82482477Y-96843251D01*
X82480154Y-96848233D01*
X82480151Y-96848238D01*
X82397047Y-97026457D01*
X82385716Y-97050757D01*
X82384294Y-97056065D01*
X82384293Y-97056067D01*
X82349092Y-97187438D01*
X82326457Y-97271913D01*
X82306502Y-97500000D01*
X69692517Y-97500000D01*
X69692517Y-97494525D01*
X69673528Y-97277481D01*
X69671625Y-97266688D01*
X69615236Y-97056239D01*
X69611490Y-97045947D01*
X69519414Y-96848489D01*
X69513931Y-96838994D01*
X69477491Y-96786952D01*
X69467012Y-96778576D01*
X69453566Y-96785644D01*
X68752022Y-97487188D01*
X68744408Y-97501132D01*
X68014356Y-97501132D01*
X68015592Y-97498868D01*
X68015461Y-97497035D01*
X68011210Y-97490420D01*
X67305713Y-96784923D01*
X67293938Y-96778493D01*
X67281923Y-96787789D01*
X67246069Y-96838994D01*
X67240586Y-96848489D01*
X67148510Y-97045947D01*
X67144764Y-97056239D01*
X67088375Y-97266688D01*
X67086472Y-97277481D01*
X67067483Y-97494525D01*
X67067483Y-97505475D01*
X65126744Y-97505475D01*
X65128548Y-97502965D01*
X65150940Y-97471803D01*
X65251458Y-97331917D01*
X65267732Y-97298990D01*
X65351784Y-97128922D01*
X65351785Y-97128920D01*
X65354078Y-97124280D01*
X65421408Y-96902671D01*
X65451640Y-96673041D01*
X65451722Y-96669691D01*
X65453245Y-96607365D01*
X65453245Y-96607361D01*
X65453327Y-96604000D01*
X65447032Y-96527434D01*
X65437623Y-96412988D01*
X67658576Y-96412988D01*
X67665644Y-96426434D01*
X68367188Y-97127978D01*
X68381132Y-97135592D01*
X68382965Y-97135461D01*
X68389580Y-97131210D01*
X69095077Y-96425713D01*
X69101507Y-96413938D01*
X69092211Y-96401923D01*
X69041006Y-96366069D01*
X69031511Y-96360586D01*
X68834053Y-96268510D01*
X68823761Y-96264764D01*
X68613312Y-96208375D01*
X68602519Y-96206472D01*
X68385475Y-96187483D01*
X68374525Y-96187483D01*
X68157481Y-96206472D01*
X68146688Y-96208375D01*
X67936239Y-96264764D01*
X67925947Y-96268510D01*
X67728489Y-96360586D01*
X67718994Y-96366069D01*
X67666952Y-96402509D01*
X67658576Y-96412988D01*
X65437623Y-96412988D01*
X65434773Y-96378318D01*
X65434772Y-96378312D01*
X65434349Y-96373167D01*
X65392478Y-96206472D01*
X65379184Y-96153544D01*
X65379183Y-96153540D01*
X65377925Y-96148533D01*
X65335387Y-96050702D01*
X65287630Y-95940868D01*
X65287628Y-95940865D01*
X65285570Y-95936131D01*
X65159764Y-95741665D01*
X65003887Y-95570358D01*
X64999836Y-95567159D01*
X64999832Y-95567155D01*
X64826177Y-95430011D01*
X64826172Y-95430008D01*
X64822123Y-95426810D01*
X64817607Y-95424317D01*
X64817604Y-95424315D01*
X64623879Y-95317373D01*
X64623875Y-95317371D01*
X64619355Y-95314876D01*
X64614486Y-95313152D01*
X64614482Y-95313150D01*
X64405903Y-95239288D01*
X64405899Y-95239287D01*
X64401028Y-95237562D01*
X64395935Y-95236655D01*
X64395932Y-95236654D01*
X64178095Y-95197851D01*
X64178089Y-95197850D01*
X64173006Y-95196945D01*
X64100096Y-95196054D01*
X63946581Y-95194179D01*
X63946579Y-95194179D01*
X63941411Y-95194116D01*
X63712464Y-95229150D01*
X63492314Y-95301106D01*
X63487726Y-95303494D01*
X63487722Y-95303496D01*
X63291461Y-95405663D01*
X63286872Y-95408052D01*
X63282739Y-95411155D01*
X63282736Y-95411157D01*
X63134319Y-95522592D01*
X63101655Y-95547117D01*
X63084170Y-95565414D01*
X63022646Y-95600844D01*
X62951733Y-95597387D01*
X62893947Y-95556141D01*
X62875094Y-95522592D01*
X62853768Y-95465705D01*
X62853767Y-95465703D01*
X62850615Y-95457295D01*
X62763261Y-95340739D01*
X62646705Y-95253385D01*
X62510316Y-95202255D01*
X62448134Y-95195500D01*
X60551866Y-95195500D01*
X60489684Y-95202255D01*
X60353295Y-95253385D01*
X60236739Y-95340739D01*
X60149385Y-95457295D01*
X60098255Y-95593684D01*
X60091500Y-95655866D01*
X60091500Y-97552134D01*
X59008500Y-97552134D01*
X59008500Y-94586062D01*
X67658493Y-94586062D01*
X67667789Y-94598077D01*
X67718994Y-94633931D01*
X67728489Y-94639414D01*
X67925947Y-94731490D01*
X67936239Y-94735236D01*
X68146688Y-94791625D01*
X68157481Y-94793528D01*
X68374525Y-94812517D01*
X68385475Y-94812517D01*
X68602519Y-94793528D01*
X68613312Y-94791625D01*
X68823761Y-94735236D01*
X68834053Y-94731490D01*
X69031511Y-94639414D01*
X69041006Y-94633931D01*
X69093048Y-94597491D01*
X69101424Y-94587012D01*
X69094356Y-94573566D01*
X68392812Y-93872022D01*
X68378868Y-93864408D01*
X68377035Y-93864539D01*
X68370420Y-93868790D01*
X67664923Y-94574287D01*
X67658493Y-94586062D01*
X59008500Y-94586062D01*
X59008500Y-93505475D01*
X67067483Y-93505475D01*
X67086472Y-93722519D01*
X67088375Y-93733312D01*
X67144764Y-93943761D01*
X67148510Y-93954053D01*
X67240586Y-94151511D01*
X67246069Y-94161006D01*
X67282509Y-94213048D01*
X67292988Y-94221424D01*
X67306434Y-94214356D01*
X68007978Y-93512812D01*
X68014356Y-93501132D01*
X68744408Y-93501132D01*
X68744539Y-93502965D01*
X68748790Y-93509580D01*
X69454287Y-94215077D01*
X69466062Y-94221507D01*
X69478077Y-94212211D01*
X69513931Y-94161006D01*
X69519414Y-94151511D01*
X69611490Y-93954053D01*
X69615236Y-93943761D01*
X69671625Y-93733312D01*
X69673528Y-93722519D01*
X69692517Y-93505475D01*
X69692517Y-93500000D01*
X82306502Y-93500000D01*
X82326457Y-93728087D01*
X82327881Y-93733400D01*
X82327881Y-93733402D01*
X82365025Y-93872022D01*
X82385716Y-93949243D01*
X82388039Y-93954224D01*
X82388039Y-93954225D01*
X82480151Y-94151762D01*
X82480154Y-94151767D01*
X82482477Y-94156749D01*
X82613802Y-94344300D01*
X82775700Y-94506198D01*
X82780208Y-94509355D01*
X82780211Y-94509357D01*
X82852293Y-94559829D01*
X82963251Y-94637523D01*
X82968233Y-94639846D01*
X82968238Y-94639849D01*
X83164765Y-94731490D01*
X83170757Y-94734284D01*
X83176065Y-94735706D01*
X83176067Y-94735707D01*
X83386598Y-94792119D01*
X83386600Y-94792119D01*
X83391913Y-94793543D01*
X83620000Y-94813498D01*
X83848087Y-94793543D01*
X83853400Y-94792119D01*
X83853402Y-94792119D01*
X84063933Y-94735707D01*
X84063935Y-94735706D01*
X84069243Y-94734284D01*
X84075235Y-94731490D01*
X84271762Y-94639849D01*
X84271767Y-94639846D01*
X84276749Y-94637523D01*
X84387707Y-94559829D01*
X84459789Y-94509357D01*
X84459792Y-94509355D01*
X84464300Y-94506198D01*
X84626198Y-94344300D01*
X84757523Y-94156749D01*
X84759846Y-94151767D01*
X84759849Y-94151762D01*
X84851961Y-93954225D01*
X84851961Y-93954224D01*
X84854284Y-93949243D01*
X84874976Y-93872022D01*
X84912119Y-93733402D01*
X84912119Y-93733400D01*
X84913543Y-93728087D01*
X84933498Y-93500000D01*
X84913543Y-93271913D01*
X84902135Y-93229337D01*
X84855707Y-93056067D01*
X84855706Y-93056065D01*
X84854284Y-93050757D01*
X84810504Y-92956870D01*
X84759849Y-92848238D01*
X84759846Y-92848233D01*
X84757523Y-92843251D01*
X84650653Y-92690625D01*
X84629357Y-92660211D01*
X84629355Y-92660208D01*
X84626198Y-92655700D01*
X84464300Y-92493802D01*
X84459792Y-92490645D01*
X84459789Y-92490643D01*
X84333920Y-92402509D01*
X84276749Y-92362477D01*
X84271767Y-92360154D01*
X84271762Y-92360151D01*
X84074225Y-92268039D01*
X84074224Y-92268039D01*
X84069243Y-92265716D01*
X84063935Y-92264294D01*
X84063933Y-92264293D01*
X83853402Y-92207881D01*
X83853400Y-92207881D01*
X83848087Y-92206457D01*
X83620000Y-92186502D01*
X83391913Y-92206457D01*
X83386600Y-92207881D01*
X83386598Y-92207881D01*
X83176067Y-92264293D01*
X83176065Y-92264294D01*
X83170757Y-92265716D01*
X83165776Y-92268039D01*
X83165775Y-92268039D01*
X82968238Y-92360151D01*
X82968233Y-92360154D01*
X82963251Y-92362477D01*
X82906080Y-92402509D01*
X82780211Y-92490643D01*
X82780208Y-92490645D01*
X82775700Y-92493802D01*
X82613802Y-92655700D01*
X82610645Y-92660208D01*
X82610643Y-92660211D01*
X82589347Y-92690625D01*
X82482477Y-92843251D01*
X82480154Y-92848233D01*
X82480151Y-92848238D01*
X82429496Y-92956870D01*
X82385716Y-93050757D01*
X82384294Y-93056065D01*
X82384293Y-93056067D01*
X82337865Y-93229337D01*
X82326457Y-93271913D01*
X82306502Y-93500000D01*
X69692517Y-93500000D01*
X69692517Y-93494525D01*
X69673528Y-93277481D01*
X69671625Y-93266688D01*
X69615236Y-93056239D01*
X69611490Y-93045947D01*
X69519414Y-92848489D01*
X69513931Y-92838994D01*
X69477491Y-92786952D01*
X69467012Y-92778576D01*
X69453566Y-92785644D01*
X68752022Y-93487188D01*
X68744408Y-93501132D01*
X68014356Y-93501132D01*
X68015592Y-93498868D01*
X68015461Y-93497035D01*
X68011210Y-93490420D01*
X67305713Y-92784923D01*
X67293938Y-92778493D01*
X67281923Y-92787789D01*
X67246069Y-92838994D01*
X67240586Y-92848489D01*
X67148510Y-93045947D01*
X67144764Y-93056239D01*
X67088375Y-93266688D01*
X67086472Y-93277481D01*
X67067483Y-93494525D01*
X67067483Y-93505475D01*
X59008500Y-93505475D01*
X59008500Y-92412988D01*
X67658576Y-92412988D01*
X67665644Y-92426434D01*
X68367188Y-93127978D01*
X68381132Y-93135592D01*
X68382965Y-93135461D01*
X68389580Y-93131210D01*
X69095077Y-92425713D01*
X69101507Y-92413938D01*
X69092211Y-92401923D01*
X69041006Y-92366069D01*
X69031511Y-92360586D01*
X68834053Y-92268510D01*
X68823761Y-92264764D01*
X68613312Y-92208375D01*
X68602519Y-92206472D01*
X68385475Y-92187483D01*
X68374525Y-92187483D01*
X68157481Y-92206472D01*
X68146688Y-92208375D01*
X67936239Y-92264764D01*
X67925947Y-92268510D01*
X67728489Y-92360586D01*
X67718994Y-92366069D01*
X67666952Y-92402509D01*
X67658576Y-92412988D01*
X59008500Y-92412988D01*
X59008500Y-90948134D01*
X60091500Y-90948134D01*
X60098255Y-91010316D01*
X60149385Y-91146705D01*
X60236739Y-91263261D01*
X60353295Y-91350615D01*
X60489684Y-91401745D01*
X60551866Y-91408500D01*
X62448134Y-91408500D01*
X62510316Y-91401745D01*
X62646705Y-91350615D01*
X62763261Y-91263261D01*
X62850615Y-91146705D01*
X62875180Y-91081178D01*
X62917822Y-91024414D01*
X62984383Y-90999714D01*
X63053732Y-91014921D01*
X63073647Y-91028464D01*
X63194275Y-91128611D01*
X63229349Y-91157730D01*
X63429322Y-91274584D01*
X63645694Y-91357209D01*
X63650760Y-91358240D01*
X63650761Y-91358240D01*
X63703846Y-91369040D01*
X63872656Y-91403385D01*
X64002089Y-91408131D01*
X64098949Y-91411683D01*
X64098953Y-91411683D01*
X64104113Y-91411872D01*
X64109233Y-91411216D01*
X64109235Y-91411216D01*
X64183166Y-91401745D01*
X64333847Y-91382442D01*
X64338795Y-91380957D01*
X64338802Y-91380956D01*
X64550747Y-91317369D01*
X64555690Y-91315886D01*
X64562567Y-91312517D01*
X64759049Y-91216262D01*
X64759052Y-91216260D01*
X64763684Y-91213991D01*
X64830878Y-91166062D01*
X68778493Y-91166062D01*
X68787789Y-91178077D01*
X68838994Y-91213931D01*
X68848489Y-91219414D01*
X69045947Y-91311490D01*
X69056239Y-91315236D01*
X69266688Y-91371625D01*
X69277481Y-91373528D01*
X69494525Y-91392517D01*
X69505475Y-91392517D01*
X69722519Y-91373528D01*
X69733312Y-91371625D01*
X69943761Y-91315236D01*
X69954053Y-91311490D01*
X70151511Y-91219414D01*
X70161006Y-91213931D01*
X70213048Y-91177491D01*
X70221424Y-91167012D01*
X70214356Y-91153566D01*
X70146852Y-91086062D01*
X72278493Y-91086062D01*
X72287789Y-91098077D01*
X72338994Y-91133931D01*
X72348489Y-91139414D01*
X72545947Y-91231490D01*
X72556239Y-91235236D01*
X72766688Y-91291625D01*
X72777481Y-91293528D01*
X72994525Y-91312517D01*
X73005475Y-91312517D01*
X73222519Y-91293528D01*
X73233312Y-91291625D01*
X73443761Y-91235236D01*
X73454053Y-91231490D01*
X73651511Y-91139414D01*
X73661006Y-91133931D01*
X73713048Y-91097491D01*
X73721424Y-91087012D01*
X73714356Y-91073566D01*
X73607312Y-90966522D01*
X86452273Y-90966522D01*
X86499764Y-91143761D01*
X86503510Y-91154053D01*
X86595586Y-91351511D01*
X86601069Y-91361007D01*
X86726028Y-91539467D01*
X86733084Y-91547875D01*
X86887125Y-91701916D01*
X86895533Y-91708972D01*
X87073993Y-91833931D01*
X87083489Y-91839414D01*
X87280947Y-91931490D01*
X87291239Y-91935236D01*
X87463503Y-91981394D01*
X87477599Y-91981058D01*
X87481000Y-91973116D01*
X87481000Y-90972115D01*
X87476525Y-90956876D01*
X87475135Y-90955671D01*
X87467452Y-90954000D01*
X86467033Y-90954000D01*
X86453502Y-90957973D01*
X86452273Y-90966522D01*
X73607312Y-90966522D01*
X73012812Y-90372022D01*
X72998868Y-90364408D01*
X72997035Y-90364539D01*
X72990420Y-90368790D01*
X72284923Y-91074287D01*
X72278493Y-91086062D01*
X70146852Y-91086062D01*
X69512812Y-90452022D01*
X69498868Y-90444408D01*
X69497035Y-90444539D01*
X69490420Y-90448790D01*
X68784923Y-91154287D01*
X68778493Y-91166062D01*
X64830878Y-91166062D01*
X64952243Y-91079494D01*
X65116303Y-90916005D01*
X65251458Y-90727917D01*
X65259221Y-90712211D01*
X65351784Y-90524922D01*
X65351785Y-90524920D01*
X65354078Y-90520280D01*
X65421408Y-90298671D01*
X65449476Y-90085475D01*
X68187483Y-90085475D01*
X68206472Y-90302519D01*
X68208375Y-90313312D01*
X68264764Y-90523761D01*
X68268510Y-90534053D01*
X68360586Y-90731511D01*
X68366069Y-90741006D01*
X68402509Y-90793048D01*
X68412988Y-90801424D01*
X68426434Y-90794356D01*
X69127978Y-90092812D01*
X69134356Y-90081132D01*
X69864408Y-90081132D01*
X69864539Y-90082965D01*
X69868790Y-90089580D01*
X70574287Y-90795077D01*
X70586062Y-90801507D01*
X70598077Y-90792211D01*
X70633931Y-90741006D01*
X70639414Y-90731511D01*
X70731490Y-90534053D01*
X70735236Y-90523761D01*
X70791625Y-90313312D01*
X70793528Y-90302519D01*
X70812517Y-90085475D01*
X70812517Y-90074525D01*
X70806476Y-90005475D01*
X71687483Y-90005475D01*
X71706472Y-90222519D01*
X71708375Y-90233312D01*
X71764764Y-90443761D01*
X71768510Y-90454053D01*
X71860586Y-90651511D01*
X71866069Y-90661006D01*
X71902509Y-90713048D01*
X71912988Y-90721424D01*
X71926434Y-90714356D01*
X72627978Y-90012812D01*
X72634356Y-90001132D01*
X73364408Y-90001132D01*
X73364539Y-90002965D01*
X73368790Y-90009580D01*
X74074287Y-90715077D01*
X74086062Y-90721507D01*
X74098077Y-90712211D01*
X74133931Y-90661006D01*
X74139414Y-90651511D01*
X74231490Y-90454053D01*
X74235236Y-90443761D01*
X74239324Y-90428503D01*
X86453606Y-90428503D01*
X86453942Y-90442599D01*
X86461884Y-90446000D01*
X87462885Y-90446000D01*
X87478124Y-90441525D01*
X87479329Y-90440135D01*
X87481000Y-90432452D01*
X87481000Y-89432033D01*
X87477027Y-89418502D01*
X87468478Y-89417273D01*
X87291239Y-89464764D01*
X87280947Y-89468510D01*
X87083489Y-89560586D01*
X87073993Y-89566069D01*
X86895533Y-89691028D01*
X86887125Y-89698084D01*
X86733084Y-89852125D01*
X86726028Y-89860533D01*
X86601069Y-90038993D01*
X86595586Y-90048489D01*
X86503510Y-90245947D01*
X86499764Y-90256239D01*
X86453606Y-90428503D01*
X74239324Y-90428503D01*
X74291625Y-90233312D01*
X74293528Y-90222519D01*
X74312517Y-90005475D01*
X74312517Y-89994525D01*
X74293528Y-89777481D01*
X74291625Y-89766688D01*
X74235236Y-89556239D01*
X74231490Y-89545947D01*
X74139414Y-89348489D01*
X74133931Y-89338994D01*
X74097491Y-89286952D01*
X74087012Y-89278576D01*
X74073566Y-89285644D01*
X73372022Y-89987188D01*
X73364408Y-90001132D01*
X72634356Y-90001132D01*
X72635592Y-89998868D01*
X72635461Y-89997035D01*
X72631210Y-89990420D01*
X71925713Y-89284923D01*
X71913938Y-89278493D01*
X71901923Y-89287789D01*
X71866069Y-89338994D01*
X71860586Y-89348489D01*
X71768510Y-89545947D01*
X71764764Y-89556239D01*
X71708375Y-89766688D01*
X71706472Y-89777481D01*
X71687483Y-89994525D01*
X71687483Y-90005475D01*
X70806476Y-90005475D01*
X70793528Y-89857481D01*
X70791625Y-89846688D01*
X70735236Y-89636239D01*
X70731490Y-89625947D01*
X70639414Y-89428489D01*
X70633931Y-89418994D01*
X70597491Y-89366952D01*
X70587012Y-89358576D01*
X70573566Y-89365644D01*
X69872022Y-90067188D01*
X69864408Y-90081132D01*
X69134356Y-90081132D01*
X69135592Y-90078868D01*
X69135461Y-90077035D01*
X69131210Y-90070420D01*
X68425713Y-89364923D01*
X68413938Y-89358493D01*
X68401923Y-89367789D01*
X68366069Y-89418994D01*
X68360586Y-89428489D01*
X68268510Y-89625947D01*
X68264764Y-89636239D01*
X68208375Y-89846688D01*
X68206472Y-89857481D01*
X68187483Y-90074525D01*
X68187483Y-90085475D01*
X65449476Y-90085475D01*
X65451640Y-90069041D01*
X65452328Y-90040896D01*
X65453245Y-90003365D01*
X65453245Y-90003361D01*
X65453327Y-90000000D01*
X65445901Y-89909677D01*
X65434773Y-89774318D01*
X65434772Y-89774312D01*
X65434349Y-89769167D01*
X65400797Y-89635592D01*
X65379184Y-89549544D01*
X65379183Y-89549540D01*
X65377925Y-89544533D01*
X65374536Y-89536739D01*
X65287630Y-89336868D01*
X65287628Y-89336865D01*
X65285570Y-89332131D01*
X65159764Y-89137665D01*
X65028118Y-88992988D01*
X68778576Y-88992988D01*
X68785644Y-89006434D01*
X69487188Y-89707978D01*
X69501132Y-89715592D01*
X69502965Y-89715461D01*
X69509580Y-89711210D01*
X70215077Y-89005713D01*
X70221507Y-88993938D01*
X70212211Y-88981923D01*
X70161006Y-88946069D01*
X70151511Y-88940586D01*
X70092327Y-88912988D01*
X72278576Y-88912988D01*
X72285644Y-88926434D01*
X72987188Y-89627978D01*
X73001132Y-89635592D01*
X73002965Y-89635461D01*
X73009580Y-89631210D01*
X73715077Y-88925713D01*
X73721507Y-88913938D01*
X73712211Y-88901923D01*
X73661006Y-88866069D01*
X73651511Y-88860586D01*
X73454053Y-88768510D01*
X73443761Y-88764764D01*
X73233312Y-88708375D01*
X73222519Y-88706472D01*
X73005475Y-88687483D01*
X72994525Y-88687483D01*
X72777481Y-88706472D01*
X72766688Y-88708375D01*
X72556239Y-88764764D01*
X72545947Y-88768510D01*
X72348489Y-88860586D01*
X72338994Y-88866069D01*
X72286952Y-88902509D01*
X72278576Y-88912988D01*
X70092327Y-88912988D01*
X69954053Y-88848510D01*
X69943761Y-88844764D01*
X69733312Y-88788375D01*
X69722519Y-88786472D01*
X69505475Y-88767483D01*
X69494525Y-88767483D01*
X69277481Y-88786472D01*
X69266688Y-88788375D01*
X69056239Y-88844764D01*
X69045947Y-88848510D01*
X68848489Y-88940586D01*
X68838994Y-88946069D01*
X68786952Y-88982509D01*
X68778576Y-88992988D01*
X65028118Y-88992988D01*
X65003887Y-88966358D01*
X64999836Y-88963159D01*
X64999832Y-88963155D01*
X64826177Y-88826011D01*
X64826172Y-88826008D01*
X64822123Y-88822810D01*
X64817607Y-88820317D01*
X64817604Y-88820315D01*
X64623879Y-88713373D01*
X64623875Y-88713371D01*
X64619355Y-88710876D01*
X64614486Y-88709152D01*
X64614482Y-88709150D01*
X64405903Y-88635288D01*
X64405899Y-88635287D01*
X64401028Y-88633562D01*
X64395935Y-88632655D01*
X64395932Y-88632654D01*
X64178095Y-88593851D01*
X64178089Y-88593850D01*
X64173006Y-88592945D01*
X64100096Y-88592054D01*
X63946581Y-88590179D01*
X63946579Y-88590179D01*
X63941411Y-88590116D01*
X63712464Y-88625150D01*
X63492314Y-88697106D01*
X63487726Y-88699494D01*
X63487722Y-88699496D01*
X63320643Y-88786472D01*
X63286872Y-88804052D01*
X63282739Y-88807155D01*
X63282736Y-88807157D01*
X63110348Y-88936590D01*
X63101655Y-88943117D01*
X63084170Y-88961414D01*
X63022646Y-88996844D01*
X62951733Y-88993387D01*
X62893947Y-88952141D01*
X62875094Y-88918592D01*
X62853768Y-88861705D01*
X62853767Y-88861703D01*
X62850615Y-88853295D01*
X62763261Y-88736739D01*
X62646705Y-88649385D01*
X62510316Y-88598255D01*
X62448134Y-88591500D01*
X60551866Y-88591500D01*
X60489684Y-88598255D01*
X60353295Y-88649385D01*
X60236739Y-88736739D01*
X60149385Y-88853295D01*
X60098255Y-88989684D01*
X60091500Y-89051866D01*
X60091500Y-90948134D01*
X59008500Y-90948134D01*
X59008500Y-84010716D01*
X75514812Y-84010716D01*
X75551060Y-84277063D01*
X75552368Y-84281549D01*
X75552368Y-84281551D01*
X75572183Y-84349534D01*
X75626278Y-84535126D01*
X75738815Y-84779237D01*
X75741378Y-84783146D01*
X75883631Y-85000119D01*
X75883635Y-85000124D01*
X75886197Y-85004032D01*
X75948072Y-85073357D01*
X76042909Y-85179612D01*
X76065188Y-85204574D01*
X76271854Y-85376456D01*
X76501656Y-85515904D01*
X76505970Y-85517713D01*
X76505974Y-85517715D01*
X76555768Y-85538595D01*
X76749545Y-85619852D01*
X77010077Y-85686019D01*
X77233334Y-85708500D01*
X77393237Y-85708500D01*
X77395562Y-85708327D01*
X77395568Y-85708327D01*
X77588408Y-85693996D01*
X77588409Y-85693996D01*
X77593063Y-85693650D01*
X77597616Y-85692620D01*
X77597621Y-85692619D01*
X77850669Y-85635361D01*
X77850674Y-85635360D01*
X77855237Y-85634327D01*
X78105762Y-85536902D01*
X78339136Y-85403518D01*
X78350679Y-85394419D01*
X78466458Y-85303146D01*
X78550231Y-85237105D01*
X78734409Y-85041317D01*
X78867612Y-84849307D01*
X78884961Y-84824299D01*
X78884963Y-84824296D01*
X78887626Y-84820457D01*
X78906026Y-84783146D01*
X78922175Y-84750400D01*
X88366500Y-84750400D01*
X88366837Y-84753646D01*
X88366837Y-84753650D01*
X88375153Y-84833792D01*
X88377474Y-84856165D01*
X88379655Y-84862701D01*
X88379655Y-84862703D01*
X88416418Y-84972894D01*
X88433450Y-85023945D01*
X88526522Y-85174348D01*
X88651697Y-85299305D01*
X88657927Y-85303145D01*
X88657928Y-85303146D01*
X88795090Y-85387694D01*
X88802262Y-85392115D01*
X88843633Y-85405837D01*
X88963611Y-85445632D01*
X88963613Y-85445632D01*
X88970139Y-85447797D01*
X88976975Y-85448497D01*
X88976978Y-85448498D01*
X89020031Y-85452909D01*
X89074600Y-85458500D01*
X90775400Y-85458500D01*
X90778646Y-85458163D01*
X90778650Y-85458163D01*
X90874307Y-85448238D01*
X90874311Y-85448237D01*
X90881165Y-85447526D01*
X90887701Y-85445345D01*
X90887703Y-85445345D01*
X91021741Y-85400626D01*
X91048945Y-85391550D01*
X91199348Y-85298478D01*
X91324305Y-85173303D01*
X91356321Y-85121364D01*
X91413275Y-85028968D01*
X91413276Y-85028966D01*
X91417115Y-85022738D01*
X91454896Y-84908831D01*
X91470632Y-84861389D01*
X91470632Y-84861387D01*
X91472797Y-84854861D01*
X91475598Y-84827529D01*
X91480980Y-84774991D01*
X91483500Y-84750400D01*
X91483500Y-83049600D01*
X91483163Y-83046350D01*
X91473238Y-82950693D01*
X91473237Y-82950689D01*
X91472526Y-82943835D01*
X91416550Y-82776055D01*
X91323478Y-82625652D01*
X91198303Y-82500695D01*
X91163656Y-82479338D01*
X91053968Y-82411725D01*
X91053966Y-82411724D01*
X91047738Y-82407885D01*
X90967995Y-82381436D01*
X90886389Y-82354368D01*
X90886387Y-82354368D01*
X90879861Y-82352203D01*
X90873025Y-82351503D01*
X90873022Y-82351502D01*
X90829969Y-82347091D01*
X90775400Y-82341500D01*
X89074600Y-82341500D01*
X89071354Y-82341837D01*
X89071350Y-82341837D01*
X88975693Y-82351762D01*
X88975689Y-82351763D01*
X88968835Y-82352474D01*
X88962299Y-82354655D01*
X88962297Y-82354655D01*
X88926398Y-82366632D01*
X88801055Y-82408450D01*
X88650652Y-82501522D01*
X88525695Y-82626697D01*
X88521855Y-82632927D01*
X88521854Y-82632928D01*
X88506263Y-82658222D01*
X88432885Y-82777262D01*
X88377203Y-82945139D01*
X88376503Y-82951975D01*
X88376502Y-82951978D01*
X88374072Y-82975701D01*
X88366500Y-83049600D01*
X88366500Y-84750400D01*
X78922175Y-84750400D01*
X79004449Y-84583564D01*
X79004450Y-84583561D01*
X79006514Y-84579376D01*
X79088462Y-84323370D01*
X79131670Y-84058063D01*
X79135188Y-83789284D01*
X79098940Y-83522937D01*
X79084146Y-83472179D01*
X79039587Y-83319305D01*
X79023722Y-83264874D01*
X78911185Y-83020763D01*
X78856085Y-82936722D01*
X78766369Y-82799881D01*
X78766365Y-82799876D01*
X78763803Y-82795968D01*
X78637625Y-82654598D01*
X78587929Y-82598918D01*
X78587927Y-82598916D01*
X78584812Y-82595426D01*
X78378146Y-82423544D01*
X78164947Y-82294171D01*
X78152342Y-82286522D01*
X78152341Y-82286522D01*
X78148344Y-82284096D01*
X78144030Y-82282287D01*
X78144026Y-82282285D01*
X77904769Y-82181957D01*
X77900455Y-82180148D01*
X77639923Y-82113981D01*
X77416666Y-82091500D01*
X77256763Y-82091500D01*
X77254438Y-82091673D01*
X77254432Y-82091673D01*
X77061592Y-82106004D01*
X77061591Y-82106004D01*
X77056937Y-82106350D01*
X77052384Y-82107380D01*
X77052379Y-82107381D01*
X76799331Y-82164639D01*
X76799326Y-82164640D01*
X76794763Y-82165673D01*
X76544238Y-82263098D01*
X76310864Y-82396482D01*
X76307198Y-82399372D01*
X76307195Y-82399374D01*
X76228878Y-82461114D01*
X76099769Y-82562895D01*
X75915591Y-82758683D01*
X75889100Y-82796870D01*
X75773902Y-82962926D01*
X75762374Y-82979543D01*
X75760307Y-82983733D01*
X75760306Y-82983736D01*
X75685674Y-83135076D01*
X75643486Y-83220624D01*
X75561538Y-83476630D01*
X75560788Y-83481237D01*
X75560787Y-83481240D01*
X75542443Y-83593879D01*
X75518330Y-83741937D01*
X75517771Y-83784649D01*
X75515152Y-83984767D01*
X75514812Y-84010716D01*
X59008500Y-84010716D01*
X59008500Y-79920000D01*
X68186502Y-79920000D01*
X68206457Y-80148087D01*
X68207881Y-80153400D01*
X68207881Y-80153402D01*
X68235606Y-80256870D01*
X68265716Y-80369243D01*
X68268039Y-80374224D01*
X68268039Y-80374225D01*
X68360151Y-80571762D01*
X68360154Y-80571767D01*
X68362477Y-80576749D01*
X68493802Y-80764300D01*
X68655700Y-80926198D01*
X68660208Y-80929355D01*
X68660211Y-80929357D01*
X68724491Y-80974366D01*
X68843251Y-81057523D01*
X68848233Y-81059846D01*
X68848238Y-81059849D01*
X69045775Y-81151961D01*
X69050757Y-81154284D01*
X69056065Y-81155706D01*
X69056067Y-81155707D01*
X69266598Y-81212119D01*
X69266600Y-81212119D01*
X69271913Y-81213543D01*
X69500000Y-81233498D01*
X69728087Y-81213543D01*
X69733400Y-81212119D01*
X69733402Y-81212119D01*
X69943933Y-81155707D01*
X69943935Y-81155706D01*
X69949243Y-81154284D01*
X69954225Y-81151961D01*
X70151762Y-81059849D01*
X70151767Y-81059846D01*
X70156749Y-81057523D01*
X70275509Y-80974366D01*
X70339789Y-80929357D01*
X70339792Y-80929355D01*
X70344300Y-80926198D01*
X70506198Y-80764300D01*
X70637523Y-80576749D01*
X70639846Y-80571767D01*
X70639849Y-80571762D01*
X70731961Y-80374225D01*
X70731961Y-80374224D01*
X70734284Y-80369243D01*
X70764395Y-80256870D01*
X70792119Y-80153402D01*
X70792119Y-80153400D01*
X70793543Y-80148087D01*
X70813498Y-79920000D01*
X70806499Y-79840000D01*
X71686502Y-79840000D01*
X71706457Y-80068087D01*
X71707881Y-80073400D01*
X71707881Y-80073402D01*
X71757042Y-80256870D01*
X71765716Y-80289243D01*
X71768039Y-80294224D01*
X71768039Y-80294225D01*
X71860151Y-80491762D01*
X71860154Y-80491767D01*
X71862477Y-80496749D01*
X71918494Y-80576749D01*
X71960756Y-80637105D01*
X71993802Y-80684300D01*
X72155700Y-80846198D01*
X72160208Y-80849355D01*
X72160211Y-80849357D01*
X72179597Y-80862931D01*
X72343251Y-80977523D01*
X72348233Y-80979846D01*
X72348238Y-80979849D01*
X72545775Y-81071961D01*
X72550757Y-81074284D01*
X72556065Y-81075706D01*
X72556067Y-81075707D01*
X72766598Y-81132119D01*
X72766600Y-81132119D01*
X72771913Y-81133543D01*
X73000000Y-81153498D01*
X73228087Y-81133543D01*
X73233400Y-81132119D01*
X73233402Y-81132119D01*
X73443933Y-81075707D01*
X73443935Y-81075706D01*
X73449243Y-81074284D01*
X73454225Y-81071961D01*
X73651762Y-80979849D01*
X73651767Y-80979846D01*
X73656749Y-80977523D01*
X73820403Y-80862931D01*
X73839789Y-80849357D01*
X73839792Y-80849355D01*
X73844300Y-80846198D01*
X74006198Y-80684300D01*
X74039245Y-80637105D01*
X74081506Y-80576749D01*
X74137523Y-80496749D01*
X74139846Y-80491767D01*
X74139849Y-80491762D01*
X74231961Y-80294225D01*
X74231961Y-80294224D01*
X74234284Y-80289243D01*
X74242959Y-80256870D01*
X74292119Y-80073402D01*
X74292119Y-80073400D01*
X74293543Y-80068087D01*
X74313498Y-79840000D01*
X74293543Y-79611913D01*
X74239632Y-79410716D01*
X75514812Y-79410716D01*
X75551060Y-79677063D01*
X75552368Y-79681549D01*
X75552368Y-79681551D01*
X75571599Y-79747529D01*
X75626278Y-79935126D01*
X75738815Y-80179237D01*
X75741378Y-80183146D01*
X75883631Y-80400119D01*
X75883635Y-80400124D01*
X75886197Y-80404032D01*
X75889314Y-80407524D01*
X76056305Y-80594621D01*
X76065188Y-80604574D01*
X76271854Y-80776456D01*
X76275847Y-80778879D01*
X76391991Y-80849357D01*
X76501656Y-80915904D01*
X76505970Y-80917713D01*
X76505974Y-80917715D01*
X76648601Y-80977523D01*
X76749545Y-81019852D01*
X77010077Y-81086019D01*
X77233334Y-81108500D01*
X77393237Y-81108500D01*
X77395562Y-81108327D01*
X77395568Y-81108327D01*
X77588408Y-81093996D01*
X77588409Y-81093996D01*
X77593063Y-81093650D01*
X77597616Y-81092620D01*
X77597621Y-81092619D01*
X77850669Y-81035361D01*
X77850674Y-81035360D01*
X77855237Y-81034327D01*
X78105762Y-80936902D01*
X78339136Y-80803518D01*
X78358872Y-80787960D01*
X78477019Y-80694820D01*
X78550231Y-80637105D01*
X78734409Y-80441317D01*
X78877972Y-80234373D01*
X78884961Y-80224299D01*
X78884963Y-80224296D01*
X78887626Y-80220457D01*
X78906026Y-80183146D01*
X79004449Y-79983564D01*
X79004450Y-79983561D01*
X79006514Y-79979376D01*
X79008901Y-79971921D01*
X79049376Y-79845475D01*
X79088462Y-79723370D01*
X79105722Y-79617393D01*
X79130919Y-79462674D01*
X79131670Y-79458063D01*
X79134279Y-79258743D01*
X79135127Y-79193961D01*
X79135127Y-79193958D01*
X79135188Y-79189284D01*
X79098940Y-78922937D01*
X79096278Y-78913802D01*
X79056284Y-78776590D01*
X79023722Y-78664874D01*
X79006012Y-78626457D01*
X78987383Y-78586049D01*
X78911185Y-78420763D01*
X78842307Y-78315707D01*
X78766369Y-78199881D01*
X78766365Y-78199876D01*
X78763803Y-78195968D01*
X78597479Y-78009618D01*
X78587929Y-77998918D01*
X78587927Y-77998916D01*
X78584812Y-77995426D01*
X78400351Y-77842012D01*
X78381740Y-77826533D01*
X78381739Y-77826532D01*
X78378146Y-77823544D01*
X78148344Y-77684096D01*
X78144030Y-77682287D01*
X78144026Y-77682285D01*
X77904769Y-77581957D01*
X77900455Y-77580148D01*
X77639923Y-77513981D01*
X77416666Y-77491500D01*
X77256763Y-77491500D01*
X77254438Y-77491673D01*
X77254432Y-77491673D01*
X77061592Y-77506004D01*
X77061591Y-77506004D01*
X77056937Y-77506350D01*
X77052384Y-77507380D01*
X77052379Y-77507381D01*
X76799331Y-77564639D01*
X76799326Y-77564640D01*
X76794763Y-77565673D01*
X76544238Y-77663098D01*
X76310864Y-77796482D01*
X76307198Y-77799372D01*
X76307195Y-77799374D01*
X76279609Y-77821121D01*
X76099769Y-77962895D01*
X75915591Y-78158683D01*
X75762374Y-78379543D01*
X75760307Y-78383733D01*
X75760306Y-78383736D01*
X75656202Y-78594839D01*
X75643486Y-78620624D01*
X75642064Y-78625067D01*
X75642063Y-78625069D01*
X75623887Y-78681851D01*
X75561538Y-78876630D01*
X75560788Y-78881237D01*
X75560787Y-78881240D01*
X75533200Y-79050630D01*
X75518330Y-79141937D01*
X75514812Y-79410716D01*
X74239632Y-79410716D01*
X74234284Y-79390757D01*
X74224538Y-79369857D01*
X74139849Y-79188238D01*
X74139846Y-79188233D01*
X74137523Y-79183251D01*
X74059486Y-79071803D01*
X74009357Y-79000211D01*
X74009355Y-79000208D01*
X74006198Y-78995700D01*
X73844300Y-78833802D01*
X73839792Y-78830645D01*
X73839789Y-78830643D01*
X73757809Y-78773240D01*
X73656749Y-78702477D01*
X73651767Y-78700154D01*
X73651762Y-78700151D01*
X73454225Y-78608039D01*
X73454224Y-78608039D01*
X73449243Y-78605716D01*
X73443936Y-78604294D01*
X73443925Y-78604290D01*
X73358675Y-78581447D01*
X73298053Y-78544496D01*
X73267031Y-78480635D01*
X73275461Y-78410140D01*
X73320664Y-78355394D01*
X73358676Y-78338034D01*
X73443761Y-78315236D01*
X73454053Y-78311490D01*
X73651511Y-78219414D01*
X73661006Y-78213931D01*
X73713048Y-78177491D01*
X73721424Y-78167012D01*
X73714356Y-78153566D01*
X73012812Y-77452022D01*
X72998868Y-77444408D01*
X72997035Y-77444539D01*
X72990420Y-77448790D01*
X72284923Y-78154287D01*
X72278493Y-78166062D01*
X72287789Y-78178077D01*
X72338994Y-78213931D01*
X72348489Y-78219414D01*
X72545947Y-78311490D01*
X72556239Y-78315236D01*
X72641324Y-78338034D01*
X72701947Y-78374986D01*
X72732968Y-78438846D01*
X72724540Y-78509341D01*
X72679337Y-78564088D01*
X72641325Y-78581447D01*
X72556075Y-78604290D01*
X72556064Y-78604294D01*
X72550757Y-78605716D01*
X72545776Y-78608039D01*
X72545775Y-78608039D01*
X72348238Y-78700151D01*
X72348233Y-78700154D01*
X72343251Y-78702477D01*
X72242191Y-78773240D01*
X72160211Y-78830643D01*
X72160208Y-78830645D01*
X72155700Y-78833802D01*
X71993802Y-78995700D01*
X71990645Y-79000208D01*
X71990643Y-79000211D01*
X71940514Y-79071803D01*
X71862477Y-79183251D01*
X71860154Y-79188233D01*
X71860151Y-79188238D01*
X71775462Y-79369857D01*
X71765716Y-79390757D01*
X71706457Y-79611913D01*
X71686502Y-79840000D01*
X70806499Y-79840000D01*
X70793543Y-79691913D01*
X70791406Y-79683938D01*
X70735707Y-79476067D01*
X70735706Y-79476065D01*
X70734284Y-79470757D01*
X70694657Y-79385775D01*
X70639849Y-79268238D01*
X70639846Y-79268233D01*
X70637523Y-79263251D01*
X70506198Y-79075700D01*
X70344300Y-78913802D01*
X70339792Y-78910645D01*
X70339789Y-78910643D01*
X70225537Y-78830643D01*
X70156749Y-78782477D01*
X70151767Y-78780154D01*
X70151762Y-78780151D01*
X69954225Y-78688039D01*
X69954224Y-78688039D01*
X69949243Y-78685716D01*
X69943935Y-78684294D01*
X69943933Y-78684293D01*
X69733402Y-78627881D01*
X69733400Y-78627881D01*
X69728087Y-78626457D01*
X69722611Y-78625978D01*
X69722606Y-78625977D01*
X69717389Y-78625521D01*
X69651271Y-78599658D01*
X69609631Y-78542154D01*
X69605690Y-78471267D01*
X69640699Y-78409503D01*
X69703543Y-78376470D01*
X69717389Y-78374479D01*
X69722606Y-78374023D01*
X69722611Y-78374022D01*
X69728087Y-78373543D01*
X69733400Y-78372119D01*
X69733402Y-78372119D01*
X69943933Y-78315707D01*
X69943935Y-78315706D01*
X69949243Y-78314284D01*
X69955235Y-78311490D01*
X70151762Y-78219849D01*
X70151767Y-78219846D01*
X70156749Y-78217523D01*
X70261611Y-78144098D01*
X70339789Y-78089357D01*
X70339792Y-78089355D01*
X70344300Y-78086198D01*
X70506198Y-77924300D01*
X70517262Y-77908500D01*
X70620403Y-77761199D01*
X70637523Y-77736749D01*
X70639846Y-77731767D01*
X70639849Y-77731762D01*
X70731961Y-77534225D01*
X70731961Y-77534224D01*
X70734284Y-77529243D01*
X70737727Y-77516396D01*
X70792119Y-77313402D01*
X70792119Y-77313400D01*
X70793543Y-77308087D01*
X70813019Y-77085475D01*
X71687483Y-77085475D01*
X71706472Y-77302519D01*
X71708375Y-77313312D01*
X71764764Y-77523761D01*
X71768510Y-77534053D01*
X71860586Y-77731511D01*
X71866069Y-77741006D01*
X71902509Y-77793048D01*
X71912988Y-77801424D01*
X71926434Y-77794356D01*
X72627978Y-77092812D01*
X72634356Y-77081132D01*
X73364408Y-77081132D01*
X73364539Y-77082965D01*
X73368790Y-77089580D01*
X74074287Y-77795077D01*
X74086062Y-77801507D01*
X74098077Y-77792211D01*
X74133931Y-77741006D01*
X74139414Y-77731511D01*
X74231490Y-77534053D01*
X74235236Y-77523761D01*
X74291625Y-77313312D01*
X74293528Y-77302519D01*
X74312517Y-77085475D01*
X74312517Y-77074525D01*
X74293528Y-76857481D01*
X74291625Y-76846688D01*
X74235236Y-76636239D01*
X74231490Y-76625947D01*
X74139414Y-76428489D01*
X74133931Y-76418994D01*
X74097491Y-76366952D01*
X74087012Y-76358576D01*
X74073566Y-76365644D01*
X73372022Y-77067188D01*
X73364408Y-77081132D01*
X72634356Y-77081132D01*
X72635592Y-77078868D01*
X72635461Y-77077035D01*
X72631210Y-77070420D01*
X71925713Y-76364923D01*
X71913938Y-76358493D01*
X71901923Y-76367789D01*
X71866069Y-76418994D01*
X71860586Y-76428489D01*
X71768510Y-76625947D01*
X71764764Y-76636239D01*
X71708375Y-76846688D01*
X71706472Y-76857481D01*
X71687483Y-77074525D01*
X71687483Y-77085475D01*
X70813019Y-77085475D01*
X70813498Y-77080000D01*
X70793543Y-76851913D01*
X70792119Y-76846598D01*
X70735707Y-76636067D01*
X70735706Y-76636065D01*
X70734284Y-76630757D01*
X70709515Y-76577639D01*
X70639849Y-76428238D01*
X70639846Y-76428233D01*
X70637523Y-76423251D01*
X70506198Y-76235700D01*
X70344300Y-76073802D01*
X70339792Y-76070645D01*
X70339789Y-76070643D01*
X70228886Y-75992988D01*
X72278576Y-75992988D01*
X72285644Y-76006434D01*
X72987188Y-76707978D01*
X73001132Y-76715592D01*
X73002965Y-76715461D01*
X73009580Y-76711210D01*
X73715077Y-76005713D01*
X73721507Y-75993938D01*
X73712211Y-75981923D01*
X73661006Y-75946069D01*
X73651511Y-75940586D01*
X73454053Y-75848510D01*
X73443761Y-75844764D01*
X73233312Y-75788375D01*
X73222519Y-75786472D01*
X73005475Y-75767483D01*
X72994525Y-75767483D01*
X72777481Y-75786472D01*
X72766688Y-75788375D01*
X72556239Y-75844764D01*
X72545947Y-75848510D01*
X72348489Y-75940586D01*
X72338994Y-75946069D01*
X72286952Y-75982509D01*
X72278576Y-75992988D01*
X70228886Y-75992988D01*
X70213920Y-75982509D01*
X70156749Y-75942477D01*
X70151767Y-75940154D01*
X70151762Y-75940151D01*
X69954225Y-75848039D01*
X69954224Y-75848039D01*
X69949243Y-75845716D01*
X69943935Y-75844294D01*
X69943933Y-75844293D01*
X69733402Y-75787881D01*
X69733400Y-75787881D01*
X69728087Y-75786457D01*
X69500000Y-75766502D01*
X69271913Y-75786457D01*
X69266600Y-75787881D01*
X69266598Y-75787881D01*
X69056067Y-75844293D01*
X69056065Y-75844294D01*
X69050757Y-75845716D01*
X69045776Y-75848039D01*
X69045775Y-75848039D01*
X68848238Y-75940151D01*
X68848233Y-75940154D01*
X68843251Y-75942477D01*
X68786080Y-75982509D01*
X68660211Y-76070643D01*
X68660208Y-76070645D01*
X68655700Y-76073802D01*
X68493802Y-76235700D01*
X68362477Y-76423251D01*
X68360154Y-76428233D01*
X68360151Y-76428238D01*
X68290485Y-76577639D01*
X68265716Y-76630757D01*
X68264294Y-76636065D01*
X68264293Y-76636067D01*
X68207881Y-76846598D01*
X68206457Y-76851913D01*
X68186502Y-77080000D01*
X68206457Y-77308087D01*
X68207881Y-77313400D01*
X68207881Y-77313402D01*
X68262274Y-77516396D01*
X68265716Y-77529243D01*
X68268039Y-77534224D01*
X68268039Y-77534225D01*
X68360151Y-77731762D01*
X68360154Y-77731767D01*
X68362477Y-77736749D01*
X68379597Y-77761199D01*
X68482739Y-77908500D01*
X68493802Y-77924300D01*
X68655700Y-78086198D01*
X68660208Y-78089355D01*
X68660211Y-78089357D01*
X68738389Y-78144098D01*
X68843251Y-78217523D01*
X68848233Y-78219846D01*
X68848238Y-78219849D01*
X69044765Y-78311490D01*
X69050757Y-78314284D01*
X69056065Y-78315706D01*
X69056067Y-78315707D01*
X69266598Y-78372119D01*
X69266600Y-78372119D01*
X69271913Y-78373543D01*
X69277389Y-78374022D01*
X69277394Y-78374023D01*
X69282611Y-78374479D01*
X69348729Y-78400342D01*
X69390369Y-78457846D01*
X69394310Y-78528733D01*
X69359301Y-78590497D01*
X69296457Y-78623530D01*
X69282611Y-78625521D01*
X69277394Y-78625977D01*
X69277389Y-78625978D01*
X69271913Y-78626457D01*
X69266600Y-78627881D01*
X69266598Y-78627881D01*
X69056067Y-78684293D01*
X69056065Y-78684294D01*
X69050757Y-78685716D01*
X69045776Y-78688039D01*
X69045775Y-78688039D01*
X68848238Y-78780151D01*
X68848233Y-78780154D01*
X68843251Y-78782477D01*
X68774463Y-78830643D01*
X68660211Y-78910643D01*
X68660208Y-78910645D01*
X68655700Y-78913802D01*
X68493802Y-79075700D01*
X68362477Y-79263251D01*
X68360154Y-79268233D01*
X68360151Y-79268238D01*
X68305343Y-79385775D01*
X68265716Y-79470757D01*
X68264294Y-79476065D01*
X68264293Y-79476067D01*
X68208594Y-79683938D01*
X68206457Y-79691913D01*
X68186502Y-79920000D01*
X59008500Y-79920000D01*
X59008500Y-74810716D01*
X75514812Y-74810716D01*
X75551060Y-75077063D01*
X75552368Y-75081549D01*
X75552368Y-75081551D01*
X75564407Y-75122856D01*
X75626278Y-75335126D01*
X75628238Y-75339379D01*
X75628239Y-75339380D01*
X75644808Y-75375321D01*
X75738815Y-75579237D01*
X75741378Y-75583146D01*
X75883631Y-75800119D01*
X75883635Y-75800124D01*
X75886197Y-75804032D01*
X76065188Y-76004574D01*
X76168312Y-76090341D01*
X76224047Y-76136695D01*
X76271854Y-76176456D01*
X76501656Y-76315904D01*
X76505970Y-76317713D01*
X76505974Y-76317715D01*
X76622314Y-76366500D01*
X76749545Y-76419852D01*
X77010077Y-76486019D01*
X77233334Y-76508500D01*
X77393237Y-76508500D01*
X77395562Y-76508327D01*
X77395568Y-76508327D01*
X77588408Y-76493996D01*
X77588409Y-76493996D01*
X77593063Y-76493650D01*
X77597616Y-76492620D01*
X77597621Y-76492619D01*
X77850669Y-76435361D01*
X77850674Y-76435360D01*
X77855237Y-76434327D01*
X78105762Y-76336902D01*
X78339136Y-76203518D01*
X78360337Y-76186805D01*
X78477019Y-76094820D01*
X78550231Y-76037105D01*
X78734409Y-75841317D01*
X78887626Y-75620457D01*
X78907954Y-75579237D01*
X78977561Y-75438087D01*
X79025629Y-75385838D01*
X79094315Y-75367871D01*
X79161811Y-75389890D01*
X79199686Y-75430815D01*
X79222348Y-75470066D01*
X79260960Y-75536944D01*
X79265378Y-75541851D01*
X79265379Y-75541852D01*
X79299041Y-75579237D01*
X79388747Y-75678866D01*
X79410655Y-75694783D01*
X79536833Y-75786457D01*
X79543248Y-75791118D01*
X79549276Y-75793802D01*
X79549278Y-75793803D01*
X79671095Y-75848039D01*
X79717712Y-75868794D01*
X79811112Y-75888647D01*
X79898056Y-75907128D01*
X79898061Y-75907128D01*
X79904513Y-75908500D01*
X80095487Y-75908500D01*
X80101939Y-75907128D01*
X80101944Y-75907128D01*
X80188888Y-75888647D01*
X80282288Y-75868794D01*
X80328905Y-75848039D01*
X80450722Y-75793803D01*
X80450724Y-75793802D01*
X80456752Y-75791118D01*
X80463168Y-75786457D01*
X80589345Y-75694783D01*
X80611253Y-75678866D01*
X80700959Y-75579237D01*
X80734621Y-75541852D01*
X80734622Y-75541851D01*
X80739040Y-75536944D01*
X80834527Y-75371556D01*
X80893542Y-75189928D01*
X80894261Y-75183092D01*
X80912814Y-75006565D01*
X80913504Y-75000000D01*
X80907096Y-74939030D01*
X80894232Y-74816635D01*
X80894232Y-74816633D01*
X80893542Y-74810072D01*
X80834527Y-74628444D01*
X80820379Y-74603938D01*
X80770264Y-74517137D01*
X80739040Y-74463056D01*
X80665863Y-74381785D01*
X80635147Y-74317779D01*
X80633500Y-74297476D01*
X80633500Y-74223626D01*
X80653502Y-74155505D01*
X80707158Y-74109012D01*
X80777432Y-74098908D01*
X80842012Y-74128402D01*
X80853136Y-74139316D01*
X80888747Y-74178866D01*
X80934813Y-74212335D01*
X81024677Y-74277625D01*
X81043248Y-74291118D01*
X81049276Y-74293802D01*
X81049278Y-74293803D01*
X81210531Y-74365597D01*
X81217712Y-74368794D01*
X81311113Y-74388647D01*
X81398056Y-74407128D01*
X81398061Y-74407128D01*
X81404513Y-74408500D01*
X81595487Y-74408500D01*
X81601939Y-74407128D01*
X81601944Y-74407128D01*
X81688887Y-74388647D01*
X81782288Y-74368794D01*
X81789469Y-74365597D01*
X81950722Y-74293803D01*
X81950724Y-74293802D01*
X81956752Y-74291118D01*
X81975324Y-74277625D01*
X82089671Y-74194546D01*
X82111253Y-74178866D01*
X82115668Y-74173963D01*
X82120580Y-74169540D01*
X82121705Y-74170789D01*
X82175014Y-74137949D01*
X82208200Y-74133500D01*
X85921233Y-74133500D01*
X85932416Y-74134027D01*
X85939909Y-74135702D01*
X85947835Y-74135453D01*
X85947836Y-74135453D01*
X86007986Y-74133562D01*
X86011945Y-74133500D01*
X86039856Y-74133500D01*
X86043791Y-74133003D01*
X86043856Y-74132995D01*
X86055693Y-74132062D01*
X86087951Y-74131048D01*
X86091970Y-74130922D01*
X86099889Y-74130673D01*
X86119343Y-74125021D01*
X86138700Y-74121013D01*
X86150930Y-74119468D01*
X86150931Y-74119468D01*
X86158797Y-74118474D01*
X86166168Y-74115555D01*
X86166170Y-74115555D01*
X86199912Y-74102196D01*
X86211142Y-74098351D01*
X86245983Y-74088229D01*
X86245984Y-74088229D01*
X86253593Y-74086018D01*
X86260412Y-74081985D01*
X86260417Y-74081983D01*
X86271028Y-74075707D01*
X86288776Y-74067012D01*
X86307617Y-74059552D01*
X86343387Y-74033564D01*
X86353307Y-74027048D01*
X86384535Y-74008580D01*
X86384538Y-74008578D01*
X86391362Y-74004542D01*
X86405683Y-73990221D01*
X86420717Y-73977380D01*
X86430694Y-73970131D01*
X86437107Y-73965472D01*
X86465298Y-73931395D01*
X86473288Y-73922616D01*
X87225499Y-73170405D01*
X87287811Y-73136379D01*
X87314594Y-73133500D01*
X89051751Y-73133500D01*
X89119872Y-73153502D01*
X89166365Y-73207158D01*
X89176469Y-73277432D01*
X89146975Y-73342012D01*
X89117585Y-73366933D01*
X89010330Y-73432658D01*
X89010327Y-73432660D01*
X89006104Y-73435248D01*
X89002340Y-73438463D01*
X89002337Y-73438465D01*
X88861581Y-73558683D01*
X88819567Y-73594567D01*
X88816359Y-73598323D01*
X88664863Y-73775701D01*
X88660248Y-73781104D01*
X88657660Y-73785327D01*
X88657658Y-73785330D01*
X88636587Y-73819715D01*
X88532073Y-73990268D01*
X88498774Y-74070659D01*
X88453953Y-74178866D01*
X88438195Y-74216908D01*
X88437040Y-74221720D01*
X88385815Y-74435088D01*
X88380928Y-74455443D01*
X88361681Y-74700000D01*
X88380928Y-74944557D01*
X88382082Y-74949364D01*
X88382083Y-74949370D01*
X88411628Y-75072432D01*
X88438195Y-75183092D01*
X88440088Y-75187663D01*
X88440089Y-75187665D01*
X88443627Y-75196206D01*
X88532073Y-75409732D01*
X88589627Y-75503652D01*
X88638341Y-75583146D01*
X88660248Y-75618896D01*
X88663463Y-75622660D01*
X88663465Y-75622663D01*
X88786726Y-75766981D01*
X88819567Y-75805433D01*
X88823323Y-75808641D01*
X88991785Y-75952522D01*
X89006104Y-75964752D01*
X89010327Y-75967340D01*
X89010330Y-75967342D01*
X89071088Y-76004574D01*
X89215268Y-76092927D01*
X89287577Y-76122878D01*
X89290504Y-76124091D01*
X89345785Y-76168640D01*
X89368206Y-76236003D01*
X89350648Y-76304794D01*
X89298685Y-76353173D01*
X89242286Y-76366500D01*
X81708200Y-76366500D01*
X81640079Y-76346498D01*
X81620853Y-76330157D01*
X81620580Y-76330460D01*
X81615668Y-76326037D01*
X81611253Y-76321134D01*
X81505187Y-76244072D01*
X81462094Y-76212763D01*
X81462093Y-76212762D01*
X81456752Y-76208882D01*
X81450724Y-76206198D01*
X81450722Y-76206197D01*
X81288319Y-76133891D01*
X81288318Y-76133891D01*
X81282288Y-76131206D01*
X81188888Y-76111353D01*
X81101944Y-76092872D01*
X81101939Y-76092872D01*
X81095487Y-76091500D01*
X80904513Y-76091500D01*
X80898061Y-76092872D01*
X80898056Y-76092872D01*
X80811112Y-76111353D01*
X80717712Y-76131206D01*
X80711682Y-76133891D01*
X80711681Y-76133891D01*
X80549278Y-76206197D01*
X80549276Y-76206198D01*
X80543248Y-76208882D01*
X80537907Y-76212762D01*
X80537906Y-76212763D01*
X80494813Y-76244072D01*
X80388747Y-76321134D01*
X80384326Y-76326044D01*
X80384325Y-76326045D01*
X80285897Y-76435361D01*
X80260960Y-76463056D01*
X80247432Y-76486488D01*
X80197804Y-76572446D01*
X80165473Y-76628444D01*
X80106458Y-76810072D01*
X80105768Y-76816633D01*
X80105768Y-76816635D01*
X80102060Y-76851913D01*
X80086496Y-77000000D01*
X80106458Y-77189928D01*
X80165473Y-77371556D01*
X80168776Y-77377278D01*
X80168777Y-77377279D01*
X80177316Y-77392069D01*
X80260960Y-77536944D01*
X80265378Y-77541851D01*
X80265379Y-77541852D01*
X80334370Y-77618474D01*
X80388747Y-77678866D01*
X80543248Y-77791118D01*
X80549276Y-77793802D01*
X80549278Y-77793803D01*
X80689881Y-77856403D01*
X80717712Y-77868794D01*
X80782744Y-77882617D01*
X80898056Y-77907128D01*
X80898061Y-77907128D01*
X80904513Y-77908500D01*
X81095487Y-77908500D01*
X81101939Y-77907128D01*
X81101944Y-77907128D01*
X81217256Y-77882617D01*
X81282288Y-77868794D01*
X81310119Y-77856403D01*
X81450722Y-77793803D01*
X81450724Y-77793802D01*
X81456752Y-77791118D01*
X81611253Y-77678866D01*
X81615668Y-77673963D01*
X81620580Y-77669540D01*
X81621705Y-77670789D01*
X81675014Y-77637949D01*
X81708200Y-77633500D01*
X89242286Y-77633500D01*
X89310407Y-77653502D01*
X89356900Y-77707158D01*
X89367004Y-77777432D01*
X89337510Y-77842012D01*
X89290504Y-77875909D01*
X89215268Y-77907073D01*
X89180797Y-77928197D01*
X89010330Y-78032658D01*
X89010327Y-78032660D01*
X89006104Y-78035248D01*
X89002340Y-78038463D01*
X89002337Y-78038465D01*
X88861581Y-78158683D01*
X88819567Y-78194567D01*
X88816359Y-78198323D01*
X88664206Y-78376470D01*
X88660248Y-78381104D01*
X88657660Y-78385327D01*
X88657658Y-78385330D01*
X88635945Y-78420763D01*
X88532073Y-78590268D01*
X88438195Y-78816908D01*
X88437040Y-78821720D01*
X88396207Y-78991803D01*
X88380928Y-79055443D01*
X88361681Y-79300000D01*
X88380928Y-79544557D01*
X88382082Y-79549364D01*
X88382083Y-79549370D01*
X88398414Y-79617393D01*
X88438195Y-79783092D01*
X88532073Y-80009732D01*
X88587151Y-80099612D01*
X88638341Y-80183146D01*
X88660248Y-80218896D01*
X88663463Y-80222660D01*
X88663465Y-80222663D01*
X88792913Y-80374225D01*
X88819567Y-80405433D01*
X88823323Y-80408641D01*
X88988385Y-80549618D01*
X89006104Y-80564752D01*
X89010327Y-80567340D01*
X89010330Y-80567342D01*
X89066059Y-80601492D01*
X89215268Y-80692927D01*
X89359967Y-80752864D01*
X89437335Y-80784911D01*
X89437337Y-80784912D01*
X89441908Y-80786805D01*
X89499477Y-80800626D01*
X89675630Y-80842917D01*
X89675636Y-80842918D01*
X89680443Y-80844072D01*
X89925000Y-80863319D01*
X90169557Y-80844072D01*
X90174364Y-80842918D01*
X90174370Y-80842917D01*
X90350523Y-80800626D01*
X90408092Y-80786805D01*
X90412663Y-80784912D01*
X90412665Y-80784911D01*
X90490033Y-80752864D01*
X90634732Y-80692927D01*
X90783941Y-80601492D01*
X90839670Y-80567342D01*
X90839673Y-80567340D01*
X90843896Y-80564752D01*
X90861616Y-80549618D01*
X91026677Y-80408641D01*
X91030433Y-80405433D01*
X91057087Y-80374225D01*
X91186535Y-80222663D01*
X91186537Y-80222660D01*
X91189752Y-80218896D01*
X91211660Y-80183146D01*
X91262849Y-80099612D01*
X91317927Y-80009732D01*
X91411805Y-79783092D01*
X91451586Y-79617393D01*
X91467917Y-79549370D01*
X91467918Y-79549364D01*
X91469072Y-79544557D01*
X91488319Y-79300000D01*
X91469072Y-79055443D01*
X91453794Y-78991803D01*
X91412960Y-78821720D01*
X91411805Y-78816908D01*
X91317927Y-78590268D01*
X91214055Y-78420763D01*
X91192342Y-78385330D01*
X91192340Y-78385327D01*
X91189752Y-78381104D01*
X91185795Y-78376470D01*
X91033641Y-78198323D01*
X91030433Y-78194567D01*
X90988419Y-78158683D01*
X90847663Y-78038465D01*
X90847660Y-78038463D01*
X90843896Y-78035248D01*
X90839673Y-78032660D01*
X90839670Y-78032658D01*
X90669203Y-77928197D01*
X90634732Y-77907073D01*
X90552741Y-77873111D01*
X90497460Y-77828562D01*
X90475039Y-77761199D01*
X90492597Y-77692408D01*
X90544559Y-77644029D01*
X90584417Y-77633945D01*
X90584135Y-77632163D01*
X90591969Y-77630922D01*
X90599889Y-77630673D01*
X90619343Y-77625021D01*
X90638700Y-77621013D01*
X90650930Y-77619468D01*
X90650931Y-77619468D01*
X90658797Y-77618474D01*
X90666168Y-77615555D01*
X90666170Y-77615555D01*
X90699912Y-77602196D01*
X90711142Y-77598351D01*
X90745983Y-77588229D01*
X90745984Y-77588229D01*
X90753593Y-77586018D01*
X90760412Y-77581985D01*
X90760417Y-77581983D01*
X90771028Y-77575707D01*
X90788776Y-77567012D01*
X90807617Y-77559552D01*
X90815097Y-77554118D01*
X90843387Y-77533564D01*
X90853307Y-77527048D01*
X90884535Y-77508580D01*
X90884538Y-77508578D01*
X90891362Y-77504542D01*
X90905683Y-77490221D01*
X90920717Y-77477380D01*
X90930694Y-77470131D01*
X90937107Y-77465472D01*
X90965298Y-77431395D01*
X90973288Y-77422616D01*
X92892253Y-75503652D01*
X92900539Y-75496112D01*
X92907018Y-75492000D01*
X92953644Y-75442348D01*
X92956398Y-75439507D01*
X92976135Y-75419770D01*
X92978615Y-75416573D01*
X92986320Y-75407551D01*
X93016586Y-75375321D01*
X93020405Y-75368375D01*
X93020407Y-75368372D01*
X93026348Y-75357566D01*
X93037199Y-75341047D01*
X93038492Y-75339380D01*
X93049614Y-75325041D01*
X93052759Y-75317772D01*
X93052762Y-75317768D01*
X93067174Y-75284463D01*
X93072391Y-75273813D01*
X93093695Y-75235060D01*
X93098733Y-75215437D01*
X93105137Y-75196734D01*
X93110033Y-75185420D01*
X93110033Y-75185419D01*
X93113181Y-75178145D01*
X93114420Y-75170322D01*
X93114423Y-75170312D01*
X93120099Y-75134476D01*
X93122505Y-75122856D01*
X93131528Y-75087711D01*
X93131528Y-75087710D01*
X93133500Y-75080030D01*
X93133500Y-75059776D01*
X93135051Y-75040065D01*
X93136980Y-75027886D01*
X93138220Y-75020057D01*
X93134059Y-74976038D01*
X93133500Y-74964181D01*
X93133500Y-73202524D01*
X93153502Y-73134403D01*
X93165858Y-73118221D01*
X93239040Y-73036944D01*
X93314638Y-72906004D01*
X93331223Y-72877279D01*
X93331224Y-72877278D01*
X93334527Y-72871556D01*
X93393542Y-72689928D01*
X93413504Y-72500000D01*
X93401589Y-72386638D01*
X93394232Y-72316635D01*
X93394232Y-72316633D01*
X93393542Y-72310072D01*
X93334527Y-72128444D01*
X93239040Y-71963056D01*
X93222881Y-71945109D01*
X93115675Y-71826045D01*
X93115674Y-71826044D01*
X93111253Y-71821134D01*
X92992125Y-71734582D01*
X92962094Y-71712763D01*
X92962093Y-71712762D01*
X92956752Y-71708882D01*
X92950724Y-71706198D01*
X92950722Y-71706197D01*
X92788319Y-71633891D01*
X92788318Y-71633891D01*
X92782288Y-71631206D01*
X92775836Y-71629835D01*
X92775828Y-71629832D01*
X92773455Y-71629328D01*
X92772215Y-71628659D01*
X92769548Y-71627792D01*
X92769707Y-71627304D01*
X92710982Y-71595597D01*
X92676663Y-71533446D01*
X92681394Y-71462608D01*
X92710561Y-71416987D01*
X93463806Y-70663742D01*
X93526118Y-70629716D01*
X93596933Y-70634781D01*
X93653769Y-70677328D01*
X93678580Y-70743848D01*
X93674318Y-70786507D01*
X93660989Y-70834570D01*
X93637251Y-71056695D01*
X93637548Y-71061848D01*
X93637548Y-71061851D01*
X93649570Y-71270342D01*
X93650110Y-71279715D01*
X93651247Y-71284761D01*
X93651248Y-71284767D01*
X93664597Y-71344000D01*
X93699222Y-71497639D01*
X93748461Y-71618900D01*
X93774040Y-71681894D01*
X93783266Y-71704616D01*
X93824936Y-71772616D01*
X93894430Y-71886019D01*
X93899987Y-71895088D01*
X94046250Y-72063938D01*
X94218126Y-72206632D01*
X94250413Y-72225499D01*
X94291445Y-72249476D01*
X94340169Y-72301114D01*
X94353240Y-72370897D01*
X94326509Y-72436669D01*
X94286055Y-72470027D01*
X94273607Y-72476507D01*
X94269474Y-72479610D01*
X94269471Y-72479612D01*
X94120450Y-72591500D01*
X94094965Y-72610635D01*
X94091393Y-72614373D01*
X93954098Y-72758044D01*
X93940629Y-72772138D01*
X93937720Y-72776403D01*
X93937714Y-72776411D01*
X93877098Y-72865271D01*
X93814743Y-72956680D01*
X93780675Y-73030073D01*
X93723382Y-73153502D01*
X93720688Y-73159305D01*
X93660989Y-73374570D01*
X93637251Y-73596695D01*
X93637548Y-73601848D01*
X93637548Y-73601851D01*
X93648127Y-73785330D01*
X93650110Y-73819715D01*
X93651247Y-73824761D01*
X93651248Y-73824767D01*
X93651303Y-73825009D01*
X93699222Y-74037639D01*
X93783266Y-74244616D01*
X93828100Y-74317779D01*
X93897291Y-74430688D01*
X93899987Y-74435088D01*
X94046250Y-74603938D01*
X94218126Y-74746632D01*
X94229924Y-74753526D01*
X94291955Y-74789774D01*
X94340679Y-74841412D01*
X94353750Y-74911195D01*
X94327019Y-74976967D01*
X94286562Y-75010327D01*
X94278457Y-75014546D01*
X94269738Y-75020036D01*
X94099433Y-75147905D01*
X94091726Y-75154748D01*
X93944590Y-75308717D01*
X93938104Y-75316727D01*
X93818098Y-75492649D01*
X93813000Y-75501623D01*
X93723338Y-75694783D01*
X93719775Y-75704470D01*
X93664389Y-75904183D01*
X93665912Y-75912607D01*
X93678292Y-75916000D01*
X95128000Y-75916000D01*
X95196121Y-75936002D01*
X95242614Y-75989658D01*
X95254000Y-76042000D01*
X95254000Y-76298000D01*
X95233998Y-76366121D01*
X95180342Y-76412614D01*
X95128000Y-76424000D01*
X93683225Y-76424000D01*
X93669694Y-76427973D01*
X93668257Y-76437966D01*
X93698565Y-76572446D01*
X93701645Y-76582275D01*
X93781770Y-76779603D01*
X93786413Y-76788794D01*
X93897694Y-76970388D01*
X93903777Y-76978699D01*
X94043213Y-77139667D01*
X94050580Y-77146883D01*
X94214434Y-77282916D01*
X94222881Y-77288831D01*
X94291969Y-77329203D01*
X94340693Y-77380842D01*
X94353764Y-77450625D01*
X94327033Y-77516396D01*
X94286584Y-77549752D01*
X94273607Y-77556507D01*
X94269474Y-77559610D01*
X94269471Y-77559612D01*
X94105468Y-77682749D01*
X94094965Y-77690635D01*
X94029346Y-77759301D01*
X93950306Y-77842012D01*
X93940629Y-77852138D01*
X93937720Y-77856403D01*
X93937714Y-77856411D01*
X93922798Y-77878277D01*
X93814743Y-78036680D01*
X93799003Y-78070590D01*
X93741455Y-78194567D01*
X93720688Y-78239305D01*
X93660989Y-78454570D01*
X93637251Y-78676695D01*
X93637548Y-78681848D01*
X93637548Y-78681851D01*
X93646534Y-78837699D01*
X93650110Y-78899715D01*
X93651247Y-78904761D01*
X93651248Y-78904767D01*
X93655343Y-78922937D01*
X93699222Y-79117639D01*
X93737461Y-79211811D01*
X93773271Y-79300000D01*
X93783266Y-79324616D01*
X93820744Y-79385775D01*
X93897291Y-79510688D01*
X93899987Y-79515088D01*
X94046250Y-79683938D01*
X94218126Y-79826632D01*
X94241003Y-79840000D01*
X94291445Y-79869476D01*
X94340169Y-79921114D01*
X94353240Y-79990897D01*
X94326509Y-80056669D01*
X94286055Y-80090027D01*
X94273607Y-80096507D01*
X94269474Y-80099610D01*
X94269471Y-80099612D01*
X94099100Y-80227530D01*
X94094965Y-80230635D01*
X93940629Y-80392138D01*
X93937720Y-80396403D01*
X93937714Y-80396411D01*
X93872670Y-80491762D01*
X93814743Y-80576680D01*
X93800406Y-80607567D01*
X93761984Y-80690341D01*
X93720688Y-80779305D01*
X93660989Y-80994570D01*
X93637251Y-81216695D01*
X93637548Y-81221848D01*
X93637548Y-81221851D01*
X93643011Y-81316590D01*
X93650110Y-81439715D01*
X93651247Y-81444761D01*
X93651248Y-81444767D01*
X93671119Y-81532939D01*
X93699222Y-81657639D01*
X93783266Y-81864616D01*
X93834019Y-81947438D01*
X93897291Y-82050688D01*
X93899987Y-82055088D01*
X94046250Y-82223938D01*
X94218126Y-82366632D01*
X94284780Y-82405581D01*
X94291445Y-82409476D01*
X94340169Y-82461114D01*
X94353240Y-82530897D01*
X94326509Y-82596669D01*
X94286055Y-82630027D01*
X94273607Y-82636507D01*
X94269474Y-82639610D01*
X94269471Y-82639612D01*
X94099100Y-82767530D01*
X94094965Y-82770635D01*
X93940629Y-82932138D01*
X93937715Y-82936410D01*
X93937714Y-82936411D01*
X93905431Y-82983736D01*
X93814743Y-83116680D01*
X93798899Y-83150814D01*
X93743866Y-83269373D01*
X93720688Y-83319305D01*
X93660989Y-83534570D01*
X93637251Y-83756695D01*
X93637548Y-83761848D01*
X93637548Y-83761851D01*
X93643011Y-83856590D01*
X93650110Y-83979715D01*
X93651247Y-83984761D01*
X93651248Y-83984767D01*
X93664597Y-84044000D01*
X93699222Y-84197639D01*
X93783266Y-84404616D01*
X93785965Y-84409020D01*
X93890359Y-84579376D01*
X93899987Y-84595088D01*
X94046250Y-84763938D01*
X94218126Y-84906632D01*
X94288595Y-84947811D01*
X94291445Y-84949476D01*
X94340169Y-85001114D01*
X94353240Y-85070897D01*
X94326509Y-85136669D01*
X94286055Y-85170027D01*
X94273607Y-85176507D01*
X94269474Y-85179610D01*
X94269471Y-85179612D01*
X94104939Y-85303146D01*
X94094965Y-85310635D01*
X94091393Y-85314373D01*
X94008968Y-85400626D01*
X93940629Y-85472138D01*
X93937720Y-85476403D01*
X93937714Y-85476411D01*
X93825095Y-85641504D01*
X93770184Y-85686507D01*
X93721007Y-85696500D01*
X93248767Y-85696500D01*
X93237584Y-85695973D01*
X93230091Y-85694298D01*
X93222165Y-85694547D01*
X93222164Y-85694547D01*
X93162014Y-85696438D01*
X93158055Y-85696500D01*
X93130144Y-85696500D01*
X93126210Y-85696997D01*
X93126209Y-85696997D01*
X93126144Y-85697005D01*
X93114307Y-85697938D01*
X93082490Y-85698938D01*
X93078029Y-85699078D01*
X93070110Y-85699327D01*
X93052454Y-85704456D01*
X93050658Y-85704978D01*
X93031306Y-85708986D01*
X93024235Y-85709880D01*
X93011203Y-85711526D01*
X93003834Y-85714443D01*
X93003832Y-85714444D01*
X92970097Y-85727800D01*
X92958869Y-85731645D01*
X92916407Y-85743982D01*
X92909585Y-85748016D01*
X92909579Y-85748019D01*
X92898968Y-85754294D01*
X92881218Y-85762990D01*
X92869756Y-85767528D01*
X92869751Y-85767531D01*
X92862383Y-85770448D01*
X92855968Y-85775109D01*
X92826625Y-85796427D01*
X92816707Y-85802943D01*
X92798019Y-85813995D01*
X92778637Y-85825458D01*
X92764313Y-85839782D01*
X92749281Y-85852621D01*
X92732893Y-85864528D01*
X92715168Y-85885954D01*
X92704712Y-85898593D01*
X92696722Y-85907373D01*
X92607747Y-85996348D01*
X92599461Y-86003888D01*
X92592982Y-86008000D01*
X92587557Y-86013777D01*
X92546357Y-86057651D01*
X92543602Y-86060493D01*
X92523865Y-86080230D01*
X92521385Y-86083427D01*
X92513682Y-86092447D01*
X92483414Y-86124679D01*
X92479595Y-86131625D01*
X92479593Y-86131628D01*
X92473652Y-86142434D01*
X92462801Y-86158953D01*
X92450386Y-86174959D01*
X92447241Y-86182228D01*
X92447238Y-86182232D01*
X92432826Y-86215537D01*
X92427609Y-86226187D01*
X92406305Y-86264940D01*
X92404334Y-86272615D01*
X92404334Y-86272616D01*
X92401267Y-86284562D01*
X92394863Y-86303266D01*
X92386819Y-86321855D01*
X92385580Y-86329678D01*
X92385577Y-86329688D01*
X92379901Y-86365524D01*
X92377495Y-86377144D01*
X92366500Y-86419970D01*
X92366500Y-86440224D01*
X92364949Y-86459934D01*
X92361780Y-86479943D01*
X92362526Y-86487835D01*
X92365941Y-86523961D01*
X92366500Y-86535819D01*
X92366500Y-90685406D01*
X92346498Y-90753527D01*
X92329595Y-90774501D01*
X91798595Y-91305501D01*
X91736283Y-91339527D01*
X91665468Y-91334462D01*
X91608632Y-91291915D01*
X91583821Y-91225395D01*
X91583500Y-91216406D01*
X91583500Y-89851866D01*
X91582938Y-89846688D01*
X91578433Y-89805222D01*
X91576745Y-89789684D01*
X91525615Y-89653295D01*
X91438261Y-89536739D01*
X91321705Y-89449385D01*
X91185316Y-89398255D01*
X91123134Y-89391500D01*
X89426866Y-89391500D01*
X89364684Y-89398255D01*
X89228295Y-89449385D01*
X89111739Y-89536739D01*
X89024385Y-89653295D01*
X88973255Y-89789684D01*
X88972001Y-89801229D01*
X88970887Y-89803910D01*
X88970575Y-89805222D01*
X88970363Y-89805172D01*
X88944762Y-89866790D01*
X88886401Y-89907218D01*
X88815447Y-89909677D01*
X88754428Y-89873384D01*
X88745853Y-89862775D01*
X88736916Y-89852125D01*
X88582875Y-89698084D01*
X88574467Y-89691028D01*
X88396007Y-89566069D01*
X88386511Y-89560586D01*
X88189053Y-89468510D01*
X88178761Y-89464764D01*
X88006497Y-89418606D01*
X87992401Y-89418942D01*
X87989000Y-89426884D01*
X87989000Y-91967967D01*
X87992973Y-91981498D01*
X88001522Y-91982727D01*
X88178761Y-91935236D01*
X88189053Y-91931490D01*
X88386511Y-91839414D01*
X88396007Y-91833931D01*
X88574467Y-91708972D01*
X88582875Y-91701916D01*
X88736916Y-91547875D01*
X88747507Y-91535254D01*
X88748525Y-91536108D01*
X88798984Y-91495776D01*
X88869603Y-91488468D01*
X88932963Y-91520500D01*
X88968947Y-91581702D01*
X88972000Y-91598762D01*
X88973255Y-91610316D01*
X89024385Y-91746705D01*
X89111739Y-91863261D01*
X89228295Y-91950615D01*
X89364684Y-92001745D01*
X89426866Y-92008500D01*
X90791405Y-92008500D01*
X90859526Y-92028502D01*
X90906019Y-92082158D01*
X90916123Y-92152432D01*
X90886629Y-92217012D01*
X90880500Y-92223595D01*
X89882747Y-93221348D01*
X89874461Y-93228888D01*
X89867982Y-93233000D01*
X89862557Y-93238777D01*
X89821357Y-93282651D01*
X89818602Y-93285493D01*
X89798865Y-93305230D01*
X89796385Y-93308427D01*
X89788682Y-93317447D01*
X89758414Y-93349679D01*
X89754595Y-93356625D01*
X89754593Y-93356628D01*
X89748652Y-93367434D01*
X89737801Y-93383953D01*
X89725386Y-93399959D01*
X89722241Y-93407228D01*
X89722238Y-93407232D01*
X89707826Y-93440537D01*
X89702609Y-93451187D01*
X89681305Y-93489940D01*
X89679334Y-93497615D01*
X89679334Y-93497616D01*
X89676267Y-93509562D01*
X89669863Y-93528266D01*
X89661819Y-93546855D01*
X89660580Y-93554678D01*
X89660577Y-93554688D01*
X89654901Y-93590524D01*
X89652495Y-93602144D01*
X89641500Y-93644970D01*
X89641500Y-93665224D01*
X89639949Y-93684934D01*
X89636780Y-93704943D01*
X89637526Y-93712835D01*
X89640941Y-93748961D01*
X89641500Y-93760819D01*
X89641500Y-97100606D01*
X89621498Y-97168727D01*
X89587771Y-97203819D01*
X89435211Y-97310643D01*
X89435208Y-97310645D01*
X89430700Y-97313802D01*
X89268802Y-97475700D01*
X89265645Y-97480208D01*
X89265643Y-97480211D01*
X89251787Y-97500000D01*
X89137477Y-97663251D01*
X89135154Y-97668233D01*
X89135151Y-97668238D01*
X89119195Y-97702457D01*
X89072278Y-97755742D01*
X89004001Y-97775203D01*
X88936041Y-97754661D01*
X88890805Y-97702457D01*
X88874849Y-97668238D01*
X88874846Y-97668233D01*
X88872523Y-97663251D01*
X88758213Y-97500000D01*
X88744357Y-97480211D01*
X88744355Y-97480208D01*
X88741198Y-97475700D01*
X88579300Y-97313802D01*
X88574792Y-97310645D01*
X88574789Y-97310643D01*
X88422228Y-97203819D01*
X88391749Y-97182477D01*
X88386767Y-97180154D01*
X88386762Y-97180151D01*
X88189225Y-97088039D01*
X88189224Y-97088039D01*
X88184243Y-97085716D01*
X88178935Y-97084294D01*
X88178933Y-97084293D01*
X87968402Y-97027881D01*
X87968400Y-97027881D01*
X87963087Y-97026457D01*
X87735000Y-97006502D01*
X87506913Y-97026457D01*
X87501600Y-97027881D01*
X87501598Y-97027881D01*
X87291067Y-97084293D01*
X87291065Y-97084294D01*
X87285757Y-97085716D01*
X87280776Y-97088039D01*
X87280775Y-97088039D01*
X87083238Y-97180151D01*
X87083233Y-97180154D01*
X87078251Y-97182477D01*
X87047772Y-97203819D01*
X86895211Y-97310643D01*
X86895208Y-97310645D01*
X86890700Y-97313802D01*
X86728802Y-97475700D01*
X86725645Y-97480208D01*
X86725643Y-97480211D01*
X86711787Y-97500000D01*
X86597477Y-97663251D01*
X86595154Y-97668233D01*
X86595151Y-97668238D01*
X86503615Y-97864539D01*
X86500716Y-97870757D01*
X86499294Y-97876065D01*
X86499293Y-97876067D01*
X86462835Y-98012131D01*
X86441457Y-98091913D01*
X86421502Y-98320000D01*
X86441457Y-98548087D01*
X86442881Y-98553400D01*
X86442881Y-98553402D01*
X86464576Y-98634366D01*
X86500716Y-98769243D01*
X86503039Y-98774224D01*
X86503039Y-98774225D01*
X86595151Y-98971762D01*
X86595154Y-98971767D01*
X86597477Y-98976749D01*
X86728802Y-99164300D01*
X86890700Y-99326198D01*
X86895208Y-99329355D01*
X86895211Y-99329357D01*
X86973389Y-99384098D01*
X87078251Y-99457523D01*
X87083233Y-99459846D01*
X87083238Y-99459849D01*
X87226939Y-99526857D01*
X87285757Y-99554284D01*
X87291065Y-99555706D01*
X87291067Y-99555707D01*
X87501598Y-99612119D01*
X87501600Y-99612119D01*
X87506913Y-99613543D01*
X87735000Y-99633498D01*
X87963087Y-99613543D01*
X87968400Y-99612119D01*
X87968402Y-99612119D01*
X88178933Y-99555707D01*
X88178935Y-99555706D01*
X88184243Y-99554284D01*
X88243061Y-99526857D01*
X88386762Y-99459849D01*
X88386767Y-99459846D01*
X88391749Y-99457523D01*
X88496611Y-99384098D01*
X88574789Y-99329357D01*
X88574792Y-99329355D01*
X88579300Y-99326198D01*
X88741198Y-99164300D01*
X88872523Y-98976749D01*
X88874846Y-98971767D01*
X88874849Y-98971762D01*
X88890805Y-98937543D01*
X88937722Y-98884258D01*
X89005999Y-98864797D01*
X89073959Y-98885339D01*
X89119195Y-98937543D01*
X89135151Y-98971762D01*
X89135154Y-98971767D01*
X89137477Y-98976749D01*
X89268802Y-99164300D01*
X89430700Y-99326198D01*
X89435208Y-99329355D01*
X89435211Y-99329357D01*
X89513389Y-99384098D01*
X89618251Y-99457523D01*
X89623233Y-99459846D01*
X89623238Y-99459849D01*
X89766939Y-99526857D01*
X89825757Y-99554284D01*
X89831065Y-99555706D01*
X89831067Y-99555707D01*
X90041598Y-99612119D01*
X90041600Y-99612119D01*
X90046913Y-99613543D01*
X90275000Y-99633498D01*
X90503087Y-99613543D01*
X90508400Y-99612119D01*
X90508402Y-99612119D01*
X90718933Y-99555707D01*
X90718935Y-99555706D01*
X90724243Y-99554284D01*
X90783061Y-99526857D01*
X90926762Y-99459849D01*
X90926767Y-99459846D01*
X90931749Y-99457523D01*
X91036611Y-99384098D01*
X91114789Y-99329357D01*
X91114792Y-99329355D01*
X91119300Y-99326198D01*
X91281198Y-99164300D01*
X91412523Y-98976749D01*
X91414846Y-98971767D01*
X91414849Y-98971762D01*
X91506961Y-98774225D01*
X91506961Y-98774224D01*
X91509284Y-98769243D01*
X91545425Y-98634366D01*
X91567119Y-98553402D01*
X91567119Y-98553400D01*
X91568543Y-98548087D01*
X91588498Y-98320000D01*
X91568543Y-98091913D01*
X91547165Y-98012131D01*
X91510707Y-97876067D01*
X91510706Y-97876065D01*
X91509284Y-97870757D01*
X91506385Y-97864539D01*
X91414849Y-97668238D01*
X91414846Y-97668233D01*
X91412523Y-97663251D01*
X91298213Y-97500000D01*
X91284357Y-97480211D01*
X91284355Y-97480208D01*
X91281198Y-97475700D01*
X91119300Y-97313802D01*
X91114792Y-97310645D01*
X91114789Y-97310643D01*
X90962229Y-97203819D01*
X90917901Y-97148362D01*
X90908500Y-97100606D01*
X90908500Y-94039594D01*
X90928502Y-93971473D01*
X90945405Y-93950499D01*
X92154541Y-92741364D01*
X93392253Y-91503652D01*
X93400539Y-91496112D01*
X93407018Y-91492000D01*
X93429437Y-91468126D01*
X93490649Y-91432161D01*
X93561589Y-91434998D01*
X93619733Y-91475739D01*
X93647078Y-91547127D01*
X93650110Y-91599715D01*
X93651247Y-91604761D01*
X93651248Y-91604767D01*
X93664597Y-91664000D01*
X93699222Y-91817639D01*
X93745452Y-91931490D01*
X93765716Y-91981394D01*
X93783266Y-92024616D01*
X93785965Y-92029020D01*
X93895571Y-92207881D01*
X93899987Y-92215088D01*
X94046250Y-92383938D01*
X94218126Y-92526632D01*
X94288595Y-92567811D01*
X94291445Y-92569476D01*
X94340169Y-92621114D01*
X94353240Y-92690897D01*
X94326509Y-92756669D01*
X94286055Y-92790027D01*
X94273607Y-92796507D01*
X94269474Y-92799610D01*
X94269471Y-92799612D01*
X94204373Y-92848489D01*
X94094965Y-92930635D01*
X94091393Y-92934373D01*
X93984935Y-93045775D01*
X93940629Y-93092138D01*
X93937720Y-93096403D01*
X93937714Y-93096411D01*
X93913976Y-93131210D01*
X93814743Y-93276680D01*
X93799003Y-93310590D01*
X93736153Y-93445989D01*
X93720688Y-93479305D01*
X93660989Y-93694570D01*
X93637251Y-93916695D01*
X93637548Y-93921848D01*
X93637548Y-93921851D01*
X93643011Y-94016590D01*
X93650110Y-94139715D01*
X93651247Y-94144761D01*
X93651248Y-94144767D01*
X93666931Y-94214356D01*
X93699222Y-94357639D01*
X93783266Y-94564616D01*
X93825742Y-94633931D01*
X93897291Y-94750688D01*
X93899987Y-94755088D01*
X94046250Y-94923938D01*
X94218126Y-95066632D01*
X94291445Y-95109476D01*
X94291955Y-95109774D01*
X94340679Y-95161412D01*
X94353750Y-95231195D01*
X94327019Y-95296967D01*
X94286562Y-95330327D01*
X94278457Y-95334546D01*
X94269738Y-95340036D01*
X94099433Y-95467905D01*
X94091726Y-95474748D01*
X93944590Y-95628717D01*
X93938104Y-95636727D01*
X93818098Y-95812649D01*
X93813000Y-95821623D01*
X93723338Y-96014783D01*
X93719775Y-96024470D01*
X93664389Y-96224183D01*
X93665912Y-96232607D01*
X93678292Y-96236000D01*
X95128000Y-96236000D01*
X95196121Y-96256002D01*
X95242614Y-96309658D01*
X95254000Y-96362000D01*
X95254000Y-96618000D01*
X95233998Y-96686121D01*
X95180342Y-96732614D01*
X95128000Y-96744000D01*
X93683225Y-96744000D01*
X93669694Y-96747973D01*
X93668257Y-96757966D01*
X93698565Y-96892446D01*
X93701645Y-96902275D01*
X93781770Y-97099603D01*
X93786413Y-97108794D01*
X93897694Y-97290388D01*
X93903777Y-97298699D01*
X94043213Y-97459667D01*
X94050580Y-97466883D01*
X94214434Y-97602916D01*
X94222881Y-97608831D01*
X94291969Y-97649203D01*
X94340693Y-97700842D01*
X94353764Y-97770625D01*
X94327033Y-97836396D01*
X94286584Y-97869752D01*
X94273607Y-97876507D01*
X94269474Y-97879610D01*
X94269471Y-97879612D01*
X94099100Y-98007530D01*
X94094965Y-98010635D01*
X93940629Y-98172138D01*
X93814743Y-98356680D01*
X93720688Y-98559305D01*
X93660989Y-98774570D01*
X93637251Y-98996695D01*
X93637548Y-99001848D01*
X93637548Y-99001851D01*
X93649812Y-99214547D01*
X93650110Y-99219715D01*
X93651247Y-99224761D01*
X93651248Y-99224767D01*
X93671119Y-99312939D01*
X93699222Y-99437639D01*
X93783266Y-99644616D01*
X93834019Y-99727438D01*
X93897291Y-99830688D01*
X93899987Y-99835088D01*
X94046250Y-100003938D01*
X94218126Y-100146632D01*
X94288595Y-100187811D01*
X94291445Y-100189476D01*
X94340169Y-100241114D01*
X94353240Y-100310897D01*
X94326509Y-100376669D01*
X94286055Y-100410027D01*
X94273607Y-100416507D01*
X94269474Y-100419610D01*
X94269471Y-100419612D01*
X94245247Y-100437800D01*
X94094965Y-100550635D01*
X93940629Y-100712138D01*
X93814743Y-100896680D01*
X93720688Y-101099305D01*
X93660989Y-101314570D01*
X93637251Y-101536695D01*
X93650110Y-101759715D01*
X93651247Y-101764761D01*
X93651248Y-101764767D01*
X93668555Y-101841562D01*
X93699222Y-101977639D01*
X93759705Y-102126592D01*
X93779101Y-102174358D01*
X93783266Y-102184616D01*
X93785965Y-102189020D01*
X93884619Y-102350009D01*
X93899987Y-102375088D01*
X94046250Y-102543938D01*
X94218126Y-102686632D01*
X94288595Y-102727811D01*
X94291445Y-102729476D01*
X94340169Y-102781114D01*
X94353240Y-102850897D01*
X94326509Y-102916669D01*
X94286055Y-102950027D01*
X94273607Y-102956507D01*
X94269474Y-102959610D01*
X94269471Y-102959612D01*
X94099100Y-103087530D01*
X94094965Y-103090635D01*
X93940629Y-103252138D01*
X93937720Y-103256403D01*
X93937714Y-103256411D01*
X93925404Y-103274457D01*
X93814743Y-103436680D01*
X93720688Y-103639305D01*
X93660989Y-103854570D01*
X93637251Y-104076695D01*
X93637548Y-104081848D01*
X93637548Y-104081851D01*
X93646463Y-104236464D01*
X93650110Y-104299715D01*
X93651247Y-104304761D01*
X93651248Y-104304767D01*
X93671119Y-104392939D01*
X93699222Y-104517639D01*
X93783266Y-104724616D01*
X93834019Y-104807438D01*
X93897291Y-104910688D01*
X93899987Y-104915088D01*
X94046250Y-105083938D01*
X94050230Y-105087242D01*
X94054981Y-105091187D01*
X94094616Y-105150090D01*
X94096113Y-105221071D01*
X94058997Y-105281593D01*
X94018725Y-105306112D01*
X93930095Y-105339338D01*
X93903295Y-105349385D01*
X93786739Y-105436739D01*
X93699385Y-105553295D01*
X93648255Y-105689684D01*
X93641500Y-105751866D01*
X93641500Y-107548134D01*
X93648255Y-107610316D01*
X93699385Y-107746705D01*
X93786739Y-107863261D01*
X93903295Y-107950615D01*
X94039684Y-108001745D01*
X94101866Y-108008500D01*
X95898134Y-108008500D01*
X95960316Y-108001745D01*
X96096705Y-107950615D01*
X96213261Y-107863261D01*
X96300615Y-107746705D01*
X96322799Y-107687529D01*
X96344598Y-107629382D01*
X96387240Y-107572618D01*
X96453802Y-107547918D01*
X96523150Y-107563126D01*
X96557817Y-107591114D01*
X96586250Y-107623938D01*
X96758126Y-107766632D01*
X96951000Y-107879338D01*
X97159692Y-107959030D01*
X97164760Y-107960061D01*
X97164763Y-107960062D01*
X97272017Y-107981883D01*
X97378597Y-108003567D01*
X97383772Y-108003757D01*
X97383774Y-108003757D01*
X97596673Y-108011564D01*
X97596677Y-108011564D01*
X97601837Y-108011753D01*
X97606957Y-108011097D01*
X97606959Y-108011097D01*
X97818288Y-107984025D01*
X97818289Y-107984025D01*
X97823416Y-107983368D01*
X97828366Y-107981883D01*
X98032429Y-107920661D01*
X98032434Y-107920659D01*
X98037384Y-107919174D01*
X98237994Y-107820896D01*
X98419860Y-107691173D01*
X98578096Y-107533489D01*
X98708453Y-107352077D01*
X98807430Y-107151811D01*
X98872370Y-106938069D01*
X98901529Y-106716590D01*
X98903156Y-106650000D01*
X98884852Y-106427361D01*
X98830431Y-106210702D01*
X98741354Y-106005840D01*
X98620014Y-105818277D01*
X98469670Y-105653051D01*
X98465619Y-105649852D01*
X98465615Y-105649848D01*
X98298414Y-105517800D01*
X98298410Y-105517798D01*
X98294359Y-105514598D01*
X98253053Y-105491796D01*
X98203084Y-105441364D01*
X98188312Y-105371921D01*
X98213428Y-105305516D01*
X98240780Y-105278909D01*
X98284603Y-105247650D01*
X98419860Y-105151173D01*
X98578096Y-104993489D01*
X98637594Y-104910689D01*
X98705435Y-104816277D01*
X98708453Y-104812077D01*
X98729320Y-104769857D01*
X98805136Y-104616453D01*
X98805137Y-104616451D01*
X98807430Y-104611811D01*
X98848498Y-104476642D01*
X98870865Y-104403023D01*
X98870865Y-104403021D01*
X98872370Y-104398069D01*
X98901529Y-104176590D01*
X98902814Y-104124005D01*
X98903074Y-104113365D01*
X98903074Y-104113361D01*
X98903156Y-104110000D01*
X98884852Y-103887361D01*
X98830431Y-103670702D01*
X98741354Y-103465840D01*
X98620014Y-103278277D01*
X98469670Y-103113051D01*
X98465619Y-103109852D01*
X98465615Y-103109848D01*
X98298414Y-102977800D01*
X98298410Y-102977798D01*
X98294359Y-102974598D01*
X98252569Y-102951529D01*
X98202598Y-102901097D01*
X98187826Y-102831654D01*
X98212942Y-102765248D01*
X98240294Y-102738641D01*
X98415328Y-102613792D01*
X98423200Y-102607139D01*
X98574052Y-102456812D01*
X98580730Y-102448965D01*
X98705003Y-102276020D01*
X98710313Y-102267183D01*
X98804670Y-102076267D01*
X98808469Y-102066672D01*
X98870377Y-101862910D01*
X98872555Y-101852837D01*
X98873986Y-101841962D01*
X98871775Y-101827778D01*
X98858617Y-101824000D01*
X97412000Y-101824000D01*
X97343879Y-101803998D01*
X97297386Y-101750342D01*
X97286000Y-101698000D01*
X97286000Y-101442000D01*
X97306002Y-101373879D01*
X97359658Y-101327386D01*
X97412000Y-101316000D01*
X98858344Y-101316000D01*
X98871875Y-101312027D01*
X98873180Y-101302947D01*
X98831214Y-101135875D01*
X98827894Y-101126124D01*
X98742972Y-100930814D01*
X98738105Y-100921739D01*
X98622426Y-100742926D01*
X98616136Y-100734757D01*
X98472806Y-100577240D01*
X98465273Y-100570215D01*
X98298139Y-100438222D01*
X98289556Y-100432520D01*
X98252602Y-100412120D01*
X98202631Y-100361687D01*
X98187859Y-100292245D01*
X98212975Y-100225839D01*
X98240327Y-100199232D01*
X98263797Y-100182491D01*
X98419860Y-100071173D01*
X98578096Y-99913489D01*
X98637594Y-99830689D01*
X98705435Y-99736277D01*
X98708453Y-99732077D01*
X98729320Y-99689857D01*
X98805136Y-99536453D01*
X98805137Y-99536451D01*
X98807430Y-99531811D01*
X98839900Y-99424940D01*
X98870865Y-99323023D01*
X98870865Y-99323021D01*
X98872370Y-99318069D01*
X98901529Y-99096590D01*
X98903156Y-99030000D01*
X98884852Y-98807361D01*
X98830431Y-98590702D01*
X98741354Y-98385840D01*
X98635042Y-98221507D01*
X98622822Y-98202617D01*
X98622820Y-98202614D01*
X98620014Y-98198277D01*
X98469670Y-98033051D01*
X98465619Y-98029852D01*
X98465615Y-98029848D01*
X98298414Y-97897800D01*
X98298410Y-97897798D01*
X98294359Y-97894598D01*
X98253053Y-97871796D01*
X98203084Y-97821364D01*
X98188312Y-97751921D01*
X98213428Y-97685516D01*
X98240780Y-97658909D01*
X98304043Y-97613784D01*
X98419860Y-97531173D01*
X98427407Y-97523653D01*
X98574435Y-97377137D01*
X98578096Y-97373489D01*
X98708453Y-97192077D01*
X98711638Y-97185634D01*
X98805136Y-96996453D01*
X98805137Y-96996451D01*
X98807430Y-96991811D01*
X98872370Y-96778069D01*
X98901529Y-96556590D01*
X98903156Y-96490000D01*
X98884852Y-96267361D01*
X98830431Y-96050702D01*
X98741354Y-95845840D01*
X98687856Y-95763144D01*
X98622822Y-95662617D01*
X98622820Y-95662614D01*
X98620014Y-95658277D01*
X98469670Y-95493051D01*
X98465619Y-95489852D01*
X98465615Y-95489848D01*
X98298414Y-95357800D01*
X98298410Y-95357798D01*
X98294359Y-95354598D01*
X98253053Y-95331796D01*
X98203084Y-95281364D01*
X98188312Y-95211921D01*
X98213428Y-95145516D01*
X98240780Y-95118909D01*
X98284603Y-95087650D01*
X98419860Y-94991173D01*
X98578096Y-94833489D01*
X98637594Y-94750689D01*
X98705435Y-94656277D01*
X98708453Y-94652077D01*
X98714497Y-94639849D01*
X98805136Y-94456453D01*
X98805137Y-94456451D01*
X98807430Y-94451811D01*
X98872370Y-94238069D01*
X98901529Y-94016590D01*
X98902242Y-93987404D01*
X98903074Y-93953365D01*
X98903074Y-93953361D01*
X98903156Y-93950000D01*
X98884852Y-93727361D01*
X98830431Y-93510702D01*
X98741354Y-93305840D01*
X98620014Y-93118277D01*
X98469670Y-92953051D01*
X98465619Y-92949852D01*
X98465615Y-92949848D01*
X98298414Y-92817800D01*
X98298410Y-92817798D01*
X98294359Y-92814598D01*
X98252569Y-92791529D01*
X98202598Y-92741097D01*
X98187826Y-92671654D01*
X98212942Y-92605248D01*
X98240294Y-92578641D01*
X98415328Y-92453792D01*
X98423200Y-92447139D01*
X98574052Y-92296812D01*
X98580730Y-92288965D01*
X98705003Y-92116020D01*
X98710313Y-92107183D01*
X98804670Y-91916267D01*
X98808469Y-91906672D01*
X98870377Y-91702910D01*
X98872555Y-91692837D01*
X98873986Y-91681962D01*
X98871775Y-91667778D01*
X98858617Y-91664000D01*
X97412000Y-91664000D01*
X97343879Y-91643998D01*
X97297386Y-91590342D01*
X97286000Y-91538000D01*
X97286000Y-91282000D01*
X97306002Y-91213879D01*
X97359658Y-91167386D01*
X97412000Y-91156000D01*
X98858344Y-91156000D01*
X98871875Y-91152027D01*
X98873180Y-91142947D01*
X98831214Y-90975875D01*
X98827894Y-90966124D01*
X98742972Y-90770814D01*
X98738105Y-90761739D01*
X98622426Y-90582926D01*
X98616136Y-90574757D01*
X98472806Y-90417240D01*
X98465273Y-90410215D01*
X98298139Y-90278222D01*
X98289556Y-90272520D01*
X98252602Y-90252120D01*
X98202631Y-90201687D01*
X98187859Y-90132245D01*
X98212975Y-90065839D01*
X98240327Y-90039232D01*
X98263797Y-90022491D01*
X98419860Y-89911173D01*
X98468428Y-89862775D01*
X98564851Y-89766688D01*
X98578096Y-89753489D01*
X98625885Y-89686984D01*
X98705435Y-89576277D01*
X98708453Y-89572077D01*
X98711423Y-89566069D01*
X98805136Y-89376453D01*
X98805137Y-89376451D01*
X98807430Y-89371811D01*
X98872370Y-89158069D01*
X98901529Y-88936590D01*
X98901969Y-88918592D01*
X98903074Y-88873365D01*
X98903074Y-88873361D01*
X98903156Y-88870000D01*
X98884852Y-88647361D01*
X98830431Y-88430702D01*
X98741354Y-88225840D01*
X98651042Y-88086239D01*
X98622822Y-88042617D01*
X98622820Y-88042614D01*
X98620014Y-88038277D01*
X98469670Y-87873051D01*
X98465619Y-87869852D01*
X98465615Y-87869848D01*
X98298414Y-87737800D01*
X98298410Y-87737798D01*
X98294359Y-87734598D01*
X98253053Y-87711796D01*
X98203084Y-87661364D01*
X98188312Y-87591921D01*
X98213428Y-87525516D01*
X98240780Y-87498909D01*
X98284603Y-87467650D01*
X98419860Y-87371173D01*
X98578096Y-87213489D01*
X98625885Y-87146984D01*
X98705435Y-87036277D01*
X98708453Y-87032077D01*
X98729320Y-86989857D01*
X98805136Y-86836453D01*
X98805137Y-86836451D01*
X98807430Y-86831811D01*
X98872370Y-86618069D01*
X98901529Y-86396590D01*
X98903156Y-86330000D01*
X98884852Y-86107361D01*
X98830431Y-85890702D01*
X98741354Y-85685840D01*
X98632589Y-85517715D01*
X98622822Y-85502617D01*
X98622820Y-85502614D01*
X98620014Y-85498277D01*
X98469670Y-85333051D01*
X98465619Y-85329852D01*
X98465615Y-85329848D01*
X98298414Y-85197800D01*
X98298410Y-85197798D01*
X98294359Y-85194598D01*
X98252569Y-85171529D01*
X98202598Y-85121097D01*
X98187826Y-85051654D01*
X98212942Y-84985248D01*
X98240294Y-84958641D01*
X98415328Y-84833792D01*
X98423200Y-84827139D01*
X98574052Y-84676812D01*
X98580730Y-84668965D01*
X98705003Y-84496020D01*
X98710313Y-84487183D01*
X98804670Y-84296267D01*
X98808469Y-84286672D01*
X98870377Y-84082910D01*
X98872555Y-84072837D01*
X98873986Y-84061962D01*
X98871775Y-84047778D01*
X98858617Y-84044000D01*
X97412000Y-84044000D01*
X97343879Y-84023998D01*
X97297386Y-83970342D01*
X97286000Y-83918000D01*
X97286000Y-83662000D01*
X97306002Y-83593879D01*
X97359658Y-83547386D01*
X97412000Y-83536000D01*
X98858344Y-83536000D01*
X98871875Y-83532027D01*
X98873180Y-83522947D01*
X98831214Y-83355875D01*
X98827894Y-83346124D01*
X98742972Y-83150814D01*
X98738105Y-83141739D01*
X98622426Y-82962926D01*
X98616136Y-82954757D01*
X98472806Y-82797240D01*
X98465273Y-82790215D01*
X98298139Y-82658222D01*
X98289556Y-82652520D01*
X98252602Y-82632120D01*
X98202631Y-82581687D01*
X98187859Y-82512245D01*
X98212975Y-82445839D01*
X98240327Y-82419232D01*
X98272221Y-82396482D01*
X98419860Y-82291173D01*
X98424528Y-82286522D01*
X98574435Y-82137137D01*
X98578096Y-82133489D01*
X98596857Y-82107381D01*
X98705435Y-81956277D01*
X98708453Y-81952077D01*
X98729320Y-81909857D01*
X98805136Y-81756453D01*
X98805137Y-81756451D01*
X98807430Y-81751811D01*
X98872370Y-81538069D01*
X98901529Y-81316590D01*
X98903156Y-81250000D01*
X98884852Y-81027361D01*
X98830431Y-80810702D01*
X98741354Y-80605840D01*
X98637124Y-80444725D01*
X98622822Y-80422617D01*
X98622820Y-80422614D01*
X98620014Y-80418277D01*
X98469670Y-80253051D01*
X98465619Y-80249852D01*
X98465615Y-80249848D01*
X98298414Y-80117800D01*
X98298410Y-80117798D01*
X98294359Y-80114598D01*
X98253053Y-80091796D01*
X98203084Y-80041364D01*
X98188312Y-79971921D01*
X98213428Y-79905516D01*
X98240780Y-79878909D01*
X98303004Y-79834525D01*
X98419860Y-79751173D01*
X98452387Y-79718760D01*
X98554108Y-79617393D01*
X98578096Y-79593489D01*
X98616803Y-79539623D01*
X98705435Y-79416277D01*
X98708453Y-79412077D01*
X98729320Y-79369857D01*
X98805136Y-79216453D01*
X98805137Y-79216451D01*
X98807430Y-79211811D01*
X98872370Y-78998069D01*
X98901529Y-78776590D01*
X98903156Y-78710000D01*
X98884852Y-78487361D01*
X98830431Y-78270702D01*
X98741354Y-78065840D01*
X98649788Y-77924300D01*
X98622822Y-77882617D01*
X98622820Y-77882614D01*
X98620014Y-77878277D01*
X98469670Y-77713051D01*
X98465619Y-77709852D01*
X98465615Y-77709848D01*
X98298414Y-77577800D01*
X98298410Y-77577798D01*
X98294359Y-77574598D01*
X98253053Y-77551796D01*
X98203084Y-77501364D01*
X98188312Y-77431921D01*
X98213428Y-77365516D01*
X98240780Y-77338909D01*
X98284603Y-77307650D01*
X98419860Y-77211173D01*
X98434880Y-77196206D01*
X98552628Y-77078868D01*
X98578096Y-77053489D01*
X98708453Y-76872077D01*
X98715711Y-76857393D01*
X98805136Y-76676453D01*
X98805137Y-76676451D01*
X98807430Y-76671811D01*
X98863878Y-76486019D01*
X98870865Y-76463023D01*
X98870865Y-76463021D01*
X98872370Y-76458069D01*
X98901529Y-76236590D01*
X98902272Y-76206197D01*
X98903074Y-76173365D01*
X98903074Y-76173361D01*
X98903156Y-76170000D01*
X98884852Y-75947361D01*
X98830431Y-75730702D01*
X98741354Y-75525840D01*
X98666240Y-75409732D01*
X98622822Y-75342617D01*
X98622820Y-75342614D01*
X98620014Y-75338277D01*
X98469670Y-75173051D01*
X98465619Y-75169852D01*
X98465615Y-75169848D01*
X98298414Y-75037800D01*
X98298410Y-75037798D01*
X98294359Y-75034598D01*
X98253053Y-75011796D01*
X98203084Y-74961364D01*
X98188312Y-74891921D01*
X98213428Y-74825516D01*
X98240780Y-74798909D01*
X98304405Y-74753526D01*
X98419860Y-74671173D01*
X98578096Y-74513489D01*
X98634561Y-74434910D01*
X98705435Y-74336277D01*
X98708453Y-74332077D01*
X98712971Y-74322937D01*
X98805136Y-74136453D01*
X98805137Y-74136451D01*
X98807430Y-74131811D01*
X98850434Y-73990268D01*
X98870865Y-73923023D01*
X98870865Y-73923021D01*
X98872370Y-73918069D01*
X98901529Y-73696590D01*
X98903156Y-73630000D01*
X98884852Y-73407361D01*
X98830431Y-73190702D01*
X98741354Y-72985840D01*
X98667420Y-72871556D01*
X98622822Y-72802617D01*
X98622820Y-72802614D01*
X98620014Y-72798277D01*
X98469670Y-72633051D01*
X98465619Y-72629852D01*
X98465615Y-72629848D01*
X98298414Y-72497800D01*
X98298410Y-72497798D01*
X98294359Y-72494598D01*
X98252569Y-72471529D01*
X98202598Y-72421097D01*
X98187826Y-72351654D01*
X98212942Y-72285248D01*
X98240294Y-72258641D01*
X98415328Y-72133792D01*
X98423200Y-72127139D01*
X98574052Y-71976812D01*
X98580730Y-71968965D01*
X98705003Y-71796020D01*
X98710313Y-71787183D01*
X98804670Y-71596267D01*
X98808469Y-71586672D01*
X98870377Y-71382910D01*
X98872555Y-71372837D01*
X98873986Y-71361962D01*
X98871775Y-71347778D01*
X98858617Y-71344000D01*
X97412000Y-71344000D01*
X97343879Y-71323998D01*
X97297386Y-71270342D01*
X97286000Y-71218000D01*
X97286000Y-70962000D01*
X97306002Y-70893879D01*
X97359658Y-70847386D01*
X97412000Y-70836000D01*
X98858344Y-70836000D01*
X98871875Y-70832027D01*
X98873180Y-70822947D01*
X98831214Y-70655875D01*
X98827894Y-70646124D01*
X98742972Y-70450814D01*
X98738105Y-70441739D01*
X98622426Y-70262926D01*
X98616136Y-70254757D01*
X98472806Y-70097240D01*
X98465273Y-70090215D01*
X98298139Y-69958222D01*
X98289556Y-69952520D01*
X98252602Y-69932120D01*
X98202631Y-69881687D01*
X98187859Y-69812245D01*
X98212975Y-69745839D01*
X98240327Y-69719232D01*
X98306293Y-69672179D01*
X98419860Y-69591173D01*
X98578096Y-69433489D01*
X98584147Y-69425069D01*
X98705435Y-69256277D01*
X98708453Y-69252077D01*
X98723930Y-69220763D01*
X98805136Y-69056453D01*
X98805137Y-69056451D01*
X98807430Y-69051811D01*
X98872370Y-68838069D01*
X98901529Y-68616590D01*
X98903156Y-68550000D01*
X98884852Y-68327361D01*
X98830431Y-68110702D01*
X98741354Y-67905840D01*
X98649788Y-67764300D01*
X98622822Y-67722617D01*
X98622820Y-67722614D01*
X98620014Y-67718277D01*
X98469670Y-67553051D01*
X98465619Y-67549852D01*
X98465615Y-67549848D01*
X98298414Y-67417800D01*
X98298410Y-67417798D01*
X98294359Y-67414598D01*
X98252569Y-67391529D01*
X98202598Y-67341097D01*
X98187826Y-67271654D01*
X98212942Y-67205248D01*
X98240294Y-67178641D01*
X98415328Y-67053792D01*
X98423200Y-67047139D01*
X98574052Y-66896812D01*
X98580730Y-66888965D01*
X98705003Y-66716020D01*
X98710313Y-66707183D01*
X98804670Y-66516267D01*
X98808469Y-66506672D01*
X98870377Y-66302910D01*
X98872555Y-66292837D01*
X98873986Y-66281962D01*
X98871775Y-66267778D01*
X98858617Y-66264000D01*
X97412000Y-66264000D01*
X97343879Y-66243998D01*
X97297386Y-66190342D01*
X97286000Y-66138000D01*
X97286000Y-65882000D01*
X97306002Y-65813879D01*
X97359658Y-65767386D01*
X97412000Y-65756000D01*
X98858344Y-65756000D01*
X98871875Y-65752027D01*
X98873180Y-65742947D01*
X98831214Y-65575875D01*
X98827894Y-65566124D01*
X98742972Y-65370814D01*
X98738105Y-65361739D01*
X98622426Y-65182926D01*
X98616136Y-65174757D01*
X98472806Y-65017240D01*
X98465273Y-65010215D01*
X98298139Y-64878222D01*
X98289556Y-64872520D01*
X98252602Y-64852120D01*
X98202631Y-64801687D01*
X98187859Y-64732245D01*
X98212975Y-64665839D01*
X98240327Y-64639232D01*
X98263797Y-64622491D01*
X98419860Y-64511173D01*
X98578096Y-64353489D01*
X98637594Y-64270689D01*
X98705435Y-64176277D01*
X98708453Y-64172077D01*
X98729320Y-64129857D01*
X98805136Y-63976453D01*
X98805137Y-63976451D01*
X98807430Y-63971811D01*
X98872370Y-63758069D01*
X98901529Y-63536590D01*
X98903156Y-63470000D01*
X98884852Y-63247361D01*
X98830431Y-63030702D01*
X98741354Y-62825840D01*
X98620014Y-62638277D01*
X98469670Y-62473051D01*
X98465619Y-62469852D01*
X98465615Y-62469848D01*
X98298414Y-62337800D01*
X98298410Y-62337798D01*
X98294359Y-62334598D01*
X98253053Y-62311796D01*
X98203084Y-62261364D01*
X98188312Y-62191921D01*
X98213428Y-62125516D01*
X98240780Y-62098909D01*
X98284603Y-62067650D01*
X98419860Y-61971173D01*
X98578096Y-61813489D01*
X98637594Y-61730689D01*
X98705435Y-61636277D01*
X98708453Y-61632077D01*
X98729320Y-61589857D01*
X98805136Y-61436453D01*
X98805137Y-61436451D01*
X98807430Y-61431811D01*
X98872370Y-61218069D01*
X98901529Y-60996590D01*
X98903156Y-60930000D01*
X98884852Y-60707361D01*
X98830431Y-60490702D01*
X98741354Y-60285840D01*
X98620014Y-60098277D01*
X98469670Y-59933051D01*
X98465619Y-59929852D01*
X98465615Y-59929848D01*
X98298414Y-59797800D01*
X98298410Y-59797798D01*
X98294359Y-59794598D01*
X98253053Y-59771796D01*
X98203084Y-59721364D01*
X98188312Y-59651921D01*
X98213428Y-59585516D01*
X98240780Y-59558909D01*
X98284603Y-59527650D01*
X98419860Y-59431173D01*
X98578096Y-59273489D01*
X98594975Y-59250000D01*
X98705435Y-59096277D01*
X98708453Y-59092077D01*
X98721995Y-59064678D01*
X98805136Y-58896453D01*
X98805137Y-58896451D01*
X98807430Y-58891811D01*
X98855530Y-58733497D01*
X98870865Y-58683023D01*
X98870865Y-58683021D01*
X98872370Y-58678069D01*
X98901529Y-58456590D01*
X98901611Y-58453240D01*
X98903074Y-58393365D01*
X98903074Y-58393361D01*
X98903156Y-58390000D01*
X98884852Y-58167361D01*
X98830431Y-57950702D01*
X98741354Y-57745840D01*
X98655153Y-57612594D01*
X98622822Y-57562617D01*
X98622820Y-57562614D01*
X98620014Y-57558277D01*
X98469670Y-57393051D01*
X98465619Y-57389852D01*
X98465615Y-57389848D01*
X98298414Y-57257800D01*
X98298410Y-57257798D01*
X98294359Y-57254598D01*
X98258028Y-57234542D01*
X98242136Y-57225769D01*
X98098789Y-57146638D01*
X98093920Y-57144914D01*
X98093916Y-57144912D01*
X97893087Y-57073795D01*
X97893083Y-57073794D01*
X97888212Y-57072069D01*
X97883119Y-57071162D01*
X97883116Y-57071161D01*
X97673373Y-57033800D01*
X97673367Y-57033799D01*
X97668284Y-57032894D01*
X97594452Y-57031992D01*
X97450081Y-57030228D01*
X97450079Y-57030228D01*
X97444911Y-57030165D01*
X97224091Y-57063955D01*
X97011756Y-57133357D01*
X96813607Y-57236507D01*
X96809474Y-57239610D01*
X96809471Y-57239612D01*
X96785247Y-57257800D01*
X96634965Y-57370635D01*
X96480629Y-57532138D01*
X96477715Y-57536410D01*
X96477714Y-57536411D01*
X96372898Y-57690066D01*
X96317987Y-57735069D01*
X96247462Y-57743240D01*
X96183715Y-57711986D01*
X96163018Y-57687502D01*
X96082426Y-57562926D01*
X96076136Y-57554757D01*
X95932806Y-57397240D01*
X95925273Y-57390215D01*
X95758139Y-57258222D01*
X95749552Y-57252517D01*
X95563117Y-57149599D01*
X95553705Y-57145369D01*
X95352959Y-57074280D01*
X95342988Y-57071646D01*
X95271837Y-57058972D01*
X95258540Y-57060432D01*
X95254000Y-57074989D01*
X95254000Y-58518000D01*
X95233998Y-58586121D01*
X95180342Y-58632614D01*
X95128000Y-58644000D01*
X93683225Y-58644000D01*
X93669694Y-58647973D01*
X93668257Y-58657966D01*
X93698565Y-58792446D01*
X93701645Y-58802275D01*
X93781770Y-58999603D01*
X93786413Y-59008794D01*
X93897694Y-59190388D01*
X93903777Y-59198699D01*
X94043213Y-59359667D01*
X94050580Y-59366883D01*
X94214434Y-59502916D01*
X94222881Y-59508831D01*
X94291969Y-59549203D01*
X94340693Y-59600842D01*
X94353764Y-59670625D01*
X94327033Y-59736396D01*
X94286584Y-59769752D01*
X94273607Y-59776507D01*
X94269474Y-59779610D01*
X94269471Y-59779612D01*
X94245247Y-59797800D01*
X94094965Y-59910635D01*
X93940629Y-60072138D01*
X93814743Y-60256680D01*
X93720688Y-60459305D01*
X93660989Y-60674570D01*
X93637251Y-60896695D01*
X93637548Y-60901848D01*
X93637548Y-60901851D01*
X93643011Y-60996590D01*
X93650110Y-61119715D01*
X93651247Y-61124761D01*
X93651248Y-61124767D01*
X93671119Y-61212939D01*
X93699222Y-61337639D01*
X93783266Y-61544616D01*
X93834019Y-61627438D01*
X93897291Y-61730688D01*
X93899987Y-61735088D01*
X94046250Y-61903938D01*
X94218126Y-62046632D01*
X94288595Y-62087811D01*
X94291445Y-62089476D01*
X94340169Y-62141114D01*
X94353240Y-62210897D01*
X94326509Y-62276669D01*
X94286055Y-62310027D01*
X94273607Y-62316507D01*
X94269474Y-62319610D01*
X94269471Y-62319612D01*
X94245247Y-62337800D01*
X94094965Y-62450635D01*
X93940629Y-62612138D01*
X93937720Y-62616403D01*
X93937714Y-62616411D01*
X93891753Y-62683787D01*
X93814743Y-62796680D01*
X93720688Y-62999305D01*
X93660989Y-63214570D01*
X93637251Y-63436695D01*
X93637548Y-63441848D01*
X93637548Y-63441851D01*
X93643011Y-63536590D01*
X93650110Y-63659715D01*
X93651247Y-63664761D01*
X93651248Y-63664767D01*
X93669346Y-63745070D01*
X93699222Y-63877639D01*
X93783266Y-64084616D01*
X93834019Y-64167438D01*
X93897291Y-64270688D01*
X93899987Y-64275088D01*
X94046250Y-64443938D01*
X94218126Y-64586632D01*
X94288595Y-64627811D01*
X94291445Y-64629476D01*
X94340169Y-64681114D01*
X94353240Y-64750897D01*
X94326509Y-64816669D01*
X94286055Y-64850027D01*
X94273607Y-64856507D01*
X94269474Y-64859610D01*
X94269471Y-64859612D01*
X94245247Y-64877800D01*
X94094965Y-64990635D01*
X93940629Y-65152138D01*
X93814743Y-65336680D01*
X93720688Y-65539305D01*
X93660989Y-65754570D01*
X93637251Y-65976695D01*
X93637548Y-65981848D01*
X93637548Y-65981851D01*
X93646552Y-66138000D01*
X93650110Y-66199715D01*
X93651247Y-66204761D01*
X93651248Y-66204767D01*
X93683453Y-66347668D01*
X93678917Y-66418520D01*
X93649631Y-66464464D01*
X92284500Y-67829595D01*
X92222188Y-67863621D01*
X92195405Y-67866500D01*
X83578763Y-67866500D01*
X83567579Y-67865973D01*
X83560091Y-67864299D01*
X83552168Y-67864548D01*
X83492033Y-67866438D01*
X83488075Y-67866500D01*
X83460144Y-67866500D01*
X83456229Y-67866995D01*
X83456225Y-67866995D01*
X83456167Y-67867003D01*
X83456138Y-67867006D01*
X83444296Y-67867939D01*
X83400110Y-67869327D01*
X83382744Y-67874372D01*
X83380658Y-67874978D01*
X83361306Y-67878986D01*
X83349068Y-67880532D01*
X83349066Y-67880533D01*
X83341203Y-67881526D01*
X83300086Y-67897806D01*
X83288885Y-67901641D01*
X83246406Y-67913982D01*
X83239587Y-67918015D01*
X83239582Y-67918017D01*
X83228971Y-67924293D01*
X83211221Y-67932990D01*
X83192383Y-67940448D01*
X83185967Y-67945109D01*
X83185966Y-67945110D01*
X83156625Y-67966428D01*
X83146701Y-67972947D01*
X83115460Y-67991422D01*
X83115455Y-67991426D01*
X83108637Y-67995458D01*
X83094313Y-68009782D01*
X83079281Y-68022621D01*
X83062893Y-68034528D01*
X83046482Y-68054366D01*
X83034712Y-68068593D01*
X83026722Y-68077373D01*
X79607747Y-71496348D01*
X79599461Y-71503888D01*
X79592982Y-71508000D01*
X79587557Y-71513777D01*
X79546357Y-71557651D01*
X79543602Y-71560493D01*
X79523865Y-71580230D01*
X79521385Y-71583427D01*
X79513682Y-71592447D01*
X79483414Y-71624679D01*
X79479595Y-71631625D01*
X79479593Y-71631628D01*
X79473652Y-71642434D01*
X79462801Y-71658953D01*
X79450386Y-71674959D01*
X79447241Y-71682228D01*
X79447238Y-71682232D01*
X79432826Y-71715537D01*
X79427609Y-71726187D01*
X79406305Y-71764940D01*
X79404334Y-71772615D01*
X79404334Y-71772616D01*
X79401267Y-71784562D01*
X79394863Y-71803266D01*
X79386819Y-71821855D01*
X79385580Y-71829678D01*
X79385577Y-71829688D01*
X79379901Y-71865524D01*
X79377495Y-71877144D01*
X79371631Y-71899986D01*
X79366500Y-71919970D01*
X79366500Y-71940224D01*
X79364949Y-71959934D01*
X79361780Y-71979943D01*
X79362526Y-71987835D01*
X79365941Y-72023961D01*
X79366500Y-72035819D01*
X79366500Y-74297476D01*
X79346498Y-74365597D01*
X79334145Y-74381776D01*
X79318616Y-74399022D01*
X79258174Y-74436261D01*
X79187190Y-74434910D01*
X79128205Y-74395397D01*
X79100133Y-74331704D01*
X79099570Y-74327565D01*
X79099570Y-74327563D01*
X79098940Y-74322937D01*
X79088535Y-74287237D01*
X79043887Y-74134059D01*
X79023722Y-74064874D01*
X79011167Y-74037639D01*
X78960081Y-73926827D01*
X78911185Y-73820763D01*
X78829774Y-73696590D01*
X78766369Y-73599881D01*
X78766365Y-73599876D01*
X78763803Y-73595968D01*
X78600071Y-73412522D01*
X78587929Y-73398918D01*
X78587927Y-73398916D01*
X78584812Y-73395426D01*
X78378146Y-73223544D01*
X78262721Y-73153502D01*
X78152342Y-73086522D01*
X78152341Y-73086522D01*
X78148344Y-73084096D01*
X78144030Y-73082287D01*
X78144026Y-73082285D01*
X77904769Y-72981957D01*
X77900455Y-72980148D01*
X77639923Y-72913981D01*
X77416666Y-72891500D01*
X77256763Y-72891500D01*
X77254438Y-72891673D01*
X77254432Y-72891673D01*
X77061592Y-72906004D01*
X77061591Y-72906004D01*
X77056937Y-72906350D01*
X77052384Y-72907380D01*
X77052379Y-72907381D01*
X76799331Y-72964639D01*
X76799326Y-72964640D01*
X76794763Y-72965673D01*
X76544238Y-73063098D01*
X76310864Y-73196482D01*
X76307198Y-73199372D01*
X76307195Y-73199374D01*
X76227014Y-73262584D01*
X76099769Y-73362895D01*
X75915591Y-73558683D01*
X75762374Y-73779543D01*
X75760307Y-73783733D01*
X75760306Y-73783736D01*
X75651417Y-74004542D01*
X75643486Y-74020624D01*
X75642064Y-74025067D01*
X75642063Y-74025069D01*
X75618605Y-74098351D01*
X75561538Y-74276630D01*
X75560788Y-74281237D01*
X75560787Y-74281240D01*
X75540285Y-74407128D01*
X75518330Y-74541937D01*
X75516686Y-74667529D01*
X75514903Y-74803794D01*
X75514812Y-74810716D01*
X59008500Y-74810716D01*
X59008500Y-70210716D01*
X75514812Y-70210716D01*
X75551060Y-70477063D01*
X75552368Y-70481549D01*
X75552368Y-70481551D01*
X75572183Y-70549534D01*
X75626278Y-70735126D01*
X75738815Y-70979237D01*
X75741378Y-70983146D01*
X75883631Y-71200119D01*
X75883635Y-71200124D01*
X75886197Y-71204032D01*
X75889314Y-71207524D01*
X76040292Y-71376680D01*
X76065188Y-71404574D01*
X76196491Y-71513777D01*
X76252661Y-71560493D01*
X76271854Y-71576456D01*
X76283225Y-71583356D01*
X76490312Y-71709020D01*
X76501656Y-71715904D01*
X76505970Y-71717713D01*
X76505974Y-71717715D01*
X76692712Y-71796020D01*
X76749545Y-71819852D01*
X77010077Y-71886019D01*
X77233334Y-71908500D01*
X77393237Y-71908500D01*
X77395562Y-71908327D01*
X77395568Y-71908327D01*
X77588408Y-71893996D01*
X77588409Y-71893996D01*
X77593063Y-71893650D01*
X77597616Y-71892620D01*
X77597621Y-71892619D01*
X77850669Y-71835361D01*
X77850674Y-71835360D01*
X77855237Y-71834327D01*
X78105762Y-71736902D01*
X78339136Y-71603518D01*
X78353987Y-71591811D01*
X78428022Y-71533446D01*
X78550231Y-71437105D01*
X78734409Y-71241317D01*
X78887626Y-71020457D01*
X78906026Y-70983146D01*
X79004449Y-70783564D01*
X79004450Y-70783561D01*
X79006514Y-70779376D01*
X79088462Y-70523370D01*
X79100279Y-70450814D01*
X79130919Y-70262674D01*
X79131670Y-70258063D01*
X79134069Y-70074748D01*
X79135127Y-69993961D01*
X79135127Y-69993958D01*
X79135188Y-69989284D01*
X79098940Y-69722937D01*
X79084146Y-69672179D01*
X79061408Y-69594171D01*
X79023722Y-69464874D01*
X78911185Y-69220763D01*
X78860721Y-69143792D01*
X78766369Y-68999881D01*
X78766365Y-68999876D01*
X78763803Y-68995968D01*
X78627294Y-68843023D01*
X78587929Y-68798918D01*
X78587927Y-68798916D01*
X78584812Y-68795426D01*
X78378146Y-68623544D01*
X78148344Y-68484096D01*
X78144030Y-68482287D01*
X78144026Y-68482285D01*
X77904769Y-68381957D01*
X77900455Y-68380148D01*
X77639923Y-68313981D01*
X77416666Y-68291500D01*
X77256763Y-68291500D01*
X77254438Y-68291673D01*
X77254432Y-68291673D01*
X77061592Y-68306004D01*
X77061591Y-68306004D01*
X77056937Y-68306350D01*
X77052384Y-68307380D01*
X77052379Y-68307381D01*
X76799331Y-68364639D01*
X76799326Y-68364640D01*
X76794763Y-68365673D01*
X76544238Y-68463098D01*
X76310864Y-68596482D01*
X76099769Y-68762895D01*
X75915591Y-68958683D01*
X75843592Y-69062469D01*
X75787176Y-69143792D01*
X75762374Y-69179543D01*
X75760307Y-69183733D01*
X75760306Y-69183736D01*
X75660422Y-69386282D01*
X75643486Y-69420624D01*
X75561538Y-69676630D01*
X75560788Y-69681237D01*
X75560787Y-69681240D01*
X75547730Y-69761412D01*
X75518330Y-69941937D01*
X75514812Y-70210716D01*
X59008500Y-70210716D01*
X59008500Y-66920000D01*
X68186502Y-66920000D01*
X68206457Y-67148087D01*
X68207881Y-67153400D01*
X68207881Y-67153402D01*
X68262274Y-67356396D01*
X68265716Y-67369243D01*
X68268039Y-67374224D01*
X68268039Y-67374225D01*
X68360151Y-67571762D01*
X68360154Y-67571767D01*
X68362477Y-67576749D01*
X68493802Y-67764300D01*
X68655700Y-67926198D01*
X68660208Y-67929355D01*
X68660211Y-67929357D01*
X68671885Y-67937531D01*
X68843251Y-68057523D01*
X68848233Y-68059846D01*
X68848238Y-68059849D01*
X69045775Y-68151961D01*
X69050757Y-68154284D01*
X69056065Y-68155706D01*
X69056067Y-68155707D01*
X69266598Y-68212119D01*
X69266600Y-68212119D01*
X69271913Y-68213543D01*
X69500000Y-68233498D01*
X69728087Y-68213543D01*
X69733400Y-68212119D01*
X69733402Y-68212119D01*
X69943933Y-68155707D01*
X69943935Y-68155706D01*
X69949243Y-68154284D01*
X69954225Y-68151961D01*
X70151762Y-68059849D01*
X70151767Y-68059846D01*
X70156749Y-68057523D01*
X70328115Y-67937531D01*
X70339789Y-67929357D01*
X70339792Y-67929355D01*
X70344300Y-67926198D01*
X70506198Y-67764300D01*
X70637523Y-67576749D01*
X70639846Y-67571767D01*
X70639849Y-67571762D01*
X70731961Y-67374225D01*
X70731961Y-67374224D01*
X70734284Y-67369243D01*
X70737727Y-67356396D01*
X70792119Y-67153402D01*
X70792119Y-67153400D01*
X70793543Y-67148087D01*
X70813498Y-66920000D01*
X71686502Y-66920000D01*
X71706457Y-67148087D01*
X71707881Y-67153400D01*
X71707881Y-67153402D01*
X71762274Y-67356396D01*
X71765716Y-67369243D01*
X71768039Y-67374224D01*
X71768039Y-67374225D01*
X71860151Y-67571762D01*
X71860154Y-67571767D01*
X71862477Y-67576749D01*
X71993802Y-67764300D01*
X72155700Y-67926198D01*
X72160208Y-67929355D01*
X72160211Y-67929357D01*
X72171885Y-67937531D01*
X72343251Y-68057523D01*
X72348233Y-68059846D01*
X72348238Y-68059849D01*
X72545775Y-68151961D01*
X72550757Y-68154284D01*
X72556065Y-68155706D01*
X72556067Y-68155707D01*
X72766598Y-68212119D01*
X72766600Y-68212119D01*
X72771913Y-68213543D01*
X73000000Y-68233498D01*
X73228087Y-68213543D01*
X73233400Y-68212119D01*
X73233402Y-68212119D01*
X73443933Y-68155707D01*
X73443935Y-68155706D01*
X73449243Y-68154284D01*
X73454225Y-68151961D01*
X73651762Y-68059849D01*
X73651767Y-68059846D01*
X73656749Y-68057523D01*
X73828115Y-67937531D01*
X73839789Y-67929357D01*
X73839792Y-67929355D01*
X73844300Y-67926198D01*
X74006198Y-67764300D01*
X74137523Y-67576749D01*
X74139846Y-67571767D01*
X74139849Y-67571762D01*
X74231961Y-67374225D01*
X74231961Y-67374224D01*
X74234284Y-67369243D01*
X74237727Y-67356396D01*
X74292119Y-67153402D01*
X74292119Y-67153400D01*
X74293543Y-67148087D01*
X74313498Y-66920000D01*
X74293543Y-66691913D01*
X74292119Y-66686598D01*
X74235707Y-66476067D01*
X74235706Y-66476065D01*
X74234284Y-66470757D01*
X74209926Y-66418520D01*
X74139849Y-66268238D01*
X74139846Y-66268233D01*
X74137523Y-66263251D01*
X74006198Y-66075700D01*
X73844300Y-65913802D01*
X73839792Y-65910645D01*
X73839789Y-65910643D01*
X73761611Y-65855902D01*
X73656749Y-65782477D01*
X73651767Y-65780154D01*
X73651762Y-65780151D01*
X73454225Y-65688039D01*
X73454224Y-65688039D01*
X73449243Y-65685716D01*
X73443935Y-65684294D01*
X73443933Y-65684293D01*
X73233402Y-65627881D01*
X73233400Y-65627881D01*
X73228087Y-65626457D01*
X73000000Y-65606502D01*
X72771913Y-65626457D01*
X72766600Y-65627881D01*
X72766598Y-65627881D01*
X72556067Y-65684293D01*
X72556065Y-65684294D01*
X72550757Y-65685716D01*
X72545776Y-65688039D01*
X72545775Y-65688039D01*
X72348238Y-65780151D01*
X72348233Y-65780154D01*
X72343251Y-65782477D01*
X72238389Y-65855902D01*
X72160211Y-65910643D01*
X72160208Y-65910645D01*
X72155700Y-65913802D01*
X71993802Y-66075700D01*
X71862477Y-66263251D01*
X71860154Y-66268233D01*
X71860151Y-66268238D01*
X71790074Y-66418520D01*
X71765716Y-66470757D01*
X71764294Y-66476065D01*
X71764293Y-66476067D01*
X71707881Y-66686598D01*
X71706457Y-66691913D01*
X71686502Y-66920000D01*
X70813498Y-66920000D01*
X70793543Y-66691913D01*
X70792119Y-66686598D01*
X70735707Y-66476067D01*
X70735706Y-66476065D01*
X70734284Y-66470757D01*
X70709926Y-66418520D01*
X70639849Y-66268238D01*
X70639846Y-66268233D01*
X70637523Y-66263251D01*
X70506198Y-66075700D01*
X70344300Y-65913802D01*
X70339792Y-65910645D01*
X70339789Y-65910643D01*
X70261611Y-65855902D01*
X70156749Y-65782477D01*
X70151767Y-65780154D01*
X70151762Y-65780151D01*
X69954225Y-65688039D01*
X69954224Y-65688039D01*
X69949243Y-65685716D01*
X69943935Y-65684294D01*
X69943933Y-65684293D01*
X69733402Y-65627881D01*
X69733400Y-65627881D01*
X69728087Y-65626457D01*
X69500000Y-65606502D01*
X69271913Y-65626457D01*
X69266600Y-65627881D01*
X69266598Y-65627881D01*
X69056067Y-65684293D01*
X69056065Y-65684294D01*
X69050757Y-65685716D01*
X69045776Y-65688039D01*
X69045775Y-65688039D01*
X68848238Y-65780151D01*
X68848233Y-65780154D01*
X68843251Y-65782477D01*
X68738389Y-65855902D01*
X68660211Y-65910643D01*
X68660208Y-65910645D01*
X68655700Y-65913802D01*
X68493802Y-66075700D01*
X68362477Y-66263251D01*
X68360154Y-66268233D01*
X68360151Y-66268238D01*
X68290074Y-66418520D01*
X68265716Y-66470757D01*
X68264294Y-66476065D01*
X68264293Y-66476067D01*
X68207881Y-66686598D01*
X68206457Y-66691913D01*
X68186502Y-66920000D01*
X59008500Y-66920000D01*
X59008500Y-63750000D01*
X79736835Y-63750000D01*
X79755465Y-63986711D01*
X79756619Y-63991518D01*
X79756620Y-63991524D01*
X79778970Y-64084616D01*
X79810895Y-64217594D01*
X79812788Y-64222165D01*
X79812789Y-64222167D01*
X79865446Y-64349292D01*
X79901760Y-64436963D01*
X79904346Y-64441183D01*
X80023241Y-64635202D01*
X80023245Y-64635208D01*
X80025824Y-64639416D01*
X80180031Y-64819969D01*
X80360584Y-64974176D01*
X80364792Y-64976755D01*
X80364798Y-64976759D01*
X80558817Y-65095654D01*
X80563037Y-65098240D01*
X80567607Y-65100133D01*
X80567611Y-65100135D01*
X80766742Y-65182617D01*
X80782406Y-65189105D01*
X80862609Y-65208360D01*
X81008476Y-65243380D01*
X81008482Y-65243381D01*
X81013289Y-65244535D01*
X81250000Y-65263165D01*
X81486711Y-65244535D01*
X81491518Y-65243381D01*
X81491524Y-65243380D01*
X81637391Y-65208360D01*
X81717594Y-65189105D01*
X81733258Y-65182617D01*
X81932389Y-65100135D01*
X81932393Y-65100133D01*
X81936963Y-65098240D01*
X81941183Y-65095654D01*
X82135202Y-64976759D01*
X82135208Y-64976755D01*
X82139416Y-64974176D01*
X82319969Y-64819969D01*
X82474176Y-64639416D01*
X82476755Y-64635208D01*
X82476759Y-64635202D01*
X82595654Y-64441183D01*
X82598240Y-64436963D01*
X82634555Y-64349292D01*
X82687211Y-64222167D01*
X82687212Y-64222165D01*
X82689105Y-64217594D01*
X82721030Y-64084616D01*
X82743380Y-63991524D01*
X82743381Y-63991518D01*
X82744535Y-63986711D01*
X82763165Y-63750000D01*
X86236835Y-63750000D01*
X86255465Y-63986711D01*
X86256619Y-63991518D01*
X86256620Y-63991524D01*
X86278970Y-64084616D01*
X86310895Y-64217594D01*
X86312788Y-64222165D01*
X86312789Y-64222167D01*
X86365446Y-64349292D01*
X86401760Y-64436963D01*
X86404346Y-64441183D01*
X86523241Y-64635202D01*
X86523245Y-64635208D01*
X86525824Y-64639416D01*
X86680031Y-64819969D01*
X86860584Y-64974176D01*
X86864792Y-64976755D01*
X86864798Y-64976759D01*
X87058817Y-65095654D01*
X87063037Y-65098240D01*
X87067607Y-65100133D01*
X87067611Y-65100135D01*
X87266742Y-65182617D01*
X87282406Y-65189105D01*
X87362609Y-65208360D01*
X87508476Y-65243380D01*
X87508482Y-65243381D01*
X87513289Y-65244535D01*
X87750000Y-65263165D01*
X87986711Y-65244535D01*
X87991518Y-65243381D01*
X87991524Y-65243380D01*
X88137391Y-65208360D01*
X88217594Y-65189105D01*
X88233258Y-65182617D01*
X88432389Y-65100135D01*
X88432393Y-65100133D01*
X88436963Y-65098240D01*
X88441183Y-65095654D01*
X88635202Y-64976759D01*
X88635208Y-64976755D01*
X88639416Y-64974176D01*
X88819969Y-64819969D01*
X88974176Y-64639416D01*
X88976755Y-64635208D01*
X88976759Y-64635202D01*
X89095654Y-64441183D01*
X89098240Y-64436963D01*
X89134555Y-64349292D01*
X89187211Y-64222167D01*
X89187212Y-64222165D01*
X89189105Y-64217594D01*
X89221030Y-64084616D01*
X89243380Y-63991524D01*
X89243381Y-63991518D01*
X89244535Y-63986711D01*
X89263165Y-63750000D01*
X89244535Y-63513289D01*
X89234143Y-63470000D01*
X89190260Y-63287218D01*
X89189105Y-63282406D01*
X89172510Y-63242342D01*
X89100135Y-63067611D01*
X89100133Y-63067607D01*
X89098240Y-63063037D01*
X89078425Y-63030702D01*
X88976759Y-62864798D01*
X88976755Y-62864792D01*
X88974176Y-62860584D01*
X88819969Y-62680031D01*
X88639416Y-62525824D01*
X88635208Y-62523245D01*
X88635202Y-62523241D01*
X88441183Y-62404346D01*
X88436963Y-62401760D01*
X88432393Y-62399867D01*
X88432389Y-62399865D01*
X88222167Y-62312789D01*
X88222165Y-62312788D01*
X88217594Y-62310895D01*
X88137391Y-62291640D01*
X87991524Y-62256620D01*
X87991518Y-62256619D01*
X87986711Y-62255465D01*
X87750000Y-62236835D01*
X87513289Y-62255465D01*
X87508482Y-62256619D01*
X87508476Y-62256620D01*
X87362609Y-62291640D01*
X87282406Y-62310895D01*
X87277835Y-62312788D01*
X87277833Y-62312789D01*
X87067611Y-62399865D01*
X87067607Y-62399867D01*
X87063037Y-62401760D01*
X87058817Y-62404346D01*
X86864798Y-62523241D01*
X86864792Y-62523245D01*
X86860584Y-62525824D01*
X86680031Y-62680031D01*
X86525824Y-62860584D01*
X86523245Y-62864792D01*
X86523241Y-62864798D01*
X86421575Y-63030702D01*
X86401760Y-63063037D01*
X86399867Y-63067607D01*
X86399865Y-63067611D01*
X86327490Y-63242342D01*
X86310895Y-63282406D01*
X86309740Y-63287218D01*
X86265858Y-63470000D01*
X86255465Y-63513289D01*
X86236835Y-63750000D01*
X82763165Y-63750000D01*
X82744535Y-63513289D01*
X82734143Y-63470000D01*
X82690260Y-63287218D01*
X82689105Y-63282406D01*
X82672510Y-63242342D01*
X82600135Y-63067611D01*
X82600133Y-63067607D01*
X82598240Y-63063037D01*
X82578425Y-63030702D01*
X82476759Y-62864798D01*
X82476755Y-62864792D01*
X82474176Y-62860584D01*
X82319969Y-62680031D01*
X82139416Y-62525824D01*
X82135208Y-62523245D01*
X82135202Y-62523241D01*
X81941183Y-62404346D01*
X81936963Y-62401760D01*
X81932393Y-62399867D01*
X81932389Y-62399865D01*
X81722167Y-62312789D01*
X81722165Y-62312788D01*
X81717594Y-62310895D01*
X81637391Y-62291640D01*
X81491524Y-62256620D01*
X81491518Y-62256619D01*
X81486711Y-62255465D01*
X81250000Y-62236835D01*
X81013289Y-62255465D01*
X81008482Y-62256619D01*
X81008476Y-62256620D01*
X80862609Y-62291640D01*
X80782406Y-62310895D01*
X80777835Y-62312788D01*
X80777833Y-62312789D01*
X80567611Y-62399865D01*
X80567607Y-62399867D01*
X80563037Y-62401760D01*
X80558817Y-62404346D01*
X80364798Y-62523241D01*
X80364792Y-62523245D01*
X80360584Y-62525824D01*
X80180031Y-62680031D01*
X80025824Y-62860584D01*
X80023245Y-62864792D01*
X80023241Y-62864798D01*
X79921575Y-63030702D01*
X79901760Y-63063037D01*
X79899867Y-63067607D01*
X79899865Y-63067611D01*
X79827490Y-63242342D01*
X79810895Y-63282406D01*
X79809740Y-63287218D01*
X79765858Y-63470000D01*
X79755465Y-63513289D01*
X79736835Y-63750000D01*
X59008500Y-63750000D01*
X59008500Y-59250000D01*
X79736835Y-59250000D01*
X79755465Y-59486711D01*
X79756619Y-59491518D01*
X79756620Y-59491524D01*
X79779186Y-59585516D01*
X79810895Y-59717594D01*
X79812788Y-59722165D01*
X79812789Y-59722167D01*
X79898813Y-59929848D01*
X79901760Y-59936963D01*
X79904346Y-59941183D01*
X80023241Y-60135202D01*
X80023245Y-60135208D01*
X80025824Y-60139416D01*
X80180031Y-60319969D01*
X80360584Y-60474176D01*
X80364792Y-60476755D01*
X80364798Y-60476759D01*
X80395740Y-60495720D01*
X80563037Y-60598240D01*
X80567607Y-60600133D01*
X80567611Y-60600135D01*
X80735287Y-60669588D01*
X80782406Y-60689105D01*
X80858448Y-60707361D01*
X81008476Y-60743380D01*
X81008482Y-60743381D01*
X81013289Y-60744535D01*
X81250000Y-60763165D01*
X81486711Y-60744535D01*
X81491518Y-60743381D01*
X81491524Y-60743380D01*
X81641552Y-60707361D01*
X81717594Y-60689105D01*
X81764713Y-60669588D01*
X81932389Y-60600135D01*
X81932393Y-60600133D01*
X81936963Y-60598240D01*
X82104260Y-60495720D01*
X82135202Y-60476759D01*
X82135208Y-60476755D01*
X82139416Y-60474176D01*
X82319969Y-60319969D01*
X82474176Y-60139416D01*
X82476755Y-60135208D01*
X82476759Y-60135202D01*
X82595654Y-59941183D01*
X82598240Y-59936963D01*
X82601188Y-59929848D01*
X82687211Y-59722167D01*
X82687212Y-59722165D01*
X82689105Y-59717594D01*
X82720814Y-59585516D01*
X82743380Y-59491524D01*
X82743381Y-59491518D01*
X82744535Y-59486711D01*
X82763165Y-59250000D01*
X86236835Y-59250000D01*
X86255465Y-59486711D01*
X86256619Y-59491518D01*
X86256620Y-59491524D01*
X86279186Y-59585516D01*
X86310895Y-59717594D01*
X86312788Y-59722165D01*
X86312789Y-59722167D01*
X86398813Y-59929848D01*
X86401760Y-59936963D01*
X86404346Y-59941183D01*
X86523241Y-60135202D01*
X86523245Y-60135208D01*
X86525824Y-60139416D01*
X86680031Y-60319969D01*
X86860584Y-60474176D01*
X86864792Y-60476755D01*
X86864798Y-60476759D01*
X86895740Y-60495720D01*
X87063037Y-60598240D01*
X87067607Y-60600133D01*
X87067611Y-60600135D01*
X87235287Y-60669588D01*
X87282406Y-60689105D01*
X87358448Y-60707361D01*
X87508476Y-60743380D01*
X87508482Y-60743381D01*
X87513289Y-60744535D01*
X87750000Y-60763165D01*
X87986711Y-60744535D01*
X87991518Y-60743381D01*
X87991524Y-60743380D01*
X88141552Y-60707361D01*
X88217594Y-60689105D01*
X88264713Y-60669588D01*
X88432389Y-60600135D01*
X88432393Y-60600133D01*
X88436963Y-60598240D01*
X88604260Y-60495720D01*
X88635202Y-60476759D01*
X88635208Y-60476755D01*
X88639416Y-60474176D01*
X88819969Y-60319969D01*
X88974176Y-60139416D01*
X88976755Y-60135208D01*
X88976759Y-60135202D01*
X89095654Y-59941183D01*
X89098240Y-59936963D01*
X89101188Y-59929848D01*
X89187211Y-59722167D01*
X89187212Y-59722165D01*
X89189105Y-59717594D01*
X89220814Y-59585516D01*
X89243380Y-59491524D01*
X89243381Y-59491518D01*
X89244535Y-59486711D01*
X89263165Y-59250000D01*
X89244535Y-59013289D01*
X89241250Y-58999603D01*
X89190260Y-58787218D01*
X89189105Y-58782406D01*
X89169562Y-58735224D01*
X89100135Y-58567611D01*
X89100133Y-58567607D01*
X89098240Y-58563037D01*
X89053189Y-58489521D01*
X88976759Y-58364798D01*
X88976755Y-58364792D01*
X88974176Y-58360584D01*
X88819969Y-58180031D01*
X88754579Y-58124183D01*
X93664389Y-58124183D01*
X93665912Y-58132607D01*
X93678292Y-58136000D01*
X94727885Y-58136000D01*
X94743124Y-58131525D01*
X94744329Y-58130135D01*
X94746000Y-58122452D01*
X94746000Y-57073102D01*
X94742082Y-57059758D01*
X94727806Y-57057771D01*
X94689324Y-57063660D01*
X94679288Y-57066051D01*
X94476868Y-57132212D01*
X94467359Y-57136209D01*
X94278463Y-57234542D01*
X94269738Y-57240036D01*
X94099433Y-57367905D01*
X94091726Y-57374748D01*
X93944590Y-57528717D01*
X93938104Y-57536727D01*
X93818098Y-57712649D01*
X93813000Y-57721623D01*
X93723338Y-57914783D01*
X93719775Y-57924470D01*
X93664389Y-58124183D01*
X88754579Y-58124183D01*
X88639416Y-58025824D01*
X88635208Y-58023245D01*
X88635202Y-58023241D01*
X88441183Y-57904346D01*
X88436963Y-57901760D01*
X88432393Y-57899867D01*
X88432389Y-57899865D01*
X88222167Y-57812789D01*
X88222165Y-57812788D01*
X88217594Y-57810895D01*
X88137391Y-57791640D01*
X87991524Y-57756620D01*
X87991518Y-57756619D01*
X87986711Y-57755465D01*
X87750000Y-57736835D01*
X87513289Y-57755465D01*
X87508482Y-57756619D01*
X87508476Y-57756620D01*
X87362609Y-57791640D01*
X87282406Y-57810895D01*
X87277835Y-57812788D01*
X87277833Y-57812789D01*
X87067611Y-57899865D01*
X87067607Y-57899867D01*
X87063037Y-57901760D01*
X87058817Y-57904346D01*
X86864798Y-58023241D01*
X86864792Y-58023245D01*
X86860584Y-58025824D01*
X86680031Y-58180031D01*
X86525824Y-58360584D01*
X86523245Y-58364792D01*
X86523241Y-58364798D01*
X86446811Y-58489521D01*
X86401760Y-58563037D01*
X86399867Y-58567607D01*
X86399865Y-58567611D01*
X86330438Y-58735224D01*
X86310895Y-58782406D01*
X86309740Y-58787218D01*
X86258751Y-58999603D01*
X86255465Y-59013289D01*
X86236835Y-59250000D01*
X82763165Y-59250000D01*
X82744535Y-59013289D01*
X82741250Y-58999603D01*
X82690260Y-58787218D01*
X82689105Y-58782406D01*
X82669562Y-58735224D01*
X82600135Y-58567611D01*
X82600133Y-58567607D01*
X82598240Y-58563037D01*
X82553189Y-58489521D01*
X82476759Y-58364798D01*
X82476755Y-58364792D01*
X82474176Y-58360584D01*
X82319969Y-58180031D01*
X82139416Y-58025824D01*
X82135208Y-58023245D01*
X82135202Y-58023241D01*
X81941183Y-57904346D01*
X81936963Y-57901760D01*
X81932393Y-57899867D01*
X81932389Y-57899865D01*
X81722167Y-57812789D01*
X81722165Y-57812788D01*
X81717594Y-57810895D01*
X81637391Y-57791640D01*
X81491524Y-57756620D01*
X81491518Y-57756619D01*
X81486711Y-57755465D01*
X81250000Y-57736835D01*
X81013289Y-57755465D01*
X81008482Y-57756619D01*
X81008476Y-57756620D01*
X80862609Y-57791640D01*
X80782406Y-57810895D01*
X80777835Y-57812788D01*
X80777833Y-57812789D01*
X80567611Y-57899865D01*
X80567607Y-57899867D01*
X80563037Y-57901760D01*
X80558817Y-57904346D01*
X80364798Y-58023241D01*
X80364792Y-58023245D01*
X80360584Y-58025824D01*
X80180031Y-58180031D01*
X80025824Y-58360584D01*
X80023245Y-58364792D01*
X80023241Y-58364798D01*
X79946811Y-58489521D01*
X79901760Y-58563037D01*
X79899867Y-58567607D01*
X79899865Y-58567611D01*
X79830438Y-58735224D01*
X79810895Y-58782406D01*
X79809740Y-58787218D01*
X79758751Y-58999603D01*
X79755465Y-59013289D01*
X79736835Y-59250000D01*
X59008500Y-59250000D01*
X59008500Y-57424469D01*
X67501500Y-57424469D01*
X67501712Y-57427042D01*
X67501712Y-57427053D01*
X67516131Y-57602432D01*
X67516132Y-57602438D01*
X67516555Y-57607583D01*
X67536629Y-57687502D01*
X67551283Y-57745840D01*
X67576584Y-57846570D01*
X67578642Y-57851303D01*
X67578643Y-57851306D01*
X67654526Y-58025824D01*
X67674840Y-58072544D01*
X67677644Y-58076878D01*
X67677646Y-58076882D01*
X67805874Y-58275092D01*
X67805879Y-58275098D01*
X67808685Y-58279436D01*
X67974523Y-58461690D01*
X67978574Y-58464889D01*
X67978578Y-58464893D01*
X68009763Y-58489521D01*
X68167901Y-58614410D01*
X68221503Y-58644000D01*
X68359692Y-58720285D01*
X68383625Y-58733497D01*
X68615903Y-58815750D01*
X68620995Y-58816657D01*
X68853407Y-58858057D01*
X68853411Y-58858057D01*
X68858495Y-58858963D01*
X68937914Y-58859933D01*
X69099718Y-58861910D01*
X69099720Y-58861910D01*
X69104888Y-58861973D01*
X69348464Y-58824701D01*
X69582682Y-58748147D01*
X69587270Y-58745759D01*
X69587274Y-58745757D01*
X69796663Y-58636756D01*
X69796664Y-58636755D01*
X69801252Y-58634367D01*
X69805385Y-58631264D01*
X69805388Y-58631262D01*
X69994168Y-58489521D01*
X69994170Y-58489519D01*
X69998303Y-58486416D01*
X70084068Y-58396669D01*
X72502001Y-58396669D01*
X72502371Y-58403490D01*
X72507895Y-58454352D01*
X72511521Y-58469604D01*
X72556676Y-58590054D01*
X72565214Y-58605649D01*
X72641715Y-58707724D01*
X72654276Y-58720285D01*
X72756351Y-58796786D01*
X72771946Y-58805324D01*
X72892394Y-58850478D01*
X72907649Y-58854105D01*
X72958514Y-58859631D01*
X72965328Y-58860000D01*
X73727885Y-58860000D01*
X73743124Y-58855525D01*
X73744329Y-58854135D01*
X73746000Y-58846452D01*
X73746000Y-58841884D01*
X74254000Y-58841884D01*
X74258475Y-58857123D01*
X74259865Y-58858328D01*
X74267548Y-58859999D01*
X75034669Y-58859999D01*
X75041490Y-58859629D01*
X75092352Y-58854105D01*
X75107604Y-58850479D01*
X75228054Y-58805324D01*
X75243649Y-58796786D01*
X75345724Y-58720285D01*
X75358285Y-58707724D01*
X75434786Y-58605649D01*
X75443324Y-58590054D01*
X75488478Y-58469606D01*
X75492105Y-58454351D01*
X75497631Y-58403486D01*
X75498000Y-58396672D01*
X75498000Y-56644115D01*
X75493525Y-56628876D01*
X75492135Y-56627671D01*
X75484452Y-56626000D01*
X74272115Y-56626000D01*
X74256876Y-56630475D01*
X74255671Y-56631865D01*
X74254000Y-56639548D01*
X74254000Y-58841884D01*
X73746000Y-58841884D01*
X73746000Y-56644115D01*
X73741525Y-56628876D01*
X73740135Y-56627671D01*
X73732452Y-56626000D01*
X72520116Y-56626000D01*
X72504877Y-56630475D01*
X72503672Y-56631865D01*
X72502001Y-56639548D01*
X72502001Y-58396669D01*
X70084068Y-58396669D01*
X70168545Y-58308269D01*
X70256023Y-58180031D01*
X70304485Y-58108989D01*
X70304488Y-58108984D01*
X70307404Y-58104709D01*
X70309580Y-58100020D01*
X70309584Y-58100014D01*
X70408975Y-57885894D01*
X70408977Y-57885889D01*
X70411152Y-57881203D01*
X70420757Y-57846570D01*
X70475623Y-57648726D01*
X70475623Y-57648725D01*
X70477002Y-57643753D01*
X70498500Y-57442594D01*
X70498500Y-56099885D01*
X72502000Y-56099885D01*
X72506475Y-56115124D01*
X72507865Y-56116329D01*
X72515548Y-56118000D01*
X73727885Y-56118000D01*
X73743124Y-56113525D01*
X73744329Y-56112135D01*
X73746000Y-56104452D01*
X73746000Y-56099885D01*
X74254000Y-56099885D01*
X74258475Y-56115124D01*
X74259865Y-56116329D01*
X74267548Y-56118000D01*
X75479884Y-56118000D01*
X75495123Y-56113525D01*
X75496328Y-56112135D01*
X75497999Y-56104452D01*
X75497999Y-54347331D01*
X75497629Y-54340510D01*
X75492105Y-54289648D01*
X75488479Y-54274396D01*
X75443324Y-54153946D01*
X75434786Y-54138351D01*
X75358285Y-54036276D01*
X75345724Y-54023715D01*
X75243649Y-53947214D01*
X75228054Y-53938676D01*
X75107606Y-53893522D01*
X75092351Y-53889895D01*
X75041486Y-53884369D01*
X75034672Y-53884000D01*
X74272115Y-53884000D01*
X74256876Y-53888475D01*
X74255671Y-53889865D01*
X74254000Y-53897548D01*
X74254000Y-56099885D01*
X73746000Y-56099885D01*
X73746000Y-53902116D01*
X73741525Y-53886877D01*
X73740135Y-53885672D01*
X73732452Y-53884001D01*
X72965331Y-53884001D01*
X72958510Y-53884371D01*
X72907648Y-53889895D01*
X72892396Y-53893521D01*
X72771946Y-53938676D01*
X72756351Y-53947214D01*
X72654276Y-54023715D01*
X72641715Y-54036276D01*
X72565214Y-54138351D01*
X72556676Y-54153946D01*
X72511522Y-54274394D01*
X72507895Y-54289649D01*
X72502369Y-54340514D01*
X72502000Y-54347328D01*
X72502000Y-56099885D01*
X70498500Y-56099885D01*
X70498500Y-55319531D01*
X70497693Y-55309715D01*
X70483869Y-55141568D01*
X70483868Y-55141562D01*
X70483445Y-55136417D01*
X70453431Y-55016924D01*
X70424675Y-54902441D01*
X70424674Y-54902437D01*
X70423416Y-54897430D01*
X70421357Y-54892694D01*
X70327220Y-54676193D01*
X70327218Y-54676190D01*
X70325160Y-54671456D01*
X70307389Y-54643986D01*
X70194126Y-54468908D01*
X70194121Y-54468902D01*
X70191315Y-54464564D01*
X70186686Y-54459476D01*
X70084641Y-54347331D01*
X70025477Y-54282310D01*
X70021426Y-54279111D01*
X70021422Y-54279107D01*
X69836157Y-54132795D01*
X69832099Y-54129590D01*
X69749318Y-54083892D01*
X69620906Y-54013004D01*
X69620903Y-54013003D01*
X69616375Y-54010503D01*
X69384097Y-53928250D01*
X69301169Y-53913478D01*
X69146593Y-53885943D01*
X69146589Y-53885943D01*
X69141505Y-53885037D01*
X69056700Y-53884001D01*
X68900282Y-53882090D01*
X68900280Y-53882090D01*
X68895112Y-53882027D01*
X68651536Y-53919299D01*
X68417318Y-53995853D01*
X68412730Y-53998241D01*
X68412726Y-53998243D01*
X68203337Y-54107244D01*
X68198748Y-54109633D01*
X68194615Y-54112736D01*
X68194612Y-54112738D01*
X68079744Y-54198984D01*
X68001697Y-54257584D01*
X67831455Y-54435731D01*
X67828541Y-54440003D01*
X67828540Y-54440004D01*
X67695515Y-54635011D01*
X67695512Y-54635016D01*
X67692596Y-54639291D01*
X67690420Y-54643980D01*
X67690416Y-54643986D01*
X67591025Y-54858106D01*
X67588848Y-54862797D01*
X67587468Y-54867775D01*
X67587466Y-54867779D01*
X67524377Y-55095274D01*
X67522998Y-55100247D01*
X67511604Y-55206864D01*
X67502058Y-55296186D01*
X67501500Y-55301406D01*
X67501500Y-57424469D01*
X59008500Y-57424469D01*
X59008500Y-53632703D01*
X59890743Y-53632703D01*
X59928268Y-53917734D01*
X60004129Y-54195036D01*
X60005813Y-54198984D01*
X60039989Y-54279107D01*
X60116923Y-54459476D01*
X60128693Y-54479142D01*
X60246626Y-54676193D01*
X60264561Y-54706161D01*
X60444313Y-54930528D01*
X60461397Y-54946740D01*
X60628568Y-55105379D01*
X60652851Y-55128423D01*
X60886317Y-55296186D01*
X60890112Y-55298195D01*
X60890113Y-55298196D01*
X60911869Y-55309715D01*
X61140392Y-55430712D01*
X61410373Y-55529511D01*
X61691264Y-55590755D01*
X61719841Y-55593004D01*
X61914282Y-55608307D01*
X61914291Y-55608307D01*
X61916739Y-55608500D01*
X62072271Y-55608500D01*
X62074407Y-55608354D01*
X62074418Y-55608354D01*
X62282548Y-55594165D01*
X62282554Y-55594164D01*
X62286825Y-55593873D01*
X62291020Y-55593004D01*
X62291022Y-55593004D01*
X62427583Y-55564724D01*
X62568342Y-55535574D01*
X62839343Y-55439607D01*
X63094812Y-55307750D01*
X63098313Y-55305289D01*
X63098317Y-55305287D01*
X63212418Y-55225095D01*
X63330023Y-55142441D01*
X63540622Y-54946740D01*
X63722713Y-54724268D01*
X63872927Y-54479142D01*
X63877420Y-54468908D01*
X63986757Y-54219830D01*
X63988483Y-54215898D01*
X64067244Y-53939406D01*
X64107751Y-53654784D01*
X64107845Y-53636951D01*
X64107867Y-53632703D01*
X94390743Y-53632703D01*
X94428268Y-53917734D01*
X94504129Y-54195036D01*
X94505813Y-54198984D01*
X94539989Y-54279107D01*
X94616923Y-54459476D01*
X94628693Y-54479142D01*
X94746626Y-54676193D01*
X94764561Y-54706161D01*
X94944313Y-54930528D01*
X94961397Y-54946740D01*
X95128568Y-55105379D01*
X95152851Y-55128423D01*
X95386317Y-55296186D01*
X95390112Y-55298195D01*
X95390113Y-55298196D01*
X95411869Y-55309715D01*
X95640392Y-55430712D01*
X95910373Y-55529511D01*
X96191264Y-55590755D01*
X96219841Y-55593004D01*
X96414282Y-55608307D01*
X96414291Y-55608307D01*
X96416739Y-55608500D01*
X96572271Y-55608500D01*
X96574407Y-55608354D01*
X96574418Y-55608354D01*
X96782548Y-55594165D01*
X96782554Y-55594164D01*
X96786825Y-55593873D01*
X96791020Y-55593004D01*
X96791022Y-55593004D01*
X96927583Y-55564724D01*
X97068342Y-55535574D01*
X97339343Y-55439607D01*
X97594812Y-55307750D01*
X97598313Y-55305289D01*
X97598317Y-55305287D01*
X97712418Y-55225095D01*
X97830023Y-55142441D01*
X98040622Y-54946740D01*
X98222713Y-54724268D01*
X98372927Y-54479142D01*
X98377420Y-54468908D01*
X98486757Y-54219830D01*
X98488483Y-54215898D01*
X98567244Y-53939406D01*
X98607751Y-53654784D01*
X98607845Y-53636951D01*
X98609235Y-53371583D01*
X98609235Y-53371576D01*
X98609257Y-53367297D01*
X98571732Y-53082266D01*
X98495871Y-52804964D01*
X98383077Y-52540524D01*
X98235439Y-52293839D01*
X98055687Y-52069472D01*
X97847149Y-51871577D01*
X97613683Y-51703814D01*
X97591843Y-51692250D01*
X97568654Y-51679972D01*
X97359608Y-51569288D01*
X97089627Y-51470489D01*
X96808736Y-51409245D01*
X96777685Y-51406801D01*
X96585718Y-51391693D01*
X96585709Y-51391693D01*
X96583261Y-51391500D01*
X96427729Y-51391500D01*
X96425593Y-51391646D01*
X96425582Y-51391646D01*
X96217452Y-51405835D01*
X96217446Y-51405836D01*
X96213175Y-51406127D01*
X96208980Y-51406996D01*
X96208978Y-51406996D01*
X96072416Y-51435277D01*
X95931658Y-51464426D01*
X95660657Y-51560393D01*
X95405188Y-51692250D01*
X95401687Y-51694711D01*
X95401683Y-51694713D01*
X95287582Y-51774905D01*
X95169977Y-51857559D01*
X94959378Y-52053260D01*
X94777287Y-52275732D01*
X94627073Y-52520858D01*
X94511517Y-52784102D01*
X94432756Y-53060594D01*
X94392249Y-53345216D01*
X94392227Y-53349505D01*
X94392226Y-53349512D01*
X94391263Y-53533421D01*
X94390743Y-53632703D01*
X64107867Y-53632703D01*
X64109235Y-53371583D01*
X64109235Y-53371576D01*
X64109257Y-53367297D01*
X64071732Y-53082266D01*
X63995871Y-52804964D01*
X63883077Y-52540524D01*
X63735439Y-52293839D01*
X63555687Y-52069472D01*
X63347149Y-51871577D01*
X63113683Y-51703814D01*
X63091843Y-51692250D01*
X63068654Y-51679972D01*
X62859608Y-51569288D01*
X62589627Y-51470489D01*
X62308736Y-51409245D01*
X62277685Y-51406801D01*
X62085718Y-51391693D01*
X62085709Y-51391693D01*
X62083261Y-51391500D01*
X61927729Y-51391500D01*
X61925593Y-51391646D01*
X61925582Y-51391646D01*
X61717452Y-51405835D01*
X61717446Y-51405836D01*
X61713175Y-51406127D01*
X61708980Y-51406996D01*
X61708978Y-51406996D01*
X61572416Y-51435277D01*
X61431658Y-51464426D01*
X61160657Y-51560393D01*
X60905188Y-51692250D01*
X60901687Y-51694711D01*
X60901683Y-51694713D01*
X60787582Y-51774905D01*
X60669977Y-51857559D01*
X60459378Y-52053260D01*
X60277287Y-52275732D01*
X60127073Y-52520858D01*
X60011517Y-52784102D01*
X59932756Y-53060594D01*
X59892249Y-53345216D01*
X59892227Y-53349505D01*
X59892226Y-53349512D01*
X59891263Y-53533421D01*
X59890743Y-53632703D01*
X59008500Y-53632703D01*
X59008500Y-53553250D01*
X59010246Y-53532345D01*
X59012770Y-53517344D01*
X59012770Y-53517341D01*
X59013576Y-53512552D01*
X59013729Y-53500000D01*
X59013039Y-53495180D01*
X59011644Y-53485437D01*
X59010545Y-53460983D01*
X59024542Y-53193902D01*
X59025920Y-53180785D01*
X59072838Y-52884555D01*
X59075580Y-52871655D01*
X59153205Y-52581953D01*
X59157281Y-52569409D01*
X59169785Y-52536837D01*
X59264763Y-52289412D01*
X59270126Y-52277365D01*
X59406289Y-52010130D01*
X59412883Y-51998709D01*
X59493528Y-51874527D01*
X59576236Y-51747168D01*
X59583984Y-51736505D01*
X59612085Y-51701804D01*
X59772727Y-51503427D01*
X59781552Y-51493626D01*
X59993626Y-51281552D01*
X60003427Y-51272727D01*
X60236505Y-51083984D01*
X60247168Y-51076236D01*
X60498714Y-50912880D01*
X60510130Y-50906289D01*
X60777365Y-50770126D01*
X60789413Y-50764762D01*
X61069414Y-50657279D01*
X61081948Y-50653207D01*
X61226804Y-50614392D01*
X61371655Y-50575580D01*
X61384555Y-50572838D01*
X61465866Y-50559960D01*
X61680791Y-50525919D01*
X61693899Y-50524542D01*
X61769063Y-50520603D01*
X61957299Y-50510738D01*
X61983276Y-50512065D01*
X61984846Y-50512309D01*
X61984850Y-50512309D01*
X61993724Y-50513691D01*
X62002626Y-50512527D01*
X62002628Y-50512527D01*
X62017677Y-50510559D01*
X62025286Y-50509564D01*
X62041621Y-50508500D01*
X96450633Y-50508500D01*
X96470018Y-50510000D01*
G37*
G04 #@! TD.AperFunction*
G04 #@! TA.AperFunction,Conductor*
G36*
X88533138Y-69153502D02*
G01*
X88579631Y-69207158D01*
X88589735Y-69277432D01*
X88572450Y-69325335D01*
X88535102Y-69386282D01*
X88530625Y-69395067D01*
X88440566Y-69612490D01*
X88437517Y-69621875D01*
X88382578Y-69850708D01*
X88381035Y-69860455D01*
X88362570Y-70095070D01*
X88362570Y-70104930D01*
X88381035Y-70339545D01*
X88382578Y-70349292D01*
X88437517Y-70578125D01*
X88440566Y-70587510D01*
X88530625Y-70804933D01*
X88535107Y-70813728D01*
X88646072Y-70994805D01*
X88656530Y-71004267D01*
X88665306Y-71000484D01*
X89835905Y-69829885D01*
X89898217Y-69795859D01*
X89969032Y-69800924D01*
X90014095Y-69829885D01*
X90195115Y-70010905D01*
X90229141Y-70073217D01*
X90224076Y-70144032D01*
X90195115Y-70189095D01*
X89027560Y-71356650D01*
X89020800Y-71369030D01*
X89026527Y-71376680D01*
X89211272Y-71489893D01*
X89220067Y-71494375D01*
X89437490Y-71584434D01*
X89446875Y-71587483D01*
X89573907Y-71617981D01*
X89635476Y-71653333D01*
X89668159Y-71716360D01*
X89661578Y-71787051D01*
X89617824Y-71842962D01*
X89544493Y-71866500D01*
X87078768Y-71866500D01*
X87067585Y-71865973D01*
X87060092Y-71864298D01*
X87052166Y-71864547D01*
X87052165Y-71864547D01*
X86992002Y-71866438D01*
X86988044Y-71866500D01*
X86960144Y-71866500D01*
X86956154Y-71867004D01*
X86944320Y-71867936D01*
X86900111Y-71869326D01*
X86892495Y-71871539D01*
X86892493Y-71871539D01*
X86880652Y-71874979D01*
X86861293Y-71878988D01*
X86859983Y-71879154D01*
X86841203Y-71881526D01*
X86833837Y-71884442D01*
X86833831Y-71884444D01*
X86800098Y-71897800D01*
X86788868Y-71901645D01*
X86765273Y-71908500D01*
X86746407Y-71913981D01*
X86739584Y-71918016D01*
X86728966Y-71924295D01*
X86711213Y-71932992D01*
X86703568Y-71936019D01*
X86692383Y-71940448D01*
X86668021Y-71958148D01*
X86656612Y-71966437D01*
X86646695Y-71972951D01*
X86608638Y-71995458D01*
X86594317Y-72009779D01*
X86579284Y-72022619D01*
X86562893Y-72034528D01*
X86557843Y-72040632D01*
X86557838Y-72040637D01*
X86534707Y-72068598D01*
X86526717Y-72077379D01*
X85774499Y-72829596D01*
X85712187Y-72863621D01*
X85685404Y-72866500D01*
X82208200Y-72866500D01*
X82140079Y-72846498D01*
X82120853Y-72830157D01*
X82120580Y-72830460D01*
X82115668Y-72826037D01*
X82111253Y-72821134D01*
X82038673Y-72768401D01*
X81962094Y-72712763D01*
X81962093Y-72712762D01*
X81956752Y-72708882D01*
X81950724Y-72706198D01*
X81950722Y-72706197D01*
X81788319Y-72633891D01*
X81788318Y-72633891D01*
X81782288Y-72631206D01*
X81670902Y-72607530D01*
X81601944Y-72592872D01*
X81601939Y-72592872D01*
X81595487Y-72591500D01*
X81404513Y-72591500D01*
X81398061Y-72592872D01*
X81398056Y-72592872D01*
X81329098Y-72607530D01*
X81217712Y-72631206D01*
X81211682Y-72633891D01*
X81211681Y-72633891D01*
X81049278Y-72706197D01*
X81049276Y-72706198D01*
X81043248Y-72708882D01*
X80888747Y-72821134D01*
X80884326Y-72826044D01*
X80884325Y-72826045D01*
X80853136Y-72860684D01*
X80792690Y-72897924D01*
X80721706Y-72896572D01*
X80662722Y-72857059D01*
X80634464Y-72791928D01*
X80633500Y-72776374D01*
X80633500Y-72314594D01*
X80653502Y-72246473D01*
X80670405Y-72225499D01*
X83725499Y-69170405D01*
X83787811Y-69136379D01*
X83814594Y-69133500D01*
X88465017Y-69133500D01*
X88533138Y-69153502D01*
G37*
G04 #@! TD.AperFunction*
M02*
