M48
; DRILL file {KiCad (6.0.7-1)-1} date 2022 October 15, Saturday 14:15:56
; FORMAT={-:-/ absolute / metric / decimal}
; #@! TF.CreationDate,2022-10-15T14:15:56+02:00
; #@! TF.GenerationSoftware,Kicad,Pcbnew,(6.0.7-1)-1
; #@! TF.FileFunction,Plated,1,2,PTH
FMAT,2
METRIC
; #@! TA.AperFunction,Plated,PTH,ViaDrill
T1C0.400
; #@! TA.AperFunction,Plated,PTH,ComponentDrill
T2C0.800
; #@! TA.AperFunction,Plated,PTH,ComponentDrill
T3C0.900
; #@! TA.AperFunction,Plated,PTH,ComponentDrill
T4C1.000
; #@! TA.AperFunction,Plated,PTH,ComponentDrill
T5C1.100
; #@! TA.AperFunction,Plated,PTH,ComponentDrill
T6C1.320
%
G90
G05
T1
X80.0Y-75.0
X81.0Y-77.0
X81.5Y-73.5
X89.5Y-66.5
X92.5Y-72.5
T2
X68.38Y-93.5
X68.38Y-97.5
X69.5Y-66.92
X69.5Y-77.08
X69.5Y-79.92
X69.5Y-90.08
X73.0Y-66.92
X73.0Y-77.08
X73.0Y-79.84
X73.0Y-90.0
X83.62Y-93.5
X83.62Y-97.5
X87.735Y-90.7
X87.735Y-98.32
X90.275Y-90.7
X90.275Y-98.32
T3
X61.5Y-90.0
X61.5Y-96.604
X61.5Y-103.208
X64.04Y-90.0
X64.04Y-96.604
X64.04Y-103.208
T4
X95.0Y-58.39
X95.0Y-60.93
X95.0Y-63.47
X95.0Y-66.01
X95.0Y-68.55
X95.0Y-71.09
X95.0Y-73.63
X95.0Y-76.17
X95.0Y-78.71
X95.0Y-81.25
X95.0Y-83.79
X95.0Y-86.33
X95.0Y-88.87
X95.0Y-91.41
X95.0Y-93.95
X95.0Y-96.49
X95.0Y-99.03
X95.0Y-101.57
X95.0Y-104.11
X95.0Y-106.65
X97.54Y-58.39
X97.54Y-60.93
X97.54Y-63.47
X97.54Y-66.01
X97.54Y-68.55
X97.54Y-71.09
X97.54Y-73.63
X97.54Y-76.17
X97.54Y-78.71
X97.54Y-81.25
X97.54Y-83.79
X97.54Y-86.33
X97.54Y-88.87
X97.54Y-91.41
X97.54Y-93.95
X97.54Y-96.49
X97.54Y-99.03
X97.54Y-101.57
X97.54Y-104.11
X97.54Y-106.65
T5
X81.25Y-59.25
X81.25Y-63.75
X87.75Y-59.25
X87.75Y-63.75
X89.925Y-70.1
X89.925Y-74.7
X89.925Y-79.3
X89.925Y-83.9
T6
X69.0Y-56.372
X70.5Y-108.5
X74.0Y-56.372
X75.5Y-108.5
X81.735Y-108.5
X86.735Y-108.5
T0
M30
